<svg width="1225" height="928" viewBox="0 0 1225 928" fill="none" xmlns="http://www.w3.org/2000/svg">
<rect x="63" width="1162" height="523" rx="20" fill="#3575E2"/>
<path d="M591.597 888.845H548.064V889.225H591.597V888.845Z" fill="#EBEBEB"/>
<path d="M435.604 893.001H424.181V893.381H435.604V893.001Z" fill="#EBEBEB"/>
<path d="M546.748 874.675H521.525V875.055H546.748V874.675Z" fill="#EBEBEB"/>
<path d="M125.97 877.242H69.2011V877.622H125.97V877.242Z" fill="#EBEBEB"/>
<path d="M145.999 877.242H137.679V877.622H145.999V877.242Z" fill="#EBEBEB"/>
<path d="M296.184 883.686H173.051V884.067H296.184V883.686Z" fill="#EBEBEB"/>
<path d="M311.762 796.174H57.9766C55.9861 796.174 54.0771 795.256 52.6696 793.621C51.2621 791.985 50.4714 789.768 50.4714 787.455V372.986C50.4887 370.687 51.2871 368.489 52.6927 366.87C54.0983 365.252 55.9974 364.344 57.9766 364.344H311.762C313.752 364.344 315.661 365.262 317.069 366.898C318.476 368.533 319.267 370.75 319.267 373.063V787.455C319.267 789.768 318.476 791.985 317.069 793.621C315.661 795.256 313.752 796.174 311.762 796.174V796.174ZM57.9766 364.649C56.0743 364.653 54.2509 365.533 52.9058 367.096C51.5607 368.658 50.8034 370.777 50.8 372.986V787.455C50.8034 789.665 51.5607 791.783 52.9058 793.346C54.2509 794.909 56.0743 795.788 57.9766 795.792H311.762C313.664 795.788 315.487 794.909 316.832 793.346C318.178 791.783 318.935 789.665 318.938 787.455V372.986C318.935 370.777 318.178 368.658 316.832 367.096C315.487 365.533 313.664 364.653 311.762 364.649H57.9766Z" fill="#EBEBEB"/>
<path d="M596.079 796.174H342.268C340.278 796.17 338.371 795.25 336.964 793.616C335.558 791.982 334.766 789.766 334.762 787.455V372.986C334.783 370.689 335.583 368.493 336.987 366.875C338.392 365.257 340.289 364.348 342.268 364.344H596.079C598.054 364.352 599.946 365.263 601.346 366.881C602.746 368.499 603.541 370.693 603.558 372.986V787.455C603.558 789.762 602.771 791.975 601.369 793.61C599.967 795.244 598.065 796.166 596.079 796.174V796.174ZM342.268 364.649C340.365 364.653 338.542 365.533 337.197 367.096C335.852 368.658 335.094 370.777 335.091 372.986V787.455C335.094 789.665 335.852 791.783 337.197 793.346C338.542 794.909 340.365 795.788 342.268 795.792H596.079C597.981 795.788 599.805 794.909 601.15 793.346C602.495 791.783 603.252 789.665 603.256 787.455V372.986C603.252 370.777 602.495 368.658 601.15 367.096C599.805 365.533 597.981 364.653 596.079 364.649H342.268Z" fill="#EBEBEB"/>
<path d="M657.449 864.277H0.246704V864.657H657.449V864.277Z" fill="#EBEBEB"/>
<path d="M128.662 433.546H126.296V647.888H128.662V433.546Z" fill="#E0E0E0"/>
<path d="M275.943 433.546H273.577V647.888H275.943V433.546Z" fill="#E0E0E0"/>
<path d="M285.21 447.03H117.032L113.483 437.41H288.759L285.21 447.03Z" fill="#EBEBEB"/>
<path d="M285.21 460.239H117.032L113.483 450.619H288.759L285.21 460.239Z" fill="#EBEBEB"/>
<path d="M285.21 473.446H117.032L113.483 463.826H288.759L285.21 473.446Z" fill="#EBEBEB"/>
<path d="M285.21 486.653H117.032L113.483 477.033H288.759L285.21 486.653Z" fill="#EBEBEB"/>
<path d="M285.21 499.865H117.032L113.483 490.245H288.759L285.21 499.865Z" fill="#EBEBEB"/>
<path d="M285.21 513.072H117.032L113.483 503.452H288.759L285.21 513.072Z" fill="#EBEBEB"/>
<path d="M285.21 526.279H117.032L113.483 516.659H288.759L285.21 526.279Z" fill="#EBEBEB"/>
<path d="M285.21 539.488H117.032L113.483 529.868H288.759L285.21 539.488Z" fill="#EBEBEB"/>
<path d="M285.21 552.681H117.032L113.483 543.061H288.759L285.21 552.681Z" fill="#EBEBEB"/>
<path d="M285.21 565.893H117.032L113.483 556.273H288.759L285.21 565.893Z" fill="#EBEBEB"/>
<path d="M285.21 579.097H117.032L113.483 569.477H288.759L285.21 579.097Z" fill="#EBEBEB"/>
<path d="M285.21 592.31H117.032L113.483 582.69H288.759L285.21 592.31Z" fill="#EBEBEB"/>
<path d="M285.21 605.516H117.032L113.483 595.896H288.759L285.21 605.516Z" fill="#EBEBEB"/>
<path d="M285.21 618.726H117.032L113.483 609.106H288.759L285.21 618.726Z" fill="#EBEBEB"/>
<path d="M285.21 631.933H117.032L113.483 622.313H288.759L285.21 631.933Z" fill="#EBEBEB"/>
<path d="M285.21 645.142H117.032L113.483 635.522H288.759L285.21 645.142Z" fill="#EBEBEB"/>
<path d="M288.759 645.141H113.483V650.638H288.759V645.141Z" fill="#E0E0E0"/>
<path d="M294.869 425.364H107.37V438.19H294.869V425.364Z" fill="#E0E0E0"/>
<path d="M109.343 554.485C108.837 554.485 108.353 554.251 107.995 553.836C107.638 553.421 107.437 552.858 107.437 552.271V477.449C107.437 477.158 107.486 476.87 107.582 476.601C107.678 476.333 107.818 476.088 107.995 475.883C108.172 475.677 108.382 475.514 108.613 475.403C108.845 475.292 109.092 475.234 109.343 475.234V475.234C109.848 475.234 110.333 475.468 110.69 475.883C111.048 476.298 111.249 476.861 111.249 477.449V552.271C111.249 552.561 111.199 552.849 111.104 553.118C111.008 553.387 110.867 553.631 110.69 553.836C110.513 554.042 110.303 554.205 110.072 554.316C109.841 554.427 109.593 554.485 109.343 554.485V554.485Z" fill="#E0E0E0"/>
<path d="M109.986 435.622H108.606V480.058H109.986V435.622Z" fill="#E0E0E0"/>
<path d="M323.42 515.133H329.256C330.215 515.133 331.134 515.575 331.812 516.363C332.49 517.15 332.871 518.219 332.871 519.332V716.45H319.792V519.332C319.792 518.78 319.886 518.232 320.069 517.722C320.251 517.211 320.519 516.748 320.856 516.358C321.193 515.967 321.593 515.658 322.033 515.448C322.473 515.238 322.944 515.131 323.42 515.133Z" fill="#E6E6E6"/>
<path d="M327.442 515.133H323.841C322.769 515.133 321.742 515.626 320.983 516.505C320.224 517.384 319.796 518.576 319.792 519.821V716.45H323.394V519.821C323.397 518.576 323.825 517.384 324.584 516.505C325.343 515.626 326.371 515.133 327.442 515.133Z" fill="#F0F0F0"/>
<path d="M336.667 703.455H316.083V864.658H336.667V703.455Z" fill="#EBEBEB"/>
<path d="M308.763 858.139H343.989C345.321 858.139 346.598 858.753 347.539 859.847C348.481 860.941 349.01 862.425 349.01 863.972V864.644H303.742V863.972C303.742 862.425 304.271 860.941 305.212 859.847C306.154 858.753 307.431 858.139 308.763 858.139V858.139Z" fill="#E6E6E6"/>
<path d="M521.302 785.028H554.491C557.352 785.024 560.095 783.702 562.118 781.352C564.141 779.001 565.279 775.815 565.282 772.491V716.115C565.282 715.508 565.074 714.925 564.705 714.495C564.335 714.066 563.833 713.825 563.311 713.825C562.788 713.825 562.286 714.066 561.916 714.495C561.547 714.925 561.339 715.508 561.339 716.115V772.491C561.339 774.601 560.617 776.625 559.333 778.117C558.049 779.609 556.307 780.447 554.491 780.447H521.302V785.028Z" fill="#E0E0E0"/>
<path d="M511.811 839.051V786.553L509.182 785.591C507.728 785.059 506.457 784.002 505.554 782.575C504.651 781.147 504.164 779.422 504.161 777.651H529.201C529.201 779.423 528.714 781.149 527.81 782.577C526.907 784.005 525.635 785.061 524.18 785.591L521.551 786.553V839.051L542.332 849.923V854.504L516.661 844.074L490.991 854.504V849.923L511.811 839.051Z" fill="#E0E0E0"/>
<path d="M483.948 780.447H549.419C550.352 780.447 551.277 780.233 552.14 779.818C553.002 779.403 553.786 778.794 554.447 778.027C555.107 777.26 555.631 776.349 555.988 775.347C556.346 774.345 556.529 773.271 556.529 772.186C556.526 769.998 555.775 767.9 554.442 766.354C553.109 764.808 551.302 763.94 549.419 763.94H483.948C482.066 763.94 480.26 764.809 478.929 766.355C477.598 767.902 476.85 769.999 476.85 772.186C476.849 773.27 477.031 774.344 477.387 775.346C477.743 776.348 478.265 777.259 478.925 778.026C479.584 778.794 480.367 779.402 481.229 779.818C482.091 780.233 483.015 780.447 483.948 780.447Z" fill="#F0F0F0"/>
<path d="M560.946 735.95L564.482 677.252C564.612 675.074 563.993 672.925 562.761 671.276C561.529 669.627 559.784 668.614 557.91 668.457V668.457C556.033 668.302 554.179 669.019 552.757 670.45C551.335 671.882 550.46 673.911 550.326 676.092L546.79 734.789C546.66 736.969 547.278 739.12 548.51 740.771C549.742 742.422 551.486 743.439 553.362 743.6C555.24 743.751 557.094 743.03 558.515 741.596C559.937 740.162 560.811 738.131 560.946 735.95V735.95Z" fill="#EBEBEB"/>
<path d="M537.837 857.729C537.837 858.762 538.101 859.772 538.595 860.63C539.088 861.489 539.791 862.158 540.612 862.554C541.433 862.949 542.337 863.052 543.209 862.851C544.081 862.649 544.882 862.152 545.511 861.422C546.139 860.691 546.568 859.761 546.741 858.748C546.915 857.735 546.826 856.685 546.485 855.73C546.145 854.776 545.569 853.961 544.83 853.387C544.09 852.813 543.221 852.507 542.332 852.507C541.742 852.507 541.157 852.642 540.612 852.904C540.067 853.167 539.571 853.551 539.154 854.036C538.736 854.521 538.405 855.097 538.179 855.73C537.953 856.364 537.837 857.043 537.837 857.729Z" fill="#E0E0E0"/>
<path d="M486.498 857.729C486.498 858.762 486.762 859.772 487.256 860.63C487.749 861.489 488.452 862.158 489.273 862.554C490.094 862.949 490.998 863.052 491.87 862.851C492.742 862.649 493.543 862.152 494.172 861.422C494.801 860.691 495.229 859.761 495.402 858.748C495.576 857.735 495.486 856.685 495.146 855.73C494.806 854.776 494.23 853.961 493.491 853.387C492.751 852.813 491.882 852.507 490.993 852.507C489.801 852.507 488.658 853.057 487.815 854.036C486.972 855.016 486.498 856.344 486.498 857.729Z" fill="#E0E0E0"/>
<path d="M132.173 785.028H98.9844C96.1212 785.028 93.375 783.708 91.3492 781.357C89.3233 779.006 88.1835 775.818 88.18 772.491V716.115C88.18 715.508 88.3877 714.925 88.7575 714.495C89.1272 714.066 89.6287 713.825 90.1516 713.825C90.6745 713.825 91.176 714.066 91.5457 714.495C91.9155 714.925 92.1232 715.508 92.1232 716.115V772.491C92.1267 774.603 92.8511 776.626 94.1374 778.118C95.4238 779.609 97.167 780.447 98.9844 780.447H132.173V785.028Z" fill="#E0E0E0"/>
<path d="M141.662 839.051V786.553L144.291 785.591C145.744 785.058 147.013 784.001 147.914 782.573C148.814 781.145 149.3 779.421 149.299 777.651H124.325C124.327 779.422 124.815 781.147 125.718 782.575C126.621 784.002 127.892 785.059 129.346 785.591L131.975 786.553V839.051L111.142 849.923V854.504L136.812 844.074L162.482 854.504V849.923L141.662 839.051Z" fill="#E0E0E0"/>
<path d="M169.542 780.447H104.084C102.201 780.443 100.395 779.571 99.0646 778.022C97.7339 776.473 96.9865 774.374 96.9865 772.186C96.9865 769.999 97.7343 767.902 99.0654 766.355C100.396 764.809 102.202 763.94 104.084 763.94H169.542C171.425 763.94 173.232 764.808 174.565 766.354C175.898 767.9 176.649 769.998 176.653 772.186C176.653 774.377 175.903 776.478 174.57 778.027C173.236 779.576 171.428 780.447 169.542 780.447Z" fill="#F0F0F0"/>
<path d="M92.5188 735.95L88.9831 677.252C88.8529 675.074 89.4717 672.925 90.7038 671.276C91.9358 669.627 93.6805 668.614 95.5551 668.457V668.457C97.4322 668.302 99.2856 669.019 100.708 670.45C102.13 671.882 103.005 673.911 103.139 676.092L106.714 734.804C106.845 736.984 106.226 739.135 104.994 740.786C103.763 742.438 102.018 743.455 100.142 743.615V743.615C99.208 743.696 98.2691 743.562 97.3796 743.22C96.49 742.878 95.6674 742.336 94.959 741.623C94.2506 740.911 93.6703 740.043 93.2515 739.069C92.8327 738.096 92.5837 737.035 92.5188 735.95V735.95Z" fill="#EBEBEB"/>
<path d="M115.625 857.729C115.625 858.763 115.361 859.773 114.866 860.632C114.372 861.491 113.669 862.16 112.847 862.555C112.024 862.95 111.12 863.053 110.248 862.85C109.375 862.647 108.574 862.148 107.946 861.416C107.318 860.684 106.891 859.752 106.719 858.738C106.547 857.724 106.638 856.674 106.98 855.72C107.322 854.766 107.901 853.951 108.642 853.379C109.383 852.807 110.253 852.504 111.143 852.507C111.732 852.507 112.316 852.642 112.861 852.905C113.405 853.167 113.9 853.552 114.317 854.037C114.733 854.522 115.063 855.098 115.287 855.732C115.512 856.365 115.626 857.044 115.625 857.729V857.729Z" fill="#E0E0E0"/>
<path d="M166.966 857.729C166.966 858.763 166.702 859.773 166.208 860.632C165.713 861.491 165.01 862.16 164.188 862.555C163.366 862.95 162.461 863.053 161.589 862.85C160.717 862.647 159.916 862.148 159.288 861.416C158.659 860.684 158.232 859.752 158.06 858.738C157.888 857.724 157.979 856.674 158.321 855.72C158.664 854.766 159.242 853.951 159.983 853.379C160.724 852.807 161.594 852.504 162.484 852.507C163.074 852.507 163.658 852.642 164.202 852.905C164.747 853.167 165.242 853.552 165.658 854.037C166.074 854.522 166.404 855.098 166.629 855.732C166.853 856.365 166.968 857.044 166.966 857.729V857.729Z" fill="#E0E0E0"/>
<path d="M273.222 864.661H247.591L244.962 808.193H275.851L273.222 864.661Z" fill="#EBEBEB"/>
<path d="M253.508 864.657H242.992V862.138L253.508 860.611V864.657Z" fill="#E0E0E0"/>
<path d="M248.867 803.611H271.948C272.994 803.611 273.997 804.093 274.736 804.952C275.476 805.811 275.891 806.977 275.891 808.192V808.192H244.95C244.95 806.977 245.366 805.811 246.105 804.952C246.845 804.093 247.848 803.611 248.893 803.611H248.867Z" fill="#E0E0E0"/>
<path d="M220.645 718.208H179.61V712.497L220.645 709.443V718.208Z" fill="#E0E0E0"/>
<path d="M281.319 724.025H159.96V743.54H281.319V724.025Z" fill="#F0F0F0"/>
<path d="M306.475 718.207H135.234V729.842H306.475V718.207Z" fill="#FAFAFA"/>
<path d="M290.57 864.66H298.299L284.918 729.843H275.849L290.57 864.66Z" fill="#E6E6E6"/>
<path d="M165.862 729.843H156.792L143.399 864.66H151.14L165.862 729.843Z" fill="#E6E6E6"/>
<path d="M262.194 715.305C258.689 695.087 255.183 674.86 251.678 654.622C251.179 651.736 247.367 652.958 247.867 655.844L257.869 713.625H236.182C235.659 713.625 235.157 713.866 234.787 714.296C234.418 714.725 234.21 715.308 234.21 715.915C234.21 716.523 234.418 717.105 234.787 717.535C235.157 717.965 235.659 718.206 236.182 718.206H260.275C260.578 718.203 260.877 718.12 261.149 717.963C261.421 717.806 261.658 717.579 261.843 717.299C262.028 717.019 262.156 716.694 262.217 716.349C262.277 716.003 262.27 715.646 262.194 715.305V715.305Z" fill="#E0E0E0"/>
<path d="M237.641 699.029L244.398 586.827C246.893 588.895 248.888 591.673 250.193 594.895C251.498 598.117 252.069 601.675 251.85 605.227L247.237 681.958C247.031 685.52 246.04 688.961 244.36 691.951C242.68 694.94 240.366 697.378 237.641 699.029Z" fill="#FAFAFA"/>
<path d="M290.285 685.59H279.296C277.191 685.59 275.484 687.573 275.484 690.019V713.779C275.484 716.224 277.191 718.207 279.296 718.207H290.285C292.39 718.207 294.096 716.224 294.096 713.779V690.019C294.096 687.573 292.39 685.59 290.285 685.59Z" fill="#F5F5F5"/>
<path d="M282.844 673.45C279.939 673.45 277.586 674.29 277.586 675.313C277.586 676.336 279.952 674.946 282.844 674.946C283.216 674.923 283.589 674.923 283.961 674.946V682.337H285.617V675.236C287.115 675.557 288.114 675.908 288.114 675.236C288.101 674.32 285.748 673.45 282.844 673.45Z" fill="#E0E0E0"/>
<path d="M287.76 680.017H281.832V686.904H287.76V680.017Z" fill="#F0F0F0"/>
<path d="M372.158 743.554H493.517V724.039H372.158V743.554Z" fill="#F0F0F0"/>
<path d="M346.999 729.857H518.24V718.221H346.999V729.857Z" fill="#FAFAFA"/>
<path d="M362.904 864.66H355.162L368.543 729.843H377.612L362.904 864.66Z" fill="#E6E6E6"/>
<path d="M487.615 729.843H496.684L510.065 864.66H502.323L487.615 729.843Z" fill="#E6E6E6"/>
<path d="M437.062 380.315H434.131V486.028H437.062V380.315Z" fill="#E0E0E0"/>
<path d="M399.049 506.397L435.615 440.478L472.169 506.397H399.049Z" fill="#E0E0E0"/>
<path d="M197.971 380.315H195.04V465.261H197.971V380.315Z" fill="#E0E0E0"/>
<path d="M159.96 503.622L196.513 437.702L233.067 503.622H159.96Z" fill="#FAFAFA"/>
<path d="M322.514 927.355C463.264 927.355 577.364 919.616 577.364 910.069C577.364 900.523 463.264 892.784 322.514 892.784C181.765 892.784 67.6646 900.523 67.6646 910.069C67.6646 919.616 181.765 927.355 322.514 927.355Z" fill="#F5F5F5"/>
<path opacity="0.2" d="M324.589 904.604V908.528C324.587 908.99 324.664 909.447 324.816 909.874C324.967 910.301 325.19 910.689 325.471 911.016C325.752 911.342 326.086 911.601 326.453 911.777C326.821 911.953 327.215 912.042 327.612 912.04H453.006C453.874 912.036 454.706 911.635 455.321 910.923C455.937 910.211 456.285 909.246 456.292 908.238V904.161C456.292 903.087 456.186 902.016 455.977 900.969C455.796 900.058 455.541 899.168 455.215 898.312L424.707 819.932H353.48L364.416 893.335C364.485 893.762 364.516 894.197 364.508 894.632C364.476 896.367 363.86 898.019 362.79 899.23C361.72 900.441 360.284 901.115 358.79 901.107H327.612C327.216 901.105 326.823 901.194 326.456 901.369C326.09 901.543 325.756 901.801 325.475 902.126C325.194 902.451 324.972 902.837 324.819 903.262C324.667 903.687 324.589 904.143 324.589 904.604Z" fill="white"/>
<path d="M459.237 898.328L428.743 819.932H424.708L455.202 898.328C455.917 900.161 456.289 902.149 456.293 904.161V908.223C456.293 909.235 455.947 910.206 455.33 910.922C454.714 911.638 453.878 912.04 453.007 912.04H457.042C457.473 912.04 457.9 911.941 458.298 911.749C458.695 911.557 459.057 911.276 459.361 910.921C459.665 910.566 459.906 910.145 460.07 909.682C460.233 909.219 460.317 908.723 460.315 908.223V904.161C460.315 902.15 459.948 900.162 459.237 898.328Z" fill="#263238"/>
<path opacity="0.3" d="M424.707 819.932H353.479L356.279 838.669H431.989L424.707 819.932Z" fill="black"/>
<path d="M565.115 560.146L548.028 787.666L545.951 815.243C545.646 818.74 544.248 821.986 542.023 824.367C539.797 826.747 536.897 828.097 533.872 828.162H229.929C228.506 828.189 227.095 827.864 225.788 827.208C224.482 826.553 223.31 825.582 222.352 824.36C221.393 823.138 220.669 821.693 220.229 820.121C219.788 818.55 219.64 816.887 219.795 815.243L221.872 787.666L238.959 560.146C239.264 556.65 240.662 553.406 242.889 551.028C245.115 548.65 248.014 547.303 251.038 547.243H554.928C557.319 547.213 559.643 548.152 561.5 549.9C561.752 550.134 561.99 550.389 562.21 550.663C562.901 551.455 563.482 552.367 563.932 553.366C564.251 554.032 564.503 554.74 564.681 555.473C565.081 556.984 565.228 558.57 565.115 560.146Z" fill="#263238"/>
<path d="M221.882 787.664L219.753 815.242C219.6 816.886 219.749 818.549 220.192 820.121C220.634 821.693 221.359 823.137 222.319 824.359C223.278 825.581 224.45 826.551 225.758 827.207C227.065 827.862 228.477 828.187 229.9 828.16H533.816C536.841 828.096 539.741 826.746 541.967 824.365C544.193 821.984 545.591 818.739 545.896 815.242L547.972 787.664H221.882Z" fill="#407BFF"/>
<path opacity="0.6" d="M221.882 787.664L219.753 815.242C219.6 816.886 219.749 818.549 220.192 820.121C220.634 821.693 221.359 823.137 222.319 824.359C223.278 825.581 224.45 826.551 225.758 827.207C227.065 827.862 228.477 828.187 229.9 828.16H533.816C536.841 828.096 539.741 826.746 541.967 824.365C544.193 821.984 545.591 818.739 545.896 815.242L547.972 787.664H221.882Z" fill="white"/>
<path d="M537.261 779.866H233.778C233.007 779.882 232.242 779.707 231.534 779.353C230.826 778.999 230.19 778.473 229.671 777.811C229.151 777.15 228.758 776.367 228.519 775.515C228.28 774.664 228.2 773.762 228.284 772.872L244.162 562.042C244.327 560.14 245.087 558.375 246.299 557.083C247.511 555.79 249.089 555.061 250.734 555.033H554.191C554.963 555.016 555.729 555.191 556.439 555.547C557.148 555.902 557.784 556.428 558.304 557.092C558.824 557.755 559.216 558.54 559.454 559.394C559.692 560.247 559.771 561.15 559.685 562.042L543.807 772.872C543.64 774.766 542.882 776.523 541.676 777.811C540.47 779.1 538.899 779.831 537.261 779.866Z" fill="#407BFF"/>
<path d="M561.693 547.242H554.924C556.347 547.212 557.758 547.535 559.064 548.189C560.371 548.843 561.542 549.812 562.501 551.033C563.46 552.254 564.184 553.698 564.625 555.269C565.066 556.84 565.214 558.502 565.058 560.145L545.894 815.242C545.589 818.739 544.192 821.985 541.966 824.366C539.74 826.746 536.84 828.096 533.815 828.161H540.532C543.558 828.097 546.46 826.747 548.688 824.367C550.916 821.987 552.316 818.741 552.624 815.242L571.828 560.145C571.985 558.502 571.839 556.838 571.398 555.266C570.958 553.694 570.235 552.249 569.275 551.028C568.316 549.806 567.144 548.837 565.836 548.184C564.529 547.531 563.116 547.21 561.693 547.242V547.242Z" fill="#263238"/>
<g opacity="0.2">
<path opacity="0.2" d="M561.696 547.242H554.927C556.349 547.212 557.76 547.535 559.067 548.189C560.373 548.843 561.545 549.812 562.504 551.033C563.462 552.254 564.186 553.698 564.627 555.269C565.068 556.84 565.216 558.502 565.061 560.145L545.897 815.242C545.592 818.739 544.194 821.985 541.968 824.366C539.742 826.746 536.842 828.096 533.817 828.161H540.534C543.56 828.097 546.462 826.747 548.69 824.367C550.918 821.987 552.319 818.741 552.626 815.242L571.83 560.145C571.987 558.502 571.841 556.838 571.401 555.266C570.961 553.694 570.237 552.249 569.278 551.028C568.319 549.806 567.146 548.837 565.839 548.184C564.531 547.531 563.119 547.21 561.696 547.242V547.242Z" fill="white"/>
</g>
<g opacity="0.1">
<path opacity="0.1" d="M347.41 555.031H335.738L294.61 779.864H306.282L347.41 555.031Z" fill="white"/>
<path opacity="0.1" d="M282.803 779.865L323.944 555.032H280.083L238.942 779.865H282.803Z" fill="white"/>
</g>
<path opacity="0.2" d="M434.619 904.633V908.359C434.619 909.333 434.287 910.266 433.696 910.956C433.105 911.646 432.302 912.035 431.464 912.039H327.627C326.825 912.039 326.056 911.669 325.489 911.011C324.922 910.352 324.603 909.459 324.603 908.527V904.618C324.603 903.687 324.922 902.793 325.489 902.135C326.056 901.476 326.825 901.106 327.627 901.106H358.817C359.21 901.106 359.602 901.06 359.987 900.969H431.478C432.312 900.973 433.111 901.361 433.7 902.047C434.288 902.734 434.619 903.664 434.619 904.633V904.633Z" fill="white"/>
<path opacity="0.2" d="M455.977 900.969H360.026C361.286 900.66 362.418 899.867 363.241 898.717C364.064 897.567 364.529 896.128 364.561 894.632H453.572L455.977 900.969Z" fill="black"/>
<path opacity="0.3" d="M546.737 592.151H400.68V787.636H546.737V592.151Z" fill="black"/>
<path d="M539.035 571.523H393.254V779.086H539.035V571.523Z" fill="white"/>
<path d="M539.035 571.523H393.254V583.8H539.035V571.523Z" fill="#263238"/>
<path opacity="0.1" d="M539.033 583.797H433.67V779.083H539.033V583.797Z" fill="black"/>
<path opacity="0.1" d="M468.464 588.471H438.863V628.234H468.464V588.471Z" fill="black"/>
<path opacity="0.1" d="M535.488 588.471H474.092V604.84H535.488V588.471Z" fill="black"/>
<path opacity="0.1" d="M535.488 611.867H474.092V700.157H535.488V611.867Z" fill="black"/>
<path opacity="0.1" d="M535.488 707.165H474.092V773.237H535.488V707.165Z" fill="black"/>
<path d="M474.104 643.428H433.345V658.637H474.104V643.428Z" fill="#407BFF"/>
<path d="M434.014 611.867H393.254V627.076H434.014V611.867Z" fill="#407BFF"/>
<path d="M535.488 721.641H474.092V729.536H535.488V721.641Z" fill="black"/>
<path d="M480.269 595.101L481.544 592.093L482.819 595.101L485.671 595.574L483.607 597.926L484.094 601.224L481.544 599.667L478.994 601.224L479.48 597.926L477.404 595.59L480.269 595.101Z" fill="#407BFF"/>
<path d="M491.888 595.101L493.163 592.093L494.451 595.101L497.303 595.574L495.239 597.926L495.726 601.224L493.176 599.667L490.613 601.224L491.099 597.926L489.035 595.59L491.888 595.101Z" fill="#407BFF"/>
<path d="M503.519 595.101L504.794 592.093L506.069 595.101L508.922 595.574L506.858 597.926L507.357 601.224L504.794 599.667L502.244 601.224L502.731 597.926L500.667 595.59L503.519 595.101Z" fill="#407BFF"/>
<path d="M515.139 595.101L516.414 592.093L517.702 595.101L520.554 595.574L518.491 597.926L518.977 601.224L516.427 599.667L513.877 601.224L514.35 597.926L512.287 595.59L515.139 595.101Z" fill="black"/>
<path d="M526.773 595.101L528.048 592.093L529.323 595.101L532.176 595.574L530.125 597.926L530.611 601.224L528.048 599.667L525.498 601.224L525.985 597.926L523.921 595.59L526.773 595.101Z" fill="black"/>
<path d="M502.613 619.653H478.467V621.18H502.613V619.653Z" fill="#263238"/>
<path d="M497.526 632.802H478.467V634.329H497.526V632.802Z" fill="#263238"/>
<path d="M497.526 644.296H478.467V645.823H497.526V644.296Z" fill="#263238"/>
<path d="M497.526 655.78H478.467V657.307H497.526V655.78Z" fill="#263238"/>
<path d="M497.526 667.266H478.467V668.793H497.526V667.266Z" fill="#263238"/>
<path d="M497.526 678.764H478.467V680.291H497.526V678.764Z" fill="#263238"/>
<path d="M497.526 690.244H478.467V691.771H497.526V690.244Z" fill="#263238"/>
<path d="M519.213 632.802H500.154V634.329H519.213V632.802Z" fill="#263238"/>
<path d="M519.213 644.296H500.154V645.823H519.213V644.296Z" fill="#263238"/>
<path d="M519.213 655.78H500.154V657.307H519.213V655.78Z" fill="#263238"/>
<path d="M519.213 667.266H500.154V668.793H519.213V667.266Z" fill="#263238"/>
<path d="M519.213 678.764H500.154V680.291H519.213V678.764Z" fill="#263238"/>
<path d="M519.213 690.244H500.154V691.771H519.213V690.244Z" fill="#263238"/>
<path d="M519.214 624.035H478.467V625.562H519.214V624.035Z" fill="#263238"/>
<path d="M519.214 714.723H478.467V716.25H519.214V714.723Z" fill="#263238"/>
<path d="M468.464 632.802H438.863V634.329H468.464V632.802Z" fill="#263238"/>
<path d="M468.464 666.256H438.863V667.783H468.464V666.256Z" fill="#263238"/>
<path d="M468.464 679.053H438.863V680.58H468.464V679.053Z" fill="#263238"/>
<path d="M468.464 691.834H438.863V693.361H468.464V691.834Z" fill="#263238"/>
<path d="M468.464 704.629H438.863V706.156H468.464V704.629Z" fill="#263238"/>
<path d="M468.464 717.426H438.863V718.953H468.464V717.426Z" fill="#263238"/>
<path d="M468.464 730.207H438.863V731.734H468.464V730.207Z" fill="#263238"/>
<path d="M468.464 743.005H438.863V744.532H468.464V743.005Z" fill="#263238"/>
<path d="M468.464 755.783H438.863V757.31H468.464V755.783Z" fill="#263238"/>
<path d="M453.663 637.735H438.863V639.262H453.663V637.735Z" fill="#263238"/>
<path d="M428.926 591.327H398.353V592.854H428.926V591.327Z" fill="#263238"/>
<path d="M428.926 601.193H398.353V602.72H428.926V601.193Z" fill="#263238"/>
<path d="M428.926 637.735H398.353V639.262H428.926V637.735Z" fill="#263238"/>
<path d="M438.916 628.038V623.197C448.181 619.35 458.29 619.226 467.623 622.846L468.516 623.197V628.038H438.916Z" fill="white"/>
<path d="M452.244 626.725C454.584 626.414 456.724 625.042 458.199 622.907C458.407 622.554 458.506 622.127 458.477 621.699C458.448 621.271 458.294 620.868 458.041 620.556C455.938 617.67 455.557 611.241 455.583 607.454L453.217 610.982L449.997 615.792C450.22 616.387 450.43 616.983 450.601 617.594C450.73 618.03 450.823 618.48 450.877 618.937V618.937C451.011 619.774 450.923 620.638 450.625 621.415C450.327 622.192 449.833 622.846 449.208 623.289C448.967 623.475 448.774 623.734 448.651 624.038C448.528 624.343 448.479 624.68 448.511 625.015C448.542 625.349 448.652 625.667 448.828 625.934C449.004 626.2 449.24 626.405 449.51 626.526C450.394 626.851 451.333 626.92 452.244 626.725Z" fill="#F7978D"/>
<path opacity="0.2" d="M449.999 615.788C450.223 616.384 450.433 616.979 450.604 617.59C450.733 618.027 450.825 618.477 450.88 618.934V618.934C451.68 618.485 452.367 617.804 452.874 616.956C453.38 616.107 453.69 615.121 453.771 614.093C453.732 613.499 453.639 612.91 453.495 612.337L449.999 615.788Z" fill="black"/>
<path d="M447.026 606.934C446.87 607.251 446.644 607.515 446.372 607.698C446.099 607.882 445.79 607.978 445.475 607.978C445.161 607.978 444.851 607.882 444.579 607.698C444.307 607.515 444.081 607.251 443.924 606.934C445.042 604.216 444.2 603.957 444.135 601.926C444.021 600.75 444.185 599.56 444.608 598.484C445.032 597.408 445.7 596.486 446.54 595.818H448.341C454.821 597.375 447.026 606.934 447.026 606.934Z" fill="#263238"/>
<path d="M457.452 600.43C457.252 599.483 456.893 598.592 456.397 597.807C455.9 597.021 455.275 596.357 454.557 595.852C453.839 595.347 453.043 595.012 452.214 594.865C451.384 594.717 450.538 594.761 449.724 594.994C444.689 596.277 442.586 604.309 442.744 609.454C442.77 610.939 443.177 612.38 443.914 613.593C444.394 614.377 445.002 615.043 445.704 615.554C446.406 616.064 447.188 616.409 448.005 616.567C448.822 616.726 449.658 616.696 450.465 616.479C451.271 616.262 452.034 615.863 452.707 615.303C455.625 612.951 456.125 609.699 457.387 604.247C457.69 603.003 457.713 601.688 457.452 600.43V600.43Z" fill="#F7978D"/>
<path d="M444.95 609.911C446.568 609.533 448.216 609.364 449.866 609.407C449.728 610.182 449.351 610.873 448.807 611.351C448.263 611.828 447.589 612.06 446.909 612.003C446.436 612.041 445.969 611.863 445.607 611.506C445.246 611.149 445.02 610.642 444.976 610.094C444.976 610.094 444.963 609.972 444.95 609.911Z" fill="#263238"/>
<path d="M447.71 610.874C446.99 610.836 446.283 611.096 445.712 611.607C446.06 611.88 446.475 612.014 446.895 611.988C447.611 612.033 448.317 611.773 448.88 611.256C448.537 610.982 448.125 610.848 447.71 610.874Z" fill="#FF5652"/>
<path d="M445.123 609.865C445.16 610.031 445.237 610.182 445.343 610.3C445.45 610.419 445.583 610.501 445.727 610.537C446.801 610.509 447.87 610.366 448.921 610.11C449.093 610.079 449.255 609.996 449.391 609.87C449.527 609.745 449.632 609.58 449.697 609.392C448.163 609.397 446.633 609.555 445.123 609.865Z" fill="white"/>
<path d="M455.714 611.468C455.714 611.468 453.624 605.971 453.795 604.184C453.838 603.12 454.154 602.095 454.702 601.24C455.25 600.386 456.005 599.741 456.871 599.389L458.632 599.817C466.295 603.497 455.714 611.468 455.714 611.468Z" fill="#263238"/>
<path d="M446.122 608.249C445.798 608.28 445.472 608.228 445.168 608.096C444.863 607.964 444.588 607.755 444.361 607.485C445.329 606.487 446.178 605.342 446.884 604.08L446.122 608.249Z" fill="#FF5652"/>
<path d="M457.343 605.604C456.134 605.391 454.845 607.131 454.32 608.384C453.794 609.636 454.136 611.132 455.411 610.796C456.424 610.476 457.311 609.759 457.921 608.765C458.697 607.483 458.539 605.803 457.343 605.604Z" fill="#F7978D"/>
<path d="M449.668 603.958C449.405 603.958 449.129 604.278 449.064 604.691C448.998 605.103 449.142 605.5 449.392 605.546C449.642 605.592 449.879 605.271 449.984 604.828C450.089 604.385 449.918 604.08 449.668 603.958Z" fill="#263238"/>
<path d="M445.344 602.841C445.094 602.841 444.818 603.101 444.739 603.559C444.66 604.017 444.805 604.414 445.055 604.46C445.304 604.506 445.58 604.185 445.659 603.727C445.738 603.269 445.593 602.887 445.344 602.841Z" fill="#263238"/>
<path d="M446.304 601.102C446.271 601.12 446.235 601.13 446.199 601.13C446.162 601.13 446.126 601.12 446.094 601.102C445.813 600.992 445.514 600.958 445.22 601.003C444.926 601.048 444.645 601.171 444.398 601.361C444.356 601.41 444.3 601.437 444.24 601.437C444.181 601.437 444.125 601.41 444.083 601.361C444.045 601.307 444.025 601.24 444.025 601.17C444.025 601.101 444.045 601.034 444.083 600.979C444.389 600.736 444.739 600.578 445.106 600.517C445.473 600.456 445.847 600.494 446.199 600.628C446.255 600.652 446.301 600.701 446.328 600.763C446.355 600.825 446.361 600.897 446.343 600.964C446.339 601.013 446.326 601.06 446.304 601.102V601.102Z" fill="#263238"/>
<path d="M451.011 603.301C450.932 603.297 450.857 603.259 450.801 603.194C450.639 602.909 450.424 602.67 450.171 602.495C449.918 602.321 449.635 602.215 449.342 602.186C449.311 602.188 449.281 602.183 449.252 602.171C449.224 602.159 449.197 602.14 449.175 602.115C449.153 602.091 449.135 602.062 449.123 602.029C449.111 601.997 449.105 601.962 449.105 601.926V601.926C449.108 601.859 449.133 601.795 449.174 601.747C449.215 601.699 449.27 601.67 449.329 601.667V601.667C449.698 601.691 450.057 601.814 450.378 602.026C450.7 602.238 450.975 602.533 451.182 602.888C451.222 602.941 451.244 603.009 451.244 603.079C451.244 603.149 451.222 603.217 451.182 603.27C451.157 603.289 451.129 603.301 451.099 603.307C451.07 603.312 451.04 603.31 451.011 603.301V603.301Z" fill="#263238"/>
<path d="M445.291 598.734C445.054 597.741 444.978 596.705 445.068 595.68C445.203 595.168 445.429 594.695 445.733 594.292C446.037 593.89 446.41 593.566 446.829 593.343C448.149 592.845 449.571 592.845 450.891 593.343C451.21 593.4 451.517 593.524 451.798 593.71C451.942 593.801 452.062 593.936 452.145 594.1C452.228 594.264 452.272 594.451 452.271 594.641C452.249 594.831 452.184 595.01 452.082 595.161C451.981 595.311 451.846 595.427 451.693 595.497C451.39 595.665 449.064 596.306 448.012 596.749C446.98 597.144 446.046 597.826 445.291 598.734V598.734Z" fill="#263238"/>
<path d="M460.104 595.774C460.953 596.697 461.543 597.896 461.796 599.214C462.049 600.533 461.954 601.909 461.524 603.164C461.155 604.048 460.747 604.91 460.302 605.745L457.042 603.149C455.556 602.228 454.401 600.723 453.782 598.904C453.447 597.946 452.833 597.156 452.048 596.67C451.262 596.185 450.355 596.035 449.484 596.247C449.037 596.354 448.419 596.461 448.17 595.972C447.92 595.483 448.63 594.445 449.129 594.002C451.088 591.987 454.702 590.903 460.104 595.774Z" fill="#263238"/>
<path opacity="0.2" d="M453.717 598.642C452.508 596.199 450.97 595.97 448.933 596.336C448.948 596.043 449.014 595.757 449.127 595.494C449.239 595.232 449.397 594.999 449.59 594.809C451.193 593.282 453.375 596.871 453.717 598.642Z" fill="black"/>
<path d="M448.039 595.94C447.882 596.14 447.77 596.381 447.711 596.642C447.558 597.323 447.526 598.033 447.616 598.728C447.706 599.424 447.917 600.091 448.237 600.689C447.712 600.015 447.338 599.203 447.146 598.322C446.985 597.781 446.901 597.214 446.896 596.642C446.906 596.07 447.103 595.524 447.448 595.115C447.618 594.923 447.833 594.792 448.066 594.738C448.299 594.683 448.541 594.709 448.762 594.81C449.025 594.963 449.472 595.543 449.157 595.818C448.841 596.093 448.46 595.451 448.039 595.94Z" fill="#263238"/>
<path opacity="0.3" d="M445.118 550.27V705.183H299.075V509.699H437.442V550.27H445.118Z" fill="black"/>
<path d="M437.444 489.054H291.664V696.616H437.444V489.054Z" fill="white"/>
<path d="M437.43 489.054H291.649V501.331H437.43V489.054Z" fill="#263238"/>
<path opacity="0.1" d="M437.444 501.33H332.082V696.616H437.444V501.33Z" fill="black"/>
<path opacity="0.1" d="M366.848 506.002H337.26V545.764H366.848V506.002Z" fill="black"/>
<path opacity="0.1" d="M433.894 506.002H372.498V522.371H433.894V506.002Z" fill="black"/>
<path opacity="0.1" d="M433.894 529.397H372.498V617.687H433.894V529.397Z" fill="black"/>
<path opacity="0.1" d="M433.894 624.693H372.498V690.765H433.894V624.693Z" fill="black"/>
<path d="M372.499 560.969H331.739V576.178H372.499V560.969Z" fill="#407BFF"/>
<path d="M332.408 529.397H291.649V544.606H332.408V529.397Z" fill="#407BFF"/>
<path d="M433.894 639.172H372.498V647.066H433.894V639.172Z" fill="black"/>
<path d="M378.662 512.629L379.937 509.621L381.212 512.629L384.065 513.117L382.001 515.454L382.5 518.752L379.937 517.194L377.387 518.767L377.874 515.454L375.81 513.117L378.662 512.629Z" fill="#407BFF"/>
<path d="M390.295 512.629L391.557 509.621L392.845 512.629L395.697 513.117L393.634 515.454L394.12 518.752L391.57 517.194L389.02 518.767L389.507 515.454L387.43 513.117L390.295 512.629Z" fill="#407BFF"/>
<path d="M401.914 512.629L403.189 509.621L404.464 512.629L407.329 513.117L405.266 515.454L405.752 518.752L403.189 517.194L400.639 518.767L401.125 515.454L399.062 513.117L401.914 512.629Z" fill="#407BFF"/>
<path d="M413.547 512.629L414.822 509.621L416.097 512.629L418.949 513.117L416.885 515.454L417.385 518.752L414.822 517.194L412.272 518.767L412.758 515.454L410.681 513.117L413.547 512.629Z" fill="black"/>
<path d="M425.166 512.629L426.44 509.621L427.729 512.629L430.581 513.117L428.517 515.454L429.004 518.752L426.454 517.194L423.891 518.767L424.377 515.454L422.313 513.117L425.166 512.629Z" fill="black"/>
<path d="M401.008 537.184H376.862V538.711H401.008V537.184Z" fill="#263238"/>
<path d="M395.921 550.343H376.862V551.87H395.921V550.343Z" fill="#263238"/>
<path d="M395.921 561.83H376.862V563.357H395.921V561.83Z" fill="#263238"/>
<path d="M395.921 573.31H376.862V574.837H395.921V573.31Z" fill="#263238"/>
<path d="M395.921 584.811H376.862V586.338H395.921V584.811Z" fill="#263238"/>
<path d="M395.921 596.291H376.862V597.818H395.921V596.291Z" fill="#263238"/>
<path d="M395.921 607.792H376.862V609.319H395.921V607.792Z" fill="#263238"/>
<path d="M417.608 550.343H398.549V551.87H417.608V550.343Z" fill="#263238"/>
<path d="M417.608 561.83H398.549V563.357H417.608V561.83Z" fill="#263238"/>
<path d="M417.608 573.31H398.549V574.837H417.608V573.31Z" fill="#263238"/>
<path d="M417.608 584.811H398.549V586.338H417.608V584.811Z" fill="#263238"/>
<path d="M417.608 596.291H398.549V597.818H417.608V596.291Z" fill="#263238"/>
<path d="M417.608 607.792H398.549V609.319H417.608V607.792Z" fill="#263238"/>
<path d="M417.609 541.566H376.862V543.093H417.609V541.566Z" fill="#263238"/>
<path d="M417.609 632.268H376.862V633.794H417.609V632.268Z" fill="#263238"/>
<path d="M366.861 550.343H337.26V551.87H366.861V550.343Z" fill="#263238"/>
<path d="M366.861 583.786H337.26V585.313H366.861V583.786Z" fill="#263238"/>
<path d="M366.861 596.584H337.26V598.111H366.861V596.584Z" fill="#263238"/>
<path d="M366.861 609.378H337.26V610.905H366.861V609.378Z" fill="#263238"/>
<path d="M366.861 622.159H337.26V623.686H366.861V622.159Z" fill="#263238"/>
<path d="M366.861 634.954H337.26V636.481H366.861V634.954Z" fill="#263238"/>
<path d="M366.861 647.752H337.26V649.279H366.861V647.752Z" fill="#263238"/>
<path d="M366.861 660.532H337.26V662.059H366.861V660.532Z" fill="#263238"/>
<path d="M366.861 673.327H337.26V674.854H366.861V673.327Z" fill="#263238"/>
<path d="M352.061 555.279H337.26V556.806H352.061V555.279Z" fill="#263238"/>
<path d="M327.321 508.855H296.748V510.382H327.321V508.855Z" fill="#263238"/>
<path d="M327.321 518.735H296.748V520.262H327.321V518.735Z" fill="#263238"/>
<path d="M327.321 555.279H296.748V556.806H327.321V555.279Z" fill="#263238"/>
<path d="M337.337 545.63V540.789C346.598 536.941 356.702 536.818 366.03 540.438L366.924 540.789V545.63H337.337Z" fill="#263238"/>
<path d="M356.621 528.223L353.506 531.093L349.286 535.002C349.526 535.573 349.678 536.188 349.733 536.819C349.868 537.501 349.787 538.216 349.505 538.833C349.222 539.45 348.757 539.928 348.196 540.179C347.617 540.347 346.881 543.508 350.364 543.935C351.363 544.135 352.386 544.092 353.37 543.811C354.354 543.53 355.277 543.016 356.082 542.301C356.884 541.446 357.133 540.942 356.66 539.705C355.267 536.224 355.832 531.735 356.621 528.223Z" fill="#DD8C6A"/>
<path opacity="0.2" d="M350.312 534.039L353.046 531.137C353.04 531.254 353.04 531.372 353.046 531.488C353.081 531.997 353.081 532.507 353.046 533.015C352.828 533.971 352.414 534.851 351.84 535.579C351.265 536.308 350.547 536.864 349.747 537.199V536.833C349.68 536.245 349.548 535.67 349.352 535.123V535.031L350.312 534.039Z" fill="black"/>
<path d="M348.153 525.653C346.668 520.476 347.483 517.835 345.774 514.964C344.749 514.2 342.528 516.201 343.264 520.43C344 524.66 348.153 525.653 348.153 525.653Z" fill="#263238"/>
<path d="M357.395 521.866C356.909 527.485 356.817 530.783 354.267 533.486C350.416 537.563 344.541 534.54 343.607 528.905C342.753 523.759 343.752 515.452 348.589 513.635C350.287 512.984 352.138 513.142 353.735 514.075C355.332 515.009 356.545 516.641 357.106 518.613C357.402 519.661 357.5 520.77 357.395 521.866V521.866Z" fill="#DD8C6A"/>
<path d="M357.303 526.907L355.2 527.045L354.792 523.304L352.847 521.502L352.295 515.653C352.295 515.653 356.738 515.653 358.446 515.653C359.051 515.653 360.865 517.898 361.075 518.707C361.324 519.878 361.288 521.105 360.973 522.253C360.657 523.402 360.074 524.426 359.288 525.212C358.679 525.856 358.013 526.424 357.303 526.907V526.907Z" fill="#263238"/>
<path d="M357.371 517.973C356.135 518.721 354.597 517.897 353.27 517.469C351.948 516.99 350.605 516.592 349.248 516.278C348.058 515.993 346.82 516.221 345.764 516.92C345.254 517.285 344.875 517.853 344.698 518.519C344.522 519.185 344.56 519.903 344.805 520.538C344.063 520.088 343.426 519.433 342.951 518.632C342.477 517.83 342.178 516.906 342.08 515.94C341.983 514.973 342.091 513.994 342.394 513.087C342.697 512.18 343.186 511.373 343.819 510.735C345.032 509.606 346.536 508.982 348.091 508.964C349.633 508.955 351.172 509.144 352.678 509.529C354.689 509.941 357.581 509.911 359.434 510.903C361.287 511.896 361.117 515.698 357.371 517.973Z" fill="#263238"/>
<path d="M359.224 526.295C358.922 527.508 358.249 528.55 357.331 529.227C356.135 530.082 355.097 528.631 355.202 527.043C355.307 525.455 356.24 523.684 357.541 523.485C358.843 523.287 359.579 524.783 359.224 526.295Z" fill="#DD8C6A"/>
<path d="M349.719 523.624C349.719 524.097 349.509 524.479 349.246 524.495C348.983 524.51 348.786 524.143 348.76 523.67C348.734 523.197 348.983 522.8 349.246 522.8C349.509 522.8 349.719 523.151 349.719 523.624Z" fill="#263238"/>
<path d="M345.145 523.792C345.145 524.265 344.935 524.662 344.672 524.662C344.409 524.662 344.186 524.295 344.186 523.837C344.186 523.379 344.409 522.982 344.672 522.967C344.935 522.952 345.145 523.318 345.145 523.792Z" fill="#263238"/>
<path d="M346.619 524.08C346.278 525.351 345.791 526.563 345.173 527.684C345.421 527.853 345.698 527.956 345.985 527.985C346.271 528.014 346.56 527.969 346.829 527.852L346.619 524.08Z" fill="#FF5652"/>
<path d="M347.249 530.599C347.717 530.6 348.181 530.491 348.613 530.278C349.044 530.066 349.434 529.754 349.759 529.363C349.78 529.334 349.791 529.297 349.788 529.26C349.786 529.223 349.77 529.188 349.746 529.164C349.722 529.14 349.69 529.128 349.658 529.131C349.626 529.133 349.596 529.151 349.575 529.179C349.217 529.6 348.781 529.92 348.301 530.116C347.82 530.312 347.308 530.378 346.802 530.309C346.786 530.305 346.77 530.304 346.754 530.307C346.738 530.31 346.723 530.317 346.71 530.327C346.696 530.337 346.685 530.35 346.676 530.365C346.667 530.381 346.66 530.398 346.657 530.416C346.653 530.454 346.662 530.493 346.681 530.524C346.701 530.555 346.73 530.577 346.762 530.584V530.584C346.924 530.605 347.087 530.61 347.249 530.599Z" fill="#263238"/>
<path d="M350.615 521.928C350.653 521.94 350.694 521.94 350.733 521.928C350.756 521.904 350.774 521.874 350.786 521.841C350.799 521.808 350.805 521.773 350.805 521.737C350.805 521.701 350.799 521.666 350.786 521.633C350.774 521.6 350.756 521.57 350.733 521.546C350.507 521.202 350.211 520.928 349.872 520.749C349.532 520.571 349.16 520.493 348.788 520.523C348.724 520.531 348.665 520.567 348.623 520.624C348.582 520.681 348.561 520.754 348.564 520.828V520.828C348.567 520.865 348.577 520.9 348.592 520.932C348.607 520.964 348.627 520.992 348.652 521.014C348.676 521.037 348.704 521.054 348.734 521.064C348.764 521.074 348.796 521.077 348.827 521.073C349.118 521.058 349.408 521.123 349.673 521.264C349.938 521.405 350.171 521.617 350.352 521.882C350.386 521.921 350.429 521.947 350.477 521.955C350.524 521.964 350.572 521.954 350.615 521.928V521.928Z" fill="#263238"/>
<path d="M345.12 520.739C345.131 520.694 345.131 520.646 345.12 520.601C345.117 520.565 345.107 520.53 345.092 520.498C345.077 520.466 345.057 520.438 345.032 520.416C345.008 520.393 344.98 520.376 344.95 520.366C344.92 520.356 344.888 520.353 344.857 520.357C344.485 520.378 344.123 520.507 343.804 520.73C343.485 520.954 343.219 521.267 343.03 521.64C343.014 521.672 343.003 521.707 342.999 521.744C342.995 521.781 342.997 521.818 343.006 521.853C343.014 521.889 343.029 521.922 343.049 521.951C343.069 521.98 343.094 522.004 343.122 522.022C343.18 522.054 343.246 522.06 343.307 522.037C343.368 522.014 343.42 521.965 343.45 521.899C343.601 521.607 343.813 521.363 344.065 521.19C344.318 521.017 344.603 520.919 344.896 520.907C344.944 520.908 344.99 520.893 345.03 520.863C345.07 520.833 345.101 520.79 345.12 520.739V520.739Z" fill="#263238"/>
<path opacity="0.3" d="M383.892 592.611H237.836V788.095H383.892V592.611Z" fill="black"/>
<path d="M376.192 571.966H230.411V779.529H376.192V571.966Z" fill="white"/>
<path d="M376.192 571.966H230.411V584.243H376.192V571.966Z" fill="#263238"/>
<path opacity="0.1" d="M376.208 584.259H270.845V779.545H376.208V584.259Z" fill="black"/>
<path opacity="0.1" d="M305.609 588.93H276.021V628.693H305.609V588.93Z" fill="black"/>
<path opacity="0.1" d="M372.658 588.93H311.262V605.3H372.658V588.93Z" fill="black"/>
<path opacity="0.1" d="M372.658 612.31H311.262V700.6H372.658V612.31Z" fill="black"/>
<path opacity="0.1" d="M372.658 707.622H311.262V773.694H372.658V707.622Z" fill="black"/>
<path d="M311.26 643.887H270.5V659.096H311.26V643.887Z" fill="#407BFF"/>
<path d="M271.172 612.31H230.412V627.518H271.172V612.31Z" fill="#407BFF"/>
<path d="M372.658 722.084H311.262V729.978H372.658V722.084Z" fill="black"/>
<path d="M317.423 595.555L318.698 592.547L319.973 595.555L322.839 596.028L320.762 598.365L321.261 601.678L318.698 600.121L316.148 601.678L316.635 598.38L314.571 596.044L317.423 595.555Z" fill="#407BFF"/>
<path d="M329.059 595.555L330.334 592.547L331.609 595.555L334.461 596.028L332.397 598.365L332.884 601.678L330.334 600.121L327.784 601.678L328.27 598.38L326.193 596.044L329.059 595.555Z" fill="#407BFF"/>
<path d="M340.677 595.555L341.952 592.547L343.227 595.555L346.093 596.028L344.029 598.365L344.515 601.678L341.966 600.121L339.402 601.678L339.889 598.38L337.825 596.044L340.677 595.555Z" fill="#407BFF"/>
<path d="M352.309 595.555L353.584 592.547L354.859 595.555L357.711 596.028L355.648 598.365L356.134 601.678L353.584 600.121L351.034 601.678L351.521 598.38L349.457 596.044L352.309 595.555Z" fill="#407BFF"/>
<path d="M363.929 595.555L365.204 592.547L366.492 595.555L369.344 596.028L367.281 598.365L367.767 601.678L365.217 600.121L362.667 601.678L363.14 598.38L361.077 596.044L363.929 595.555Z" fill="black"/>
<path d="M339.771 620.11H315.626V621.637H339.771V620.11Z" fill="#263238"/>
<path d="M334.684 633.258H315.626V634.785H334.684V633.258Z" fill="#263238"/>
<path d="M334.684 644.756H315.626V646.283H334.684V644.756Z" fill="#263238"/>
<path d="M334.684 656.242H315.626V657.769H334.684V656.242Z" fill="#263238"/>
<path d="M334.684 667.72H315.626V669.247H334.684V667.72Z" fill="#263238"/>
<path d="M334.684 679.22H315.626V680.747H334.684V679.22Z" fill="#263238"/>
<path d="M334.684 690.704H315.626V692.231H334.684V690.704Z" fill="#263238"/>
<path d="M356.383 633.258H337.324V634.785H356.383V633.258Z" fill="#263238"/>
<path d="M356.383 644.756H337.324V646.283H356.383V644.756Z" fill="#263238"/>
<path d="M356.383 656.242H337.324V657.769H356.383V656.242Z" fill="#263238"/>
<path d="M356.383 667.72H337.324V669.247H356.383V667.72Z" fill="#263238"/>
<path d="M356.383 679.22H337.324V680.747H356.383V679.22Z" fill="#263238"/>
<path d="M356.383 690.704H337.324V692.231H356.383V690.704Z" fill="#263238"/>
<path d="M356.372 624.495H315.626V626.022H356.372V624.495Z" fill="#263238"/>
<path d="M356.372 715.183H315.626V716.71H356.372V715.183Z" fill="#263238"/>
<path d="M305.622 633.258H276.021V634.785H305.622V633.258Z" fill="#263238"/>
<path d="M305.622 666.715H276.021V668.242H305.622V666.715Z" fill="#263238"/>
<path d="M305.622 679.513H276.021V681.04H305.622V679.513Z" fill="#263238"/>
<path d="M305.622 692.291H276.021V693.818H305.622V692.291Z" fill="#263238"/>
<path d="M305.622 705.088H276.021V706.615H305.622V705.088Z" fill="#263238"/>
<path d="M305.622 717.866H276.021V719.393H305.622V717.866Z" fill="#263238"/>
<path d="M305.622 730.664H276.021V732.191H305.622V730.664Z" fill="#263238"/>
<path d="M305.622 743.459H276.021V744.986H305.622V743.459Z" fill="#263238"/>
<path d="M305.622 756.242H276.021V757.769H305.622V756.242Z" fill="#263238"/>
<path d="M290.822 638.191H276.021V639.718H290.822V638.191Z" fill="#263238"/>
<path d="M266.085 591.787H235.511V593.314H266.085V591.787Z" fill="#263238"/>
<path d="M266.085 601.65H235.511V603.177H266.085V601.65Z" fill="#263238"/>
<path d="M266.085 638.191H235.511V639.718H266.085V638.191Z" fill="#263238"/>
<path d="M276.021 628.693V623.837C285.289 620.005 295.393 619.881 304.728 623.486L305.622 623.837V628.693H276.021Z" fill="#407BFF"/>
<path d="M288.234 593.939C287.291 593.632 286.3 593.586 285.339 593.803C284.379 594.021 283.475 594.496 282.7 595.191C281.149 596.59 279.954 598.453 279.243 600.581C278.972 601.13 278.83 601.751 278.83 602.383C278.83 603.015 278.972 603.637 279.243 604.185C279.94 605.208 281.281 605.147 282.411 604.994C284.159 601.146 286.236 597.634 288.234 593.939Z" fill="#263238"/>
<path d="M287.194 617.148C288.035 619.499 288.509 622.126 285.88 624.233C285.338 624.668 284.94 625.303 284.749 626.035C284.473 627.226 284.828 628.57 288.627 627.195C294.121 625.21 294.489 621.347 294.489 621.347C292.15 619.744 291.86 613.132 292.071 609.437L287.194 617.148Z" fill="#FFB573"/>
<path opacity="0.2" d="M290.729 614.659C290.729 616.278 288.915 618.308 287.679 618.965C287.56 618.336 287.389 617.723 287.167 617.133L290.085 612.552C290.426 613.193 290.645 613.911 290.729 614.659V614.659Z" fill="black"/>
<path d="M295.121 600.55C294.86 599.544 294.43 598.609 293.857 597.797C293.284 596.985 292.579 596.312 291.781 595.817C290.984 595.322 290.111 595.014 289.211 594.912C288.311 594.81 287.403 594.915 286.538 595.22C281.399 596.992 279.966 605.604 280.558 610.994C281.228 617.026 287.235 619.438 291.454 615.316C294.28 612.567 294.517 610.078 295.319 604.245C295.497 603.012 295.43 601.748 295.121 600.55V600.55Z" fill="#FFB573"/>
<path d="M283.632 609.192C283.363 609.236 283.09 609.215 282.829 609.128C282.569 609.041 282.327 608.891 282.12 608.688C282.85 607.775 283.465 606.747 283.947 605.634L283.632 609.192Z" fill="#ED893E"/>
<path d="M287.496 610.034C287.517 610.006 287.528 609.971 287.528 609.935C287.528 609.898 287.517 609.863 287.496 609.835C287.485 609.822 287.472 609.811 287.457 609.804C287.443 609.797 287.427 609.793 287.411 609.793C287.395 609.793 287.379 609.797 287.364 609.804C287.35 609.811 287.336 609.822 287.325 609.835C286.977 610.273 286.543 610.608 286.061 610.812C285.579 611.017 285.061 611.085 284.552 611.011C284.52 611.014 284.49 611.029 284.466 611.054C284.442 611.079 284.426 611.112 284.421 611.149V611.149C284.42 611.184 284.43 611.219 284.449 611.247C284.469 611.275 284.496 611.294 284.526 611.301C284.723 611.317 284.92 611.317 285.117 611.301C286.022 611.256 286.876 610.801 287.496 610.034V610.034Z" fill="#263238"/>
<path d="M283.565 595.923C284.488 595.849 285.409 596.101 286.207 596.646C287.004 597.191 287.641 598.004 288.034 598.977C288.349 599.929 288.578 600.917 288.718 601.924C288.859 602.939 289.236 603.889 289.808 604.673C290.103 605.051 290.494 605.311 290.923 605.415C291.353 605.519 291.8 605.462 292.201 605.253C292.438 606.15 292.878 606.957 293.474 607.591C294.07 608.224 294.801 608.661 295.592 608.857C294.461 610.765 293.055 612.766 291.925 614.674C292.332 616.201 292.372 616.446 292.779 617.927C294.188 617.404 295.493 616.562 296.621 615.451C297.749 614.34 298.677 612.981 299.351 611.452C300.665 608.398 300.955 604.566 298.457 604.474C299.338 602.413 297.721 598.091 296.394 596.381C295.16 595.095 293.69 594.152 292.096 593.623C290.502 593.094 288.825 592.993 287.193 593.327C285.759 593.673 284.476 594.591 283.565 595.923Z" fill="#263238"/>
<path d="M296.512 608.369C296.557 607.862 296.427 607.354 296.151 606.957C295.876 606.56 295.477 606.304 295.04 606.247C293.726 606.125 292.819 607.881 292.556 609.148C292.293 610.415 292.95 611.805 294.186 611.316C295.111 610.941 295.872 610.156 296.302 609.133C296.419 608.899 296.49 608.638 296.512 608.369V608.369Z" fill="#FFB573"/>
<path d="M288.483 602.75C288.521 602.761 288.562 602.761 288.601 602.75C288.645 602.694 288.67 602.62 288.67 602.544C288.67 602.468 288.645 602.394 288.601 602.338V602.338C288.314 601.91 287.941 601.571 287.514 601.35C287.088 601.129 286.622 601.033 286.156 601.071C286.124 601.074 286.092 601.086 286.064 601.104C286.035 601.122 286.01 601.147 285.991 601.178C285.971 601.208 285.957 601.242 285.949 601.279C285.941 601.316 285.94 601.354 285.946 601.391C285.949 601.427 285.958 601.462 285.973 601.494C285.988 601.526 286.009 601.554 286.033 601.577C286.058 601.6 286.086 601.617 286.116 601.627C286.146 601.637 286.178 601.64 286.209 601.635C286.592 601.619 286.974 601.707 287.323 601.892C287.673 602.078 287.98 602.356 288.22 602.704C288.255 602.74 288.299 602.763 288.345 602.771C288.392 602.779 288.439 602.772 288.483 602.75V602.75Z" fill="#263238"/>
<path d="M280.873 603.055C280.914 603.042 280.95 603.016 280.978 602.979C281.213 602.626 281.517 602.343 281.864 602.152C282.211 601.961 282.592 601.867 282.976 601.879C283.009 601.883 283.042 601.88 283.074 601.869C283.105 601.858 283.135 601.84 283.16 601.816C283.186 601.792 283.207 601.762 283.223 601.729C283.239 601.695 283.249 601.658 283.252 601.62V601.62C283.253 601.542 283.229 601.467 283.185 601.408C283.142 601.349 283.081 601.31 283.015 601.299C282.549 601.279 282.086 601.387 281.663 601.615C281.241 601.844 280.87 602.185 280.584 602.612C280.54 602.657 280.513 602.72 280.506 602.788C280.5 602.855 280.516 602.923 280.55 602.978C280.584 603.033 280.635 603.071 280.692 603.086C280.749 603.1 280.809 603.089 280.86 603.055H280.873Z" fill="#263238"/>
<path d="M287.271 604.199C287.271 604.718 286.995 605.146 286.693 605.13C286.391 605.115 286.167 604.672 286.194 604.138C286.22 603.603 286.47 603.206 286.759 603.206C287.048 603.206 287.284 603.664 287.271 604.199Z" fill="#263238"/>
<path d="M282.698 604.643C282.698 605.147 282.435 605.544 282.146 605.529C281.857 605.514 281.659 605.101 281.673 604.582C281.686 604.063 281.935 603.681 282.225 603.697C282.514 603.712 282.724 604.078 282.698 604.643Z" fill="#263238"/>
<path d="M282.345 603.724L281.32 603.329C281.32 603.329 281.819 604.303 282.345 603.724Z" fill="#263238"/>
<path d="M286.891 603.252L285.813 602.825C285.813 602.825 286.339 603.846 286.891 603.252Z" fill="#263238"/>
<path d="M119.386 662.103C109.213 662.103 109.213 651.979 109.213 651.979L195.635 544.052L196.082 541.716L201.037 547.076C200.999 547.156 200.955 547.233 200.906 547.305C200.629 547.9 125.117 662.103 119.386 662.103Z" fill="#263238"/>
<g opacity="0.5">
<path opacity="0.4" d="M249.499 519.391C238.156 539.761 219.162 555.397 207.215 548.144C207.275 548.077 207.321 547.993 207.346 547.9L200.774 543.746C196.371 539.165 193.886 532.431 193.256 524.522C192.257 512.306 195.582 497.525 202.838 483.828C215.627 459.671 236.473 448.936 246.095 455.609C247.667 456.7 249.185 457.893 250.642 459.182H250.708C251.981 460.154 253.19 461.236 254.323 462.419C254.859 463.03 255.343 463.7 255.769 464.42C258.219 468.57 259.613 473.439 259.791 478.468C260.684 490.317 257.306 505.419 249.499 519.391Z" fill="white"/>
</g>
<path opacity="0.2" d="M259.805 478.177L200.788 543.379C196.385 538.798 193.901 532.064 193.257 524.155V524.032L255.744 464.129C258.201 468.278 259.608 473.145 259.805 478.177V478.177Z" fill="white"/>
<path d="M253.996 521.467C268.336 494.561 266.549 463.029 249.934 451.088C233.32 439.147 208.255 451.332 193.901 478.223C179.929 504.456 181.257 535.011 196.649 547.624C197.069 548.006 197.503 548.311 197.963 548.647C199.759 549.943 201.689 550.97 203.707 551.701C219.913 557.748 241.207 545.456 253.996 521.467ZM205.889 546.631C204.969 546.336 204.085 545.905 203.26 545.349C203.131 545.288 203.007 545.211 202.892 545.12L202.34 544.707L202.182 544.585C201.392 544.002 200.648 543.338 199.961 542.6C189.761 531.82 190.76 505.953 202.839 483.46C215.707 459.349 236.764 448.676 245.636 454.768C247.08 455.768 248.475 456.859 249.816 458.036V458.036C250.503 458.588 251.137 459.222 251.709 459.929C259.595 469.504 257.164 493.05 245.334 515.237C233.504 537.424 216.798 550.327 205.889 546.631V546.631Z" fill="#263238"/>
<g opacity="0.4">
<path opacity="0.4" d="M249.459 518.993C238.103 539.409 219.123 555.046 207.175 547.762C207.236 547.695 207.281 547.61 207.306 547.518L205.9 546.617C216.783 550.327 233.66 537.271 245.411 515.268C257.162 493.264 259.711 469.58 251.772 459.991C251.513 459.661 251.236 459.35 250.944 459.059C252.14 459.975 253.274 460.996 254.336 462.113C254.87 462.711 255.35 463.371 255.768 464.083C258.204 468.239 259.605 473.095 259.817 478.116C260.618 489.935 257.254 505.067 249.459 518.993Z" fill="black"/>
</g>
<path d="M85.0293 757.784C85.5419 761.785 88.9725 764.259 92.2191 765.816C98.0244 768.612 104.2 770.229 110.476 770.596C115.232 751 118.547 730.97 120.387 710.723C104.89 721.9 82.3348 736.834 85.0293 757.784Z" fill="#263238"/>
<path opacity="0.2" d="M85.0293 757.784C85.5419 761.785 88.9725 764.259 92.2191 765.816C98.0244 768.612 104.2 770.229 110.476 770.596C115.232 751 118.547 730.97 120.387 710.723C104.89 721.9 82.3348 736.834 85.0293 757.784Z" fill="black"/>
<path d="M163.497 516.002C163.984 515.91 164.51 516.521 164.654 517.391C164.799 518.262 164.523 519.086 164.023 519.178C163.524 519.27 163.011 518.674 162.867 517.788C162.722 516.903 162.998 516.109 163.497 516.002Z" fill="#263238"/>
<path d="M164.825 527.606C165.467 527.661 166.111 527.553 166.712 527.289C167.314 527.026 167.859 526.612 168.309 526.079C166.442 524.105 164.811 521.851 163.458 519.375L164.825 527.606Z" fill="#B74D3C"/>
<path d="M159.618 513.449C159.979 512.93 160.442 512.521 160.969 512.255C161.495 511.989 162.069 511.875 162.641 511.922V511.922H162.799C162.919 511.922 163.034 511.868 163.12 511.771C163.206 511.674 163.256 511.542 163.259 511.403C163.261 511.333 163.251 511.263 163.229 511.197C163.208 511.132 163.175 511.072 163.134 511.02C163.092 510.969 163.042 510.928 162.987 510.9C162.932 510.871 162.873 510.855 162.812 510.853C162.102 510.76 161.384 510.865 160.716 511.16C160.049 511.455 159.451 511.931 158.974 512.548C158.936 512.592 158.906 512.645 158.886 512.702C158.866 512.76 158.856 512.822 158.856 512.884C158.852 512.954 158.861 513.023 158.881 513.089C158.901 513.154 158.932 513.214 158.973 513.266C159.013 513.317 159.062 513.358 159.116 513.387C159.171 513.416 159.23 513.432 159.29 513.434C159.394 513.484 159.511 513.49 159.618 513.449Z" fill="#263238"/>
<path d="M153.678 566.588C140.731 566.435 138.891 558.205 138.891 558.205C142.834 553.929 143.163 545.897 142.466 538.72C143.476 540.443 144.756 541.93 146.239 543.103C147.591 544.217 149.13 544.989 150.756 545.368C152.382 545.747 154.058 545.724 155.676 545.302C155.733 545.315 155.791 545.315 155.847 545.302C155.808 545.441 155.782 545.584 155.768 545.729C154.888 551.455 155.466 557.594 160.618 559.472C160.605 559.457 167.94 566.756 153.678 566.588Z" fill="#CB7A63"/>
<path d="M156.242 543.136C156.075 543.828 155.943 544.532 155.848 545.243C155.791 545.256 155.733 545.256 155.677 545.243C154.059 545.665 152.383 545.688 150.757 545.309C149.131 544.93 147.592 544.158 146.239 543.044C144.756 541.871 143.477 540.385 142.467 538.662C142.296 536.844 142.046 535.073 141.784 533.439L155.716 542.723L156.242 543.136Z" fill="#CB7A63"/>
<path d="M134.937 559.488C134.937 559.488 137.106 552.205 140.195 549.96C143.284 547.715 156.835 550.449 158.938 551.487C161.041 552.525 163.092 558.236 163.092 558.236L134.937 559.488Z" fill="#263238"/>
<path opacity="0.5" d="M134.937 559.488C134.937 559.488 137.106 552.205 140.195 549.96C143.284 547.715 156.835 550.449 158.938 551.487C161.041 552.525 163.092 558.236 163.092 558.236L134.937 559.488Z" fill="white"/>
<path d="M165.731 531.085C165.646 533.666 164.998 536.18 163.849 538.391C162.699 540.602 161.086 542.439 159.159 543.728H159.08C158.089 544.434 157.006 544.95 155.873 545.255C155.817 545.268 155.759 545.268 155.702 545.255C154.085 545.678 152.408 545.7 150.782 545.321C149.157 544.942 147.618 544.171 146.265 543.056C144.782 541.884 143.502 540.397 142.493 538.674C140.022 534.582 139.062 529.161 137.38 521.526C136.811 519.057 136.795 516.461 137.331 513.983C137.867 511.504 138.938 509.226 140.443 507.362C141.949 505.499 143.838 504.112 145.933 503.334C148.028 502.555 150.26 502.41 152.416 502.912C162.196 505.233 166.112 520.93 165.731 531.085Z" fill="#CB7A63"/>
<path opacity="0.2" d="M159.055 543.745C158.063 544.451 156.98 544.967 155.848 545.272C155.848 545.272 156.321 538.584 156.321 538.584C156.321 538.584 158.371 543.745 159.055 543.745Z" fill="black"/>
<path d="M134.935 517.588C133.621 520.642 130.676 524.108 129.428 527.147C128.621 528.682 128.236 530.466 128.324 532.262C128.441 533.196 128.869 534.038 129.515 534.609C130.162 535.18 130.975 535.434 131.781 535.316C130.466 537.484 131.439 541.058 133.45 542.539C134.488 543.26 135.709 543.543 136.907 543.34C138.104 543.137 139.204 542.46 140.022 541.424C141.336 543.073 142.322 544.295 144.32 544.325C145.297 544.337 146.266 544.119 147.169 543.687C148.073 543.254 148.892 542.614 149.578 541.806C150.481 542.926 151.658 543.698 152.951 544.017C154.243 544.337 155.589 544.188 156.807 543.592C157.96 542.957 158.889 541.88 159.44 540.543C159.99 539.206 160.128 537.689 159.83 536.248C159.114 533.728 158.78 531.082 158.844 528.43C158.844 528.43 161.67 523.604 160.513 520.688L159.278 511.526C157.073 509.583 154.353 508.6 151.589 508.747C148.833 508.899 146.121 509.601 143.571 510.823C140.009 512.457 136.473 513.832 134.935 517.588Z" fill="#263238"/>
<path d="M156.428 517.039C159.123 518.032 160.463 522.735 160.529 525.697C160.608 528.965 158.689 530.981 156.27 528.751C154.455 527.017 153.177 524.642 152.629 521.987C152.025 518.811 153.72 516.108 156.428 517.039Z" fill="#CB7A63"/>
<path d="M130.874 903.82C129.56 903.744 128.324 903.454 127.97 902.751C127.872 902.564 127.83 902.345 127.849 902.128C127.868 901.91 127.947 901.706 128.075 901.545C128.166 901.384 128.287 901.248 128.427 901.145C128.568 901.043 128.725 900.976 128.89 900.95C130.612 900.522 133.963 903.072 134.147 903.179C134.186 903.211 134.215 903.256 134.232 903.308C134.248 903.359 134.251 903.416 134.239 903.469C134.23 903.527 134.205 903.58 134.166 903.619C134.128 903.658 134.08 903.68 134.029 903.683C132.983 903.835 131.927 903.881 130.874 903.82V903.82ZM129.455 901.454C129.302 901.431 129.148 901.431 128.995 901.454C128.892 901.469 128.793 901.51 128.705 901.573C128.616 901.636 128.541 901.72 128.482 901.82C128.298 902.156 128.338 902.309 128.482 902.431C128.89 903.21 131.453 903.378 133.359 903.21C132.188 902.334 130.879 901.737 129.507 901.454H129.455Z" fill="#407BFF"/>
<path d="M133.962 903.657H133.857C132.687 902.939 130.479 900.298 130.781 898.954C130.781 898.633 131.071 898.267 131.741 898.221C131.981 898.205 132.22 898.246 132.446 898.34C132.672 898.435 132.879 898.581 133.055 898.771C134.304 900.099 134.251 903.26 134.251 903.352C134.246 903.401 134.231 903.448 134.208 903.49C134.186 903.532 134.156 903.568 134.12 903.596C134.076 903.639 134.02 903.661 133.962 903.657V903.657ZM131.872 898.786H131.688C131.255 898.786 131.202 899.015 131.189 899.076C131.018 899.87 132.503 901.947 133.673 902.909C133.665 901.579 133.297 900.287 132.622 899.213C132.519 899.077 132.394 898.967 132.254 898.888C132.114 898.809 131.962 898.764 131.807 898.755L131.872 898.786Z" fill="#407BFF"/>
<path d="M146.319 877.04L136.251 876.414L135.002 903.442L145.123 904.068L146.319 877.04Z" fill="#CB7A63"/>
<path d="M132.649 902.846C125.38 907.305 123.251 907.427 115.128 908.954C113.354 909.29 114.076 914.238 118.243 914.497C125.144 914.94 125.893 914.604 131.768 914.971C136.802 915.291 142.573 915.917 146.568 916.238C146.69 916.261 146.815 916.261 146.937 916.238C147.336 916.173 147.697 915.929 147.943 915.558C148.189 915.187 148.3 914.718 148.251 914.253L147.107 903.701C147.078 903.474 146.982 903.265 146.836 903.11C146.69 902.954 146.503 902.861 146.306 902.846L135.225 902.159C134.329 902.115 133.439 902.353 132.649 902.846V902.846Z" fill="#263238"/>
<path opacity="0.2" d="M146.331 877.054L145.582 893.378L135.474 892.752L136.25 876.428L146.331 877.054Z" fill="black"/>
<path d="M160.332 641.367C160.332 641.367 159.477 719.35 157.203 756.104C155.074 790.339 148.489 890.127 148.489 890.127L131.402 889.043C131.402 889.043 127.813 786.521 127.458 751.615C127.143 718.54 125.75 639.87 125.75 639.87L160.332 641.367Z" fill="#407BFF"/>
<path d="M160.332 641.367C160.332 641.367 159.477 719.35 157.203 756.104C155.074 790.339 148.489 890.127 148.489 890.127L131.402 889.043C131.402 889.043 127.813 786.521 127.458 751.615C127.143 718.54 125.75 639.87 125.75 639.87L160.332 641.367Z" fill="#263238"/>
<path opacity="0.6" d="M160.332 641.367C160.332 641.367 159.477 719.35 157.203 756.104C155.074 790.339 148.489 890.127 148.489 890.127L131.402 889.043C131.402 889.043 127.813 786.521 127.458 751.615C127.143 718.54 125.75 639.87 125.75 639.87L160.332 641.367Z" fill="white"/>
<path d="M151.575 883.329L150.419 890.567L129.612 889.269C129.612 889.269 129.27 881.038 129.349 881.038L151.575 883.329Z" fill="#263238"/>
<g opacity="0.5">
<path opacity="0.5" d="M151.575 883.332L150.419 890.569L129.612 889.271C129.612 889.271 129.27 881.041 129.349 881.041L151.575 883.332Z" fill="white"/>
</g>
<path d="M234.991 901.639C234.873 900.112 234.925 898.661 235.464 898.096C235.606 897.951 235.783 897.859 235.971 897.835C236.159 897.81 236.349 897.853 236.516 897.959C236.66 898.039 236.789 898.152 236.895 898.291C237.001 898.43 237.082 898.592 237.133 898.768C237.751 900.631 236.095 905.014 236.016 905.227C235.999 905.282 235.966 905.329 235.923 905.359C235.88 905.39 235.829 905.402 235.779 905.395C235.731 905.391 235.685 905.37 235.647 905.335C235.61 905.299 235.582 905.251 235.569 905.197C235.291 904.032 235.097 902.842 234.991 901.639V901.639ZM236.805 899.517C236.818 899.339 236.818 899.16 236.805 898.982C236.778 898.87 236.73 898.766 236.664 898.679C236.598 898.592 236.516 898.523 236.424 898.478C236.108 898.326 235.963 898.478 235.898 898.555C235.293 899.181 235.517 902.128 235.963 904.265C236.509 902.76 236.808 901.149 236.844 899.517H236.805Z" fill="#407BFF"/>
<path d="M235.528 905.121C235.522 905.086 235.522 905.05 235.528 905.015C235.962 903.488 237.907 900.434 239.064 900.434C239.34 900.434 239.695 900.632 239.813 901.365C239.864 901.643 239.866 901.929 239.818 902.207C239.771 902.486 239.675 902.75 239.537 902.984C238.617 904.679 235.909 905.305 235.804 905.335C235.763 905.344 235.721 905.34 235.682 905.324C235.642 905.308 235.608 905.28 235.581 905.244C235.551 905.211 235.533 905.168 235.528 905.121V905.121ZM239.353 901.732V901.548C239.353 901.06 239.09 901.044 239.037 901.06C238.341 901.06 236.79 903.152 236.159 904.694C237.299 904.403 238.338 903.722 239.143 902.739C239.325 902.442 239.418 902.082 239.405 901.716L239.353 901.732Z" fill="#407BFF"/>
<path d="M228.141 878.703L218.428 880.764L225.933 907.257L235.725 905.18L228.141 878.703Z" fill="#CB7A63"/>
<path d="M237.972 903.365C240.916 906.679 242.467 908.374 250.406 910.206C252.154 910.603 250.997 915.535 246.831 915.642C239.943 915.826 243.715 915.352 237.84 915.505C232.819 915.627 227.049 916.055 223.053 916.238C222.918 916.261 222.781 916.261 222.646 916.238C222.457 916.191 222.279 916.101 222.121 915.973C221.963 915.845 221.829 915.681 221.726 915.492C221.623 915.303 221.554 915.092 221.522 914.871C221.49 914.65 221.497 914.425 221.542 914.207L223.566 903.671C223.608 903.439 223.717 903.231 223.874 903.081C224.032 902.931 224.229 902.848 224.433 902.846L235.474 902.556C235.916 902.49 236.365 902.527 236.794 902.666C237.223 902.805 237.623 903.043 237.972 903.365V903.365Z" fill="#263238"/>
<path opacity="0.2" d="M228.154 878.717L232.045 892.322L222.292 894.399L218.428 880.763L228.154 878.717Z" fill="black"/>
<path opacity="0.3" d="M160.039 692.641C158.725 719.058 157.581 750.666 156.648 768.242C156.648 769.097 156.543 769.968 156.516 770.914C152.31 743.032 146.001 697.619 157.634 692.931C158.416 692.681 159.229 692.583 160.039 692.641Z" fill="black"/>
<path d="M130.375 644.985C130.375 644.985 132.635 672.15 136.276 684.076C141.429 700.949 147.856 706.385 152.798 716.478C161.513 734.267 166.363 749.553 172.238 763.708C190.64 807.99 216.113 885.973 216.113 885.973L234.515 884.446L169.334 643.687L130.375 644.985Z" fill="#263238"/>
<path opacity="0.6" d="M130.375 644.985C130.375 644.985 132.635 672.15 136.276 684.076C141.429 700.949 147.856 706.385 152.798 716.478C161.513 734.267 166.363 749.553 172.238 763.708C190.64 807.99 216.113 885.973 216.113 885.973L234.515 884.446L169.334 643.687L130.375 644.985Z" fill="white"/>
<path d="M237.774 879.911L237.998 887.256L216.612 890.966C216.612 890.966 214.68 883.026 214.759 883.026L237.774 879.911Z" fill="#263238"/>
<g opacity="0.5">
<path opacity="0.5" d="M237.774 879.914L237.998 887.258L216.612 890.969C216.612 890.969 214.68 883.029 214.759 883.029L237.774 879.914Z" fill="white"/>
</g>
<path d="M135.92 624.796C135.026 627.392 132.923 632.568 129.703 635.622C129.342 635.968 128.908 636.196 128.445 636.282C127.983 636.367 127.51 636.308 127.074 636.111C127.074 636.111 121.409 632.049 120.962 630.216C120.943 630.106 120.943 629.991 120.962 629.881L122.368 622.246L122.539 622.169C123.564 621.772 129.111 619.802 131.451 620.902L135.118 622.612C135.306 622.674 135.48 622.785 135.627 622.935C135.774 623.086 135.89 623.272 135.967 623.482C136.044 623.691 136.08 623.918 136.072 624.145C136.063 624.372 136.011 624.595 135.92 624.796V624.796Z" fill="#CB7A63"/>
<path d="M126.68 577.812L107.451 599.572L122.58 622.232L122.409 622.309L121.002 629.944C120.983 630.054 120.983 630.169 121.002 630.28C120.049 630.688 119.02 630.799 118.019 630.6C118.019 630.6 89.3251 603.527 90.9418 598.854C92.4816 595.156 94.2382 591.584 96.1994 588.165L96.3966 587.814C98.9334 582.928 114.89 555.183 126.891 555.335C136.381 555.427 135.868 568.116 126.68 577.812Z" fill="#407BFF"/>
<path opacity="0.5" d="M126.682 577.812L107.452 599.572L122.581 622.232L122.41 622.309L121.004 629.944C120.985 630.054 120.985 630.169 121.004 630.28C120.05 630.688 119.022 630.799 118.02 630.6C118.02 630.6 88.9716 607.436 90.9432 598.854C91.4953 596.396 94.0189 592.074 96.2009 588.165L96.398 587.814C98.9348 582.928 114.892 555.183 126.892 555.335C136.382 555.427 135.87 568.116 126.682 577.812Z" fill="black"/>
<path d="M121.017 630.22C120.998 630.109 120.998 629.995 121.017 629.884L122.423 622.249L122.594 622.173L123.067 622.402C123.067 622.402 124.592 628.632 121.017 630.22Z" fill="#263238"/>
<path d="M215.995 759.002C186.447 767.355 189.365 739.151 148.75 757.475C136.789 762.88 129.836 748.924 123.369 746.633C110.474 742.052 96.1343 743.457 84.7779 751.901C92.9681 713.358 106.196 676.502 124 642.615C124.933 634.645 127.667 617.787 120.241 570.634C118.926 561.976 126.602 554.554 134.16 554.096L138.931 553.684C146.146 553.289 153.374 553.376 160.58 553.944C162.985 554.218 165.325 554.646 167.401 555.104C170.098 555.691 172.578 557.215 174.512 559.476C176.446 561.736 177.743 564.626 178.232 567.763C179.517 576.242 179.958 584.865 179.546 593.462C179.257 602.425 178.363 614.137 176.523 630.323C176.063 634.385 175.537 638.737 174.946 643.409C174.946 643.409 194.32 697.449 215.995 759.002Z" fill="#407BFF"/>
<path opacity="0.5" d="M215.995 759.002C186.447 767.355 189.365 739.151 148.75 757.475C136.789 762.88 129.836 748.924 123.369 746.633C110.474 742.052 96.1343 743.457 84.7779 751.901C92.9681 713.358 106.196 676.502 124 642.615C124.933 634.645 127.667 617.787 120.241 570.634C118.926 561.976 126.602 554.554 134.16 554.096L138.931 553.684C146.146 553.289 153.374 553.376 160.58 553.944C162.985 554.218 165.325 554.646 167.401 555.104C170.098 555.691 172.578 557.215 174.512 559.476C176.446 561.736 177.743 564.626 178.232 567.763C179.517 576.242 179.958 584.865 179.546 593.462C179.257 602.425 178.363 614.137 176.523 630.323C176.063 634.385 175.537 638.737 174.946 643.409C174.946 643.409 194.32 697.449 215.995 759.002Z" fill="black"/>
<path opacity="0.2" d="M179.546 593.493C179.257 602.456 178.363 614.168 176.523 630.354C175.393 616.184 173.382 602.273 166.152 573.856L179.296 578.727C179.559 583.445 179.599 588.469 179.546 593.493Z" fill="black"/>
<path d="M173.012 531.803C172.864 531.343 172.595 530.948 172.244 530.674C171.893 530.4 171.477 530.261 171.054 530.276C168.28 530.016 166.835 529.772 164.245 530.963C164.05 531.039 163.877 531.176 163.746 531.36C163.672 531.547 163.636 531.751 163.641 531.956C163.641 533.742 163.549 535.529 163.496 537.3C163.429 537.696 163.476 538.107 163.631 538.469C163.785 538.831 164.038 539.123 164.35 539.301C165.77 540.461 172.486 544.431 172.486 544.431C173.801 544.599 176.64 541.652 177.823 540.873L173.012 531.803Z" fill="#CB7A63"/>
<path d="M170.662 544.629L178.207 539.926C178.207 539.926 197.765 568.938 198.922 571.275C208.123 590.102 195.478 589.598 191.89 587.002C183.649 581.062 184.45 572.481 181.217 564.968L170.662 544.629Z" fill="#407BFF"/>
<g opacity="0.5">
<path opacity="0.5" d="M170.66 544.631L178.205 539.928C178.205 539.928 197.763 568.941 198.92 571.277C208.12 590.105 195.476 589.601 191.888 587.005C183.646 581.065 184.448 572.484 181.215 564.971L170.66 544.631Z" fill="black"/>
</g>
<path d="M175.433 559.105C183.954 566.473 192.89 573.171 202.181 579.154L202.641 581.399C202.869 582.487 202.844 583.625 202.569 584.698C202.294 585.772 201.778 586.741 201.075 587.506C200.371 588.272 199.506 588.807 198.566 589.057C197.626 589.306 196.647 589.261 195.727 588.927L193.44 588.102C193.44 588.102 163.498 578.589 162.841 568.572C158.858 562.846 166.271 549.362 175.433 559.105Z" fill="#407BFF"/>
<path opacity="0.5" d="M175.433 559.105C183.954 566.473 192.89 573.171 202.181 579.154L202.641 581.399C202.869 582.487 202.844 583.625 202.569 584.698C202.294 585.772 201.778 586.741 201.075 587.506C200.371 588.272 199.506 588.807 198.566 589.057C197.626 589.306 196.647 589.261 195.727 588.927L193.44 588.102C193.44 588.102 163.498 578.589 162.841 568.572C158.858 562.846 166.271 549.362 175.433 559.105Z" fill="black"/>
<path d="M163.354 509.037L159.174 510.198L132.006 517.726C131.938 517.492 131.885 517.252 131.848 517.008C131.552 515.591 131.336 514.152 131.204 512.702C131.112 511.694 131.046 510.687 131.033 509.648C130.875 498.959 135.357 489.797 142.442 487.858C149.527 485.919 157.058 491.66 161.08 501.311C161.435 502.166 161.764 503.082 162.066 503.998C162.532 505.386 162.914 506.809 163.21 508.259C163.236 508.579 163.315 508.824 163.354 509.037Z" fill="#263238"/>
<path opacity="0.5" d="M163.236 509.038L159.056 510.229L131.887 517.757C131.887 517.543 131.782 517.283 131.729 517.039C131.437 515.621 131.227 514.183 131.098 512.733L161.921 504.075C162.387 505.463 162.769 506.886 163.065 508.335C163.236 508.58 163.236 508.824 163.236 509.038Z" fill="black"/>
<path d="M173.409 509.282C173.502 509.735 173.517 510.206 173.452 510.666C173.387 511.126 173.244 511.566 173.031 511.961C172.819 512.356 172.54 512.698 172.212 512.967C171.885 513.236 171.514 513.426 171.122 513.527L128.273 525.422C127.49 525.638 126.666 525.484 125.981 524.994C125.296 524.505 124.806 523.72 124.619 522.811C124.518 522.353 124.498 521.875 124.562 521.408C124.625 520.941 124.77 520.493 124.987 520.093C125.416 519.317 126.091 518.768 126.866 518.566L169.755 506.655C170.144 506.549 170.546 506.532 170.94 506.607C171.334 506.681 171.712 506.845 172.051 507.089C172.39 507.333 172.685 507.652 172.918 508.028C173.151 508.404 173.318 508.83 173.409 509.282V509.282Z" fill="#263238"/>
</svg>
