<svg width="45" height="53" viewBox="0 0 45 53" fill="none" xmlns="http://www.w3.org/2000/svg">
<path d="M22.5163 0.777893C10.1701 0.777893 0.125694 12.4468 0.125694 26.7897V37.5665C0.125694 40.2301 2.13413 42.3969 4.60382 42.3969H6.84288C7.43672 42.3969 8.00623 42.1228 8.42614 41.635C8.84604 41.1472 9.08194 40.4856 9.08194 39.7957V26.4178C9.08194 25.7279 8.84604 25.0663 8.42614 24.5785C8.00623 24.0906 7.43672 23.8166 6.84288 23.8166H4.80981C6.05473 13.75 13.5108 5.98026 22.5163 5.98026C31.5218 5.98026 38.9779 13.75 40.2228 23.8166H38.1898C37.5959 23.8166 37.0264 24.0906 36.6065 24.5785C36.1866 25.0663 35.9507 25.7279 35.9507 26.4178V42.3969C35.9507 45.266 33.9423 47.5992 31.4726 47.5992H26.9944V44.998H18.0382V52.8016H31.4726C36.4119 52.8016 40.4288 48.1351 40.4288 42.3969C42.8985 42.3969 44.9069 40.2301 44.9069 37.5665V26.7897C44.9069 12.4468 34.8625 0.777893 22.5163 0.777893Z" fill="#A3D4C3"/>
</svg>
