<svg width="46" height="53" viewBox="0 0 46 53" fill="none" xmlns="http://www.w3.org/2000/svg">
<path d="M30.736 25.9188C30.736 25.4014 30.559 24.9052 30.2441 24.5394C29.9292 24.1735 29.5021 23.968 29.0567 23.968C28.6113 23.968 28.1842 24.1735 27.8692 24.5394C27.5543 24.9052 27.3774 25.4014 27.3774 25.9188V31.1212C27.3774 31.6386 27.5543 32.1348 27.8692 32.5007C28.1842 32.8666 28.6113 33.0721 29.0567 33.0721C29.5021 33.0721 29.9292 32.8666 30.2441 32.5007C30.559 32.1348 30.736 31.6386 30.736 31.1212V25.9188Z" fill="#C293FE"/>
<path d="M22.339 23.968C22.7844 23.968 23.2115 24.1735 23.5265 24.5394C23.8414 24.9052 24.0183 25.4014 24.0183 25.9188V31.1212C24.0183 31.6386 23.8414 32.1348 23.5265 32.5007C23.2115 32.8666 22.7844 33.0721 22.339 33.0721C21.8936 33.0721 21.4665 32.8666 21.1516 32.5007C20.8367 32.1348 20.6597 31.6386 20.6597 31.1212V25.9188C20.6597 25.4014 20.8367 24.9052 21.1516 24.5394C21.4665 24.1735 21.8936 23.968 22.339 23.968Z" fill="#C293FE"/>
<path d="M17.3029 25.9188C17.3029 25.4014 17.1259 24.9052 16.811 24.5394C16.4961 24.1735 16.0689 23.968 15.6236 23.968C15.1782 23.968 14.7511 24.1735 14.4361 24.5394C14.1212 24.9052 13.9443 25.4014 13.9443 25.9188V31.1212C13.9443 31.6386 14.1212 32.1348 14.4361 32.5007C14.7511 32.8666 15.1782 33.0721 15.6236 33.0721C16.0689 33.0721 16.4961 32.8666 16.811 32.5007C17.1259 32.1348 17.3029 31.6386 17.3029 31.1212V25.9188Z" fill="#C293FE"/>
<path d="M8.90592 35.6753C9.3513 35.6753 9.77843 35.8808 10.0934 36.2467C10.4083 36.6126 10.5852 37.1088 10.5852 37.6262V44.1291C10.5852 44.6466 10.4083 45.1428 10.0934 45.5086C9.77843 45.8745 9.3513 46.08 8.90592 46.08C8.46054 46.08 8.03341 45.8745 7.71848 45.5086C7.40355 45.1428 7.22662 44.6466 7.22662 44.1291V37.6262C7.22662 37.1088 7.40355 36.6126 7.71848 36.2467C8.03341 35.8808 8.46054 35.6753 8.90592 35.6753Z" fill="#C293FE"/>
<path d="M38.5735 37.6262C38.5735 37.1088 38.3966 36.6126 38.0816 36.2467C37.7667 35.8808 37.3396 35.6753 36.8942 35.6753C36.4488 35.6753 36.0217 35.8808 35.7068 36.2467C35.3918 36.6126 35.2149 37.1088 35.2149 37.6262V44.1291C35.2149 44.6466 35.3918 45.1428 35.7068 45.5086C36.0217 45.8745 36.4488 46.08 36.8942 46.08C37.3396 46.08 37.7667 45.8745 38.0816 45.5086C38.3966 45.1428 38.5735 44.6466 38.5735 44.1291V37.6262Z" fill="#C293FE"/>
<path d="M22.3399 0.558289H30.7364C31.0333 0.558289 31.3181 0.695315 31.528 0.939224C31.738 1.18313 31.8559 1.51394 31.8559 1.85888V7.06125C31.8559 7.40619 31.738 7.737 31.528 7.98091C31.3181 8.22482 31.0333 8.36185 30.7364 8.36185H24.0192V11.0099C27.9721 11.3387 31.671 13.3949 34.3713 16.7647C37.0717 20.1344 38.573 24.5674 38.5731 29.1713H40.2524C41.5885 29.1713 42.8699 29.7879 43.8147 30.8855C44.7595 31.9831 45.2903 33.4718 45.2903 35.024V50.6311C45.2903 51.1485 45.1134 51.6447 44.7984 52.0106C44.4835 52.3765 44.0564 52.582 43.611 52.582H2.18833C1.74295 52.582 1.31582 52.3765 1.00089 52.0106C0.685958 51.6447 0.509033 51.1485 0.509033 50.6311V35.024C0.509033 33.4718 1.03981 31.9831 1.9846 30.8855C2.92938 29.7879 4.21079 29.1713 5.54692 29.1713H7.22622C7.22619 24.7924 8.58417 20.56 11.0514 17.2494C13.5187 13.9388 16.93 11.7718 20.6606 11.1451V2.50918C20.6606 1.99177 20.8375 1.49555 21.1525 1.12969C21.4674 0.763828 21.8945 0.558289 22.3399 0.558289ZM22.8997 14.8648C19.6336 14.8648 16.5012 16.3721 14.1917 19.0551C11.8823 21.7381 10.5848 25.377 10.5848 29.1713V31.1222C10.5848 31.6396 10.4079 32.1358 10.093 32.5017C9.77803 32.8676 9.35089 33.0731 8.90552 33.0731H5.54692C5.10155 33.0731 4.67441 33.2786 4.35948 33.6445C4.04455 34.0104 3.86763 34.5066 3.86763 35.024V48.6802H17.302V41.527C17.302 41.0096 17.4789 40.5133 17.7939 40.1475C18.1088 39.7816 18.5359 39.5761 18.9813 39.5761H26.818C27.2634 39.5761 27.6905 39.7816 28.0055 40.1475C28.3204 40.5133 28.4973 41.0096 28.4973 41.527V48.6802H41.9317V35.024C41.9317 34.5066 41.7548 34.0104 41.4398 33.6445C41.1249 33.2786 40.6978 33.0731 40.2524 33.0731H36.8938C36.4484 33.0731 36.0213 32.8676 35.7064 32.5017C35.3914 32.1358 35.2145 31.6396 35.2145 31.1222V29.1713C35.2145 25.377 33.917 21.7381 31.6076 19.0551C29.2981 16.3721 26.1658 14.8648 22.8997 14.8648ZM25.1387 43.4779H20.6606V48.6802H25.1387V43.4779Z" fill="#C293FE"/>
</svg>
