<svg width="42" height="53" viewBox="0 0 42 53" fill="none" xmlns="http://www.w3.org/2000/svg">
<path d="M20.8368 14.5902C21.9609 14.5902 22.8722 13.5315 22.8722 12.2255C22.8722 10.9195 21.9609 9.86084 20.8368 9.86084C19.7126 9.86084 18.8013 10.9195 18.8013 12.2255C18.8013 13.5315 19.7126 14.5902 20.8368 14.5902Z" fill="#8E83DD"/>
<path d="M8.62396 38.2368H33.0496V42.9661H8.62396V38.2368Z" fill="#8E83DD"/>
<path d="M16.7658 26.0115L22.4489 32.6184L30.4523 23.3134L33.0496 26.4135V16.9548H24.9077L27.5742 19.9698L22.4468 25.9264L16.7658 19.3195L8.62396 28.7781L11.5021 32.1218L16.7658 26.0115Z" fill="#8E83DD"/>
<path d="M35.085 5.13268H28.3721C28.1722 4.78304 27.9547 4.44746 27.7207 4.1277L27.7004 4.09932C26.2048 2.07576 24.1008 0.791828 21.8179 0.509761C21.1696 0.366375 20.5039 0.366375 19.8557 0.509761C17.5728 0.791828 15.4687 2.07576 13.9732 4.09932L13.9528 4.1277C13.7189 4.4467 13.5014 4.78149 13.3015 5.13031V5.13268H6.58849C4.96947 5.13456 3.41722 5.88256 2.2724 7.21253C1.12757 8.54251 0.483703 10.3458 0.482086 12.2267V45.3319C0.483703 47.2128 1.12757 49.0161 2.2724 50.3461C3.41722 51.6761 4.96947 52.4241 6.58849 52.4259H35.085C36.7041 52.4241 38.2563 51.6761 39.4011 50.3461C40.5459 49.0161 41.1898 47.2128 41.1914 45.3319V12.2267C41.1898 10.3458 40.5459 8.54251 39.4011 7.21253C38.2563 5.88256 36.7041 5.13456 35.085 5.13268V5.13268ZM37.1205 45.3319C37.1205 45.9591 36.9061 46.5606 36.5243 47.004C36.1426 47.4475 35.6249 47.6966 35.085 47.6966H6.58849C6.04881 47.696 5.5314 47.4466 5.14979 47.0033C4.76818 46.56 4.55356 45.9589 4.55302 45.3319V12.2267C4.55356 11.5997 4.76818 10.9986 5.14979 10.5553C5.5314 10.112 6.04881 9.86263 6.58849 9.862H15.8499C16.0835 8.52563 16.7075 7.32416 17.6164 6.46117C18.5252 5.59818 19.663 5.12675 20.8368 5.12675C22.0106 5.12675 23.1483 5.59818 24.0571 6.46117C24.966 7.32416 25.5901 8.52563 25.8237 9.862H35.085C35.6247 9.86263 36.1421 10.112 36.5237 10.5553C36.9053 10.9986 37.12 11.5997 37.1205 12.2267V45.3319Z" fill="#8E83DD"/>
</svg>
