<svg width="44" height="53" viewBox="0 0 44 53" fill="none" xmlns="http://www.w3.org/2000/svg">
<path d="M31.1722 1.01171C31.4889 1.13247 31.7509 1.39274 31.9005 1.73529C32.0501 2.07784 32.0751 2.47461 31.97 2.83834L30.7116 7.17368C30.6062 7.53779 30.3791 7.83887 30.0803 8.01069C29.7816 8.18251 29.4356 8.211 29.1185 8.08988C28.8015 7.96877 28.5393 7.70798 28.3897 7.36488C28.2401 7.02178 28.2153 6.62447 28.3207 6.26037L29.5791 1.92502C29.6314 1.74487 29.7141 1.57831 29.8225 1.43489C29.9309 1.29147 30.0629 1.17399 30.2108 1.08917C30.3588 1.00435 30.5198 0.953846 30.6848 0.940555C30.8498 0.927264 31.0154 0.951443 31.1722 1.01171ZM40.4767 6.29505C40.5937 6.16069 40.6865 6.00118 40.7498 5.82563C40.8131 5.65008 40.8457 5.46193 40.8457 5.27191C40.8457 5.08189 40.8131 4.89374 40.7498 4.71819C40.6865 4.54264 40.5937 4.38313 40.4767 4.24877C40.3597 4.11441 40.2208 4.00783 40.0679 3.93511C39.915 3.8624 39.7512 3.82497 39.5857 3.82497C39.4203 3.82497 39.2564 3.8624 39.1036 3.93511C38.9507 4.00783 38.8118 4.11441 38.6948 4.24877L33.6613 10.0292C33.5443 10.1634 33.4514 10.3227 33.3881 10.4981C33.3247 10.6735 33.292 10.8615 33.2919 11.0514C33.2916 11.4348 33.4241 11.8027 33.66 12.0741C33.896 12.3454 34.2161 12.498 34.5501 12.4983C34.884 12.4986 35.2043 12.3465 35.4406 12.0755L40.4741 6.29505H40.4767ZM14.6849 7.13611C15.0363 6.28726 15.5625 5.54959 16.2181 4.98702C16.8737 4.42445 17.6389 4.05395 18.4473 3.90761C19.2558 3.76128 20.0831 3.84353 20.8576 4.14724C21.6321 4.45094 22.3304 4.96694 22.8921 5.65053L39.47 25.8243C40.0232 26.4974 40.4276 27.3133 40.6491 28.2032C40.8706 29.0931 40.9028 30.0311 40.743 30.9383C40.5832 31.8455 40.236 32.6953 39.7307 33.4164C39.2254 34.1374 38.5766 34.7085 37.8391 35.0818L27.9306 40.0992C28.2979 41.6035 28.3572 43.1851 28.1037 44.7201C27.8503 46.2551 27.291 47.702 26.4696 48.9475C25.6483 50.193 24.5871 51.2034 23.3692 51.8996C22.1513 52.5958 20.8096 52.959 19.4492 52.9607C17.9497 52.9617 16.4749 52.5228 15.1646 51.6856C13.8542 50.8485 12.7518 49.641 11.9618 48.1774L8.94169 49.7034C8.24789 50.0548 7.47805 50.158 6.73243 49.9998C5.98681 49.8415 5.29996 49.429 4.76135 48.8161L1.68588 45.3161C1.12977 44.6835 0.758623 43.8681 0.623806 42.9826C0.488988 42.0972 0.597165 41.1855 0.933366 40.3738L14.6849 7.139V7.13611ZM14.2973 46.9924C15.1327 48.3618 16.3556 49.3562 17.7579 49.806C19.1601 50.2558 20.6548 50.1333 21.9871 49.4593C23.3195 48.7853 24.4071 47.6015 25.0645 46.1097C25.722 44.6179 25.9086 42.9105 25.5926 41.2784L14.2973 46.9924ZM21.0624 7.63323C20.7814 7.29185 20.4321 7.03428 20.0449 6.88282C19.6576 6.73137 19.2441 6.6906 18.84 6.76405C18.436 6.83749 18.0536 7.02293 17.7261 7.30432C17.3985 7.5857 17.1356 7.95455 16.9601 8.37891L3.206 41.6166C3.09461 41.8869 3.059 42.1903 3.10408 42.4848C3.14916 42.7794 3.2727 43.0506 3.45767 43.2611L6.53315 46.7583C6.71236 46.9625 6.94092 47.1001 7.18913 47.1532C7.43733 47.2063 7.6937 47.1724 7.92492 47.056L36.8223 32.4401C37.1911 32.2537 37.5155 31.9684 37.7682 31.6081C38.021 31.2478 38.1948 30.8231 38.2749 30.3697C38.355 29.9163 38.3392 29.4474 38.2288 29.0025C38.1184 28.5576 37.9165 28.1496 37.6403 27.8128L21.0624 7.63901V7.63323ZM38.3248 15.3877C37.9911 15.3877 37.671 15.54 37.435 15.811C37.199 16.082 37.0665 16.4496 37.0665 16.8328C37.0665 17.2161 37.199 17.5837 37.435 17.8547C37.671 18.1257 37.9911 18.278 38.3248 18.278H42.1C42.4337 18.278 42.7538 18.1257 42.9898 17.8547C43.2258 17.5837 43.3584 17.2161 43.3584 16.8328C43.3584 16.4496 43.2258 16.082 42.9898 15.811C42.7538 15.54 42.4337 15.3877 42.1 15.3877H38.3248Z" fill="#FF9191"/>
</svg>
