<svg width="46" height="53" viewBox="0 0 46 53" fill="none" xmlns="http://www.w3.org/2000/svg">
<path fill-rule="evenodd" clip-rule="evenodd" d="M41.3259 3.82722H4.00816C3.67825 3.82722 3.36186 3.97947 3.12857 4.25048C2.89529 4.52149 2.76424 4.88906 2.76424 5.27232V48.6254C2.76424 49.0087 2.89529 49.3763 3.12857 49.6473C3.36186 49.9183 3.67825 50.0705 4.00816 50.0705H41.3259C41.6558 50.0705 41.9722 49.9183 42.2055 49.6473C42.4387 49.3763 42.5698 49.0087 42.5698 48.6254V5.27232C42.5698 4.88906 42.4387 4.52149 42.2055 4.25048C41.9722 3.97947 41.6558 3.82722 41.3259 3.82722ZM4.00816 0.937012C3.01843 0.937012 2.06924 1.39377 1.3694 2.20679C0.669558 3.01982 0.27639 4.12253 0.27639 5.27232V48.6254C0.27639 49.7752 0.669558 50.8779 1.3694 51.6909C2.06924 52.504 3.01843 52.9607 4.00816 52.9607H41.3259C42.3156 52.9607 43.2648 52.504 43.9646 51.6909C44.6645 50.8779 45.0576 49.7752 45.0576 48.6254V5.27232C45.0576 4.12253 44.6645 3.01982 43.9646 2.20679C43.2648 1.39377 42.3156 0.937012 41.3259 0.937012H4.00816Z" fill="#79EBB0"/>
<path d="M16.447 21.1689C16.447 22.3187 16.0538 23.4214 15.354 24.2345C14.6541 25.0475 13.705 25.5042 12.7152 25.5042C11.7255 25.5042 10.7763 25.0475 10.0765 24.2345C9.37663 23.4214 8.98346 22.3187 8.98346 21.1689C8.98346 20.0191 9.37663 18.9164 10.0765 18.1034C10.7763 17.2904 11.7255 16.8336 12.7152 16.8336C13.705 16.8336 14.6541 17.2904 15.354 18.1034C16.0538 18.9164 16.447 20.0191 16.447 21.1689Z" fill="#79EBB0"/>
<path fill-rule="evenodd" clip-rule="evenodd" d="M8.05917 31.631C7.79794 31.9359 7.74072 32.1642 7.74072 32.3348V37.0646H5.25288V32.3348C5.25288 31.196 5.71313 30.2755 6.29404 29.5948C6.865 28.9286 7.60016 28.4286 8.33034 28.0572C9.78325 27.3202 11.5073 26.9489 12.7164 26.9489C13.9243 26.9489 15.6496 27.3202 17.1025 28.0572C17.8327 28.4286 18.5678 28.9286 19.1388 29.5948C19.721 30.2755 20.18 31.196 20.18 32.3348V37.0646H17.6921V32.3348C17.6921 32.1642 17.6336 31.9359 17.3737 31.6324C17.1025 31.3145 16.6721 30.9937 16.1061 30.7061C14.9692 30.1281 13.5834 29.8391 12.7164 29.8391C11.8494 29.8391 10.4649 30.1281 9.32673 30.7061C8.76074 30.9923 8.33159 31.3131 8.05917 31.631Z" fill="#79EBB0"/>
<path fill-rule="evenodd" clip-rule="evenodd" d="M27.9616 31.631C27.7003 31.9359 27.6431 32.1642 27.6431 32.3348V37.0646H25.1553V32.3348C25.1553 31.196 25.6155 30.2755 26.1964 29.5948C26.7674 28.9286 27.5025 28.4286 28.2327 28.0572C29.6856 27.3202 31.411 26.9489 32.6188 26.9489C33.8266 26.9489 35.552 27.3202 37.0049 28.0572C37.7351 28.4286 38.4702 28.9286 39.0412 29.5948C39.6233 30.2755 40.0823 31.196 40.0823 32.3348V37.0646H37.5945V32.3348C37.5945 32.1642 37.536 31.9359 37.276 31.6324C37.0049 31.3145 36.5745 30.9937 36.0085 30.7061C34.8715 30.1281 33.4858 29.8391 32.6188 29.8391C31.7518 29.8391 30.3673 30.1281 29.2291 30.7061C28.6631 30.9923 28.234 31.3131 27.9616 31.631Z" fill="#79EBB0"/>
<path d="M36.3494 21.1689C36.3494 22.3187 35.9562 23.4214 35.2564 24.2345C34.5565 25.0475 33.6073 25.5042 32.6176 25.5042C31.6279 25.5042 30.6787 25.0475 29.9789 24.2345C29.279 23.4214 28.8858 22.3187 28.8858 21.1689C28.8858 20.0191 29.279 18.9164 29.9789 18.1034C30.6787 17.2904 31.6279 16.8336 32.6176 16.8336C33.6073 16.8336 34.5565 17.2904 35.2564 18.1034C35.9562 18.9164 36.3494 20.0191 36.3494 21.1689Z" fill="#79EBB0"/>
<path d="M26.3982 18.2783C26.3982 19.4281 26.005 20.5308 25.3052 21.3438C24.6053 22.1569 23.6561 22.6136 22.6664 22.6136C21.6767 22.6136 20.7275 22.1569 20.0277 21.3438C19.3278 20.5308 18.9346 19.4281 18.9346 18.2783C18.9346 17.1285 19.3278 16.0258 20.0277 15.2128C20.7275 14.3997 21.6767 13.943 22.6664 13.943C23.6561 13.943 24.6053 14.3997 25.3052 15.2128C26.005 16.0258 26.3982 17.1285 26.3982 18.2783Z" fill="#79EBB0"/>
<path fill-rule="evenodd" clip-rule="evenodd" d="M21.0464 28.3873C20.6943 28.4277 20.5737 28.5202 20.4854 28.6344L18.6294 26.7095C19.2825 25.8598 20.0973 25.591 20.8038 25.5101C21.2317 25.4624 21.7616 25.4797 22.197 25.4927C22.3736 25.4985 22.5353 25.5043 22.6672 25.5043C22.7991 25.5043 22.9608 25.4985 23.1386 25.4927C23.5728 25.4783 24.1027 25.4638 24.5294 25.5115C25.2384 25.591 26.0519 25.8598 26.705 26.7095L24.849 28.6344C24.762 28.5202 24.6401 28.4277 24.288 28.3887C24.0588 28.3674 23.8287 28.3617 23.5989 28.3714L23.3476 28.3786C23.1362 28.3858 22.8961 28.3945 22.6672 28.3945C22.4383 28.3945 22.1982 28.3858 21.9868 28.38L21.7355 28.3714C21.5057 28.3612 21.2756 28.3665 21.0464 28.3873Z" fill="#79EBB0"/>
</svg>
