<svg width="658" height="564" viewBox="0 0 658 564" fill="none" xmlns="http://www.w3.org/2000/svg">
<path d="M591.351 524.501H547.818V524.881H591.351V524.501Z" fill="#EBEBEB"/>
<path d="M435.357 528.657H423.935V529.038H435.357V528.657Z" fill="#EBEBEB"/>
<path d="M546.502 510.331H521.278V510.711H546.502V510.331Z" fill="#EBEBEB"/>
<path d="M125.724 512.898H68.9544V513.278H125.724V512.898Z" fill="#EBEBEB"/>
<path d="M145.752 512.898H137.432V513.278H145.752V512.898Z" fill="#EBEBEB"/>
<path d="M295.937 519.342H172.804V519.723H295.937V519.342Z" fill="#EBEBEB"/>
<path d="M311.515 431.83H57.7299C55.7394 431.83 53.8304 430.912 52.4229 429.277C51.0154 427.642 50.2247 425.424 50.2247 423.111V8.64272C50.242 6.34353 51.0404 4.14537 52.446 2.5267C53.8516 0.908039 55.7507 -8.81465e-05 57.7299 6.41721e-09H311.515C313.505 6.41724e-09 315.414 0.918614 316.822 2.55376C318.229 4.1889 319.02 6.40662 319.02 8.71906V423.111C319.02 425.424 318.229 427.642 316.822 429.277C315.414 430.912 313.505 431.83 311.515 431.83V431.83ZM57.7299 0.305398C55.8276 0.309434 54.0042 1.18912 52.6591 2.7518C51.314 4.31448 50.5567 6.43276 50.5533 8.64272V423.111C50.5567 425.321 51.314 427.44 52.6591 429.002C54.0042 430.565 55.8276 431.445 57.7299 431.449H311.515C313.417 431.445 315.241 430.565 316.586 429.002C317.931 427.44 318.688 425.321 318.692 423.111V8.64272C318.688 6.43276 317.931 4.31448 316.586 2.7518C315.241 1.18912 313.417 0.309434 311.515 0.305398H57.7299Z" fill="#EBEBEB"/>
<path d="M595.832 431.83H342.021C340.031 431.826 338.124 430.907 336.718 429.272C335.311 427.638 334.519 425.423 334.516 423.111V8.64272C334.536 6.34478 335.336 4.14893 336.741 2.53111C338.146 0.913301 340.043 0.00389119 342.021 0H595.832C597.807 0.00794717 599.699 0.919624 601.099 2.53743C602.499 4.15523 603.294 6.34881 603.311 8.64272V423.111C603.311 425.419 602.524 427.632 601.122 429.266C599.72 430.9 597.818 431.822 595.832 431.83V431.83ZM342.021 0.305398C340.119 0.309434 338.295 1.18912 336.95 2.7518C335.605 4.31448 334.848 6.43276 334.844 8.64272V423.111C334.848 425.321 335.605 427.44 336.95 429.002C338.295 430.565 340.119 431.445 342.021 431.449H595.832C597.734 431.445 599.558 430.565 600.903 429.002C602.248 427.44 603.005 425.321 603.009 423.111V8.64272C603.005 6.43276 602.248 4.31448 600.903 2.7518C599.558 1.18912 597.734 0.309434 595.832 0.305398H342.021Z" fill="#EBEBEB"/>
<path d="M657.202 499.933H0V500.314H657.202V499.933Z" fill="#EBEBEB"/>
<path d="M128.415 69.2019H126.049V283.544H128.415V69.2019Z" fill="#E0E0E0"/>
<path d="M275.696 69.2019H273.33V283.544H275.696V69.2019Z" fill="#E0E0E0"/>
<path d="M284.963 82.6859H116.785L113.236 73.0659H288.512L284.963 82.6859Z" fill="#EBEBEB"/>
<path d="M284.963 95.8954H116.785L113.236 86.2754H288.512L284.963 95.8954Z" fill="#EBEBEB"/>
<path d="M284.963 109.102H116.785L113.236 99.4822H288.512L284.963 109.102Z" fill="#EBEBEB"/>
<path d="M284.963 122.309H116.785L113.236 112.689H288.512L284.963 122.309Z" fill="#EBEBEB"/>
<path d="M284.963 135.521H116.785L113.236 125.901H288.512L284.963 135.521Z" fill="#EBEBEB"/>
<path d="M284.963 148.728H116.785L113.236 139.108H288.512L284.963 148.728Z" fill="#EBEBEB"/>
<path d="M284.963 161.935H116.785L113.236 152.315H288.512L284.963 161.935Z" fill="#EBEBEB"/>
<path d="M284.963 175.144H116.785L113.236 165.524H288.512L284.963 175.144Z" fill="#EBEBEB"/>
<path d="M284.963 188.337H116.785L113.236 178.717H288.512L284.963 188.337Z" fill="#EBEBEB"/>
<path d="M284.963 201.55H116.785L113.236 191.93H288.512L284.963 201.55Z" fill="#EBEBEB"/>
<path d="M284.963 214.754H116.785L113.236 205.134H288.512L284.963 214.754Z" fill="#EBEBEB"/>
<path d="M284.963 227.966H116.785L113.236 218.346H288.512L284.963 227.966Z" fill="#EBEBEB"/>
<path d="M284.963 241.173H116.785L113.236 231.553H288.512L284.963 241.173Z" fill="#EBEBEB"/>
<path d="M284.963 254.382H116.785L113.236 244.762H288.512L284.963 254.382Z" fill="#EBEBEB"/>
<path d="M284.963 267.589H116.785L113.236 257.969H288.512L284.963 267.589Z" fill="#EBEBEB"/>
<path d="M284.963 280.798H116.785L113.236 271.178H288.512L284.963 280.798Z" fill="#EBEBEB"/>
<path d="M288.512 280.797H113.236V286.294H288.512V280.797Z" fill="#E0E0E0"/>
<path d="M294.623 61.02H107.123V73.8467H294.623V61.02Z" fill="#E0E0E0"/>
<path d="M109.096 190.141C108.591 190.141 108.106 189.908 107.748 189.492C107.391 189.077 107.19 188.514 107.19 187.927V113.105C107.19 112.814 107.239 112.526 107.335 112.257C107.431 111.989 107.571 111.745 107.748 111.539C107.925 111.333 108.135 111.17 108.367 111.059C108.598 110.948 108.846 110.891 109.096 110.891V110.891C109.602 110.891 110.086 111.124 110.444 111.539C110.801 111.954 111.002 112.517 111.002 113.105V187.927C111.002 188.218 110.953 188.505 110.857 188.774C110.761 189.043 110.621 189.287 110.444 189.492C110.267 189.698 110.057 189.861 109.825 189.972C109.594 190.084 109.346 190.141 109.096 190.141V190.141Z" fill="#E0E0E0"/>
<path d="M109.74 71.2787H108.36V115.714H109.74V71.2787Z" fill="#E0E0E0"/>
<path d="M323.173 150.789H329.009C329.968 150.789 330.888 151.232 331.565 152.019C332.243 152.807 332.624 153.875 332.624 154.988V352.107H319.546V154.988C319.546 154.436 319.64 153.888 319.822 153.378C320.005 152.868 320.272 152.404 320.609 152.014C320.946 151.624 321.346 151.315 321.786 151.105C322.226 150.894 322.698 150.787 323.173 150.789Z" fill="#E6E6E6"/>
<path d="M327.196 150.789H323.594C322.523 150.789 321.495 151.283 320.736 152.161C319.977 153.04 319.549 154.232 319.546 155.477V352.107H323.147V155.477C323.151 154.232 323.579 153.04 324.338 152.161C325.096 151.283 326.124 150.789 327.196 150.789Z" fill="#F0F0F0"/>
<path d="M336.42 339.111H315.836V500.314H336.42V339.111Z" fill="#EBEBEB"/>
<path d="M308.516 493.795H343.742C345.074 493.795 346.351 494.409 347.293 495.503C348.234 496.597 348.763 498.081 348.763 499.628V500.3H303.495V499.628C303.495 498.081 304.024 496.597 304.966 495.503C305.907 494.409 307.184 493.795 308.516 493.795V493.795Z" fill="#E6E6E6"/>
<path d="M521.055 420.684H554.244C557.105 420.68 559.848 419.358 561.871 417.008C563.894 414.658 565.032 411.471 565.035 408.148V351.771C565.035 351.164 564.828 350.581 564.458 350.152C564.088 349.722 563.587 349.481 563.064 349.481C562.541 349.481 562.039 349.722 561.67 350.152C561.3 350.581 561.092 351.164 561.092 351.771V408.148C561.092 410.257 560.371 412.281 559.086 413.773C557.802 415.265 556.06 416.103 554.244 416.103H521.055V420.684Z" fill="#E0E0E0"/>
<path d="M511.565 474.707V422.209L508.936 421.247C507.481 420.715 506.21 419.659 505.308 418.231C504.405 416.803 503.917 415.079 503.915 413.307H528.954C528.954 415.079 528.467 416.805 527.564 418.233C526.661 419.661 525.389 420.717 523.933 421.247L521.304 422.209V474.707L542.085 485.579V490.16L516.415 479.731L490.744 490.16V485.579L511.565 474.707Z" fill="#E0E0E0"/>
<path d="M483.701 416.103H549.172C550.106 416.103 551.03 415.889 551.893 415.474C552.756 415.059 553.54 414.451 554.2 413.684C554.86 412.916 555.384 412.006 555.741 411.003C556.099 410.001 556.283 408.927 556.283 407.842C556.279 405.654 555.529 403.557 554.195 402.011C552.862 400.465 551.055 399.596 549.172 399.596H483.701C481.819 399.596 480.014 400.465 478.682 402.012C477.351 403.558 476.604 405.655 476.604 407.842C476.602 408.926 476.784 410 477.14 411.002C477.496 412.005 478.019 412.915 478.678 413.683C479.337 414.45 480.12 415.059 480.982 415.474C481.844 415.889 482.768 416.103 483.701 416.103Z" fill="#F0F0F0"/>
<path d="M560.699 371.606L564.235 312.909C564.365 310.731 563.746 308.581 562.514 306.932C561.282 305.284 559.538 304.27 557.663 304.113V304.113C555.786 303.958 553.933 304.675 552.51 306.107C551.088 307.538 550.214 309.568 550.079 311.748L546.543 370.445C546.413 372.625 547.031 374.776 548.263 376.427C549.495 378.079 551.239 379.096 553.115 379.256C554.994 379.407 556.847 378.687 558.269 377.253C559.691 375.818 560.565 373.788 560.699 371.606V371.606Z" fill="#EBEBEB"/>
<path d="M537.59 493.385C537.59 494.418 537.854 495.428 538.348 496.287C538.842 497.145 539.544 497.815 540.365 498.21C541.187 498.605 542.09 498.709 542.962 498.507C543.834 498.306 544.635 497.808 545.264 497.078C545.893 496.348 546.321 495.417 546.494 494.404C546.668 493.391 546.579 492.341 546.239 491.387C545.898 490.432 545.322 489.617 544.583 489.043C543.844 488.469 542.975 488.163 542.085 488.163C541.495 488.163 540.911 488.298 540.365 488.56C539.82 488.823 539.324 489.208 538.907 489.693C538.489 490.177 538.158 490.753 537.932 491.387C537.707 492.02 537.59 492.699 537.59 493.385Z" fill="#E0E0E0"/>
<path d="M486.251 493.385C486.251 494.418 486.515 495.428 487.009 496.287C487.503 497.145 488.205 497.815 489.026 498.21C489.848 498.605 490.751 498.709 491.623 498.507C492.495 498.306 493.296 497.808 493.925 497.078C494.554 496.348 494.982 495.417 495.155 494.404C495.329 493.391 495.24 492.341 494.9 491.387C494.559 490.432 493.983 489.617 493.244 489.043C492.505 488.469 491.636 488.163 490.746 488.163C489.554 488.163 488.411 488.713 487.568 489.693C486.725 490.672 486.251 492 486.251 493.385Z" fill="#E0E0E0"/>
<path d="M131.926 420.684H98.7377C95.8745 420.684 93.1283 419.364 91.1025 417.013C89.0766 414.662 87.9368 411.474 87.9333 408.148V351.771C87.9333 351.164 88.141 350.581 88.5108 350.152C88.8805 349.722 89.382 349.481 89.9049 349.481C90.4278 349.481 90.9293 349.722 91.299 350.152C91.6688 350.581 91.8765 351.164 91.8765 351.771V408.148C91.88 410.259 92.6044 412.282 93.8907 413.774C95.1771 415.265 96.9203 416.103 98.7377 416.103H131.926V420.684Z" fill="#E0E0E0"/>
<path d="M141.415 474.707V422.209L144.044 421.247C145.497 420.715 146.766 419.657 147.667 418.23C148.568 416.802 149.053 415.077 149.052 413.307H124.078C124.081 415.079 124.569 416.803 125.471 418.231C126.374 419.659 127.645 420.715 129.099 421.247L131.728 422.209V474.707L110.895 485.579V490.16L136.565 479.731L162.236 490.16V485.579L141.415 474.707Z" fill="#E0E0E0"/>
<path d="M169.295 416.103H103.838C101.954 416.099 100.149 415.227 98.8179 413.678C97.4872 412.129 96.7398 410.03 96.7398 407.842C96.7398 405.655 97.4876 403.558 98.8187 402.012C100.15 400.465 101.955 399.596 103.838 399.596H169.295C171.179 399.596 172.985 400.465 174.318 402.011C175.652 403.557 176.402 405.654 176.406 407.842C176.406 410.033 175.657 412.134 174.323 413.684C172.99 415.233 171.181 416.103 169.295 416.103Z" fill="#F0F0F0"/>
<path d="M92.2721 371.606L88.7363 312.909C88.6062 310.731 89.225 308.581 90.4571 306.932C91.6891 305.284 93.4338 304.27 95.3084 304.113V304.113C97.1855 303.958 99.0389 304.675 100.461 306.107C101.883 307.538 102.758 309.568 102.892 311.748L106.468 370.461C106.598 372.64 105.979 374.791 104.748 376.443C103.516 378.094 101.771 379.111 99.8956 379.271V379.271C98.9613 379.352 98.0224 379.218 97.1329 378.876C96.2433 378.535 95.4207 377.992 94.7123 377.28C94.0039 376.567 93.4236 375.699 93.0048 374.726C92.586 373.752 92.337 372.692 92.2721 371.606V371.606Z" fill="#EBEBEB"/>
<path d="M115.378 493.385C115.378 494.419 115.114 495.429 114.619 496.288C114.125 497.147 113.422 497.817 112.6 498.211C111.778 498.606 110.873 498.709 110.001 498.506C109.129 498.303 108.328 497.804 107.699 497.073C107.071 496.341 106.644 495.409 106.472 494.395C106.3 493.381 106.391 492.33 106.733 491.376C107.076 490.422 107.654 489.608 108.395 489.036C109.136 488.464 110.006 488.16 110.896 488.163C111.486 488.163 112.069 488.298 112.614 488.561C113.159 488.823 113.653 489.208 114.07 489.693C114.486 490.179 114.816 490.754 115.041 491.388C115.265 492.021 115.38 492.7 115.378 493.385V493.385Z" fill="#E0E0E0"/>
<path d="M166.719 493.385C166.719 494.419 166.455 495.429 165.961 496.288C165.466 497.147 164.763 497.817 163.941 498.211C163.119 498.606 162.215 498.709 161.342 498.506C160.47 498.303 159.669 497.804 159.041 497.073C158.413 496.341 157.986 495.409 157.814 494.395C157.642 493.381 157.733 492.33 158.075 491.376C158.417 490.422 158.995 489.608 159.736 489.036C160.477 488.464 161.348 488.16 162.237 488.163C162.827 488.163 163.411 488.298 163.956 488.561C164.5 488.823 164.995 489.208 165.411 489.693C165.828 490.179 166.157 490.754 166.382 491.388C166.606 492.021 166.721 492.7 166.719 493.385V493.385Z" fill="#E0E0E0"/>
<path d="M272.975 500.317H247.344L244.716 443.849H275.604L272.975 500.317Z" fill="#EBEBEB"/>
<path d="M253.261 500.313H242.746V497.794L253.261 496.267V500.313Z" fill="#E0E0E0"/>
<path d="M248.621 439.267H271.701C272.747 439.267 273.75 439.749 274.49 440.608C275.229 441.468 275.645 442.633 275.645 443.848V443.848H244.704C244.704 442.633 245.119 441.468 245.859 440.608C246.598 439.749 247.601 439.267 248.647 439.267H248.621Z" fill="#E0E0E0"/>
<path d="M220.399 353.864H179.363V348.153L220.399 345.099V353.864Z" fill="#E0E0E0"/>
<path d="M281.072 359.681H159.713V379.196H281.072V359.681Z" fill="#F0F0F0"/>
<path d="M306.228 353.863H134.988V365.498H306.228V353.863Z" fill="#FAFAFA"/>
<path d="M290.323 500.317H298.052L284.671 365.499H275.602L290.323 500.317Z" fill="#E6E6E6"/>
<path d="M165.615 365.499H156.546L143.152 500.317H150.894L165.615 365.499Z" fill="#E6E6E6"/>
<path d="M261.947 350.961C258.442 330.744 254.937 310.516 251.432 290.279C250.932 287.393 247.12 288.614 247.62 291.5L257.623 349.281H235.935C235.412 349.281 234.91 349.522 234.541 349.952C234.171 350.382 233.963 350.964 233.963 351.572C233.963 352.179 234.171 352.762 234.541 353.191C234.91 353.621 235.412 353.862 235.935 353.862H260.028C260.331 353.859 260.631 353.776 260.902 353.619C261.174 353.462 261.412 353.235 261.597 352.955C261.782 352.676 261.909 352.351 261.97 352.005C262.031 351.659 262.023 351.302 261.947 350.961V350.961Z" fill="#E0E0E0"/>
<path d="M237.395 334.685L244.151 222.483C246.646 224.551 248.642 227.329 249.947 230.552C251.252 233.774 251.822 237.331 251.603 240.883L246.99 317.614C246.784 321.176 245.794 324.617 244.113 327.607C242.433 330.596 240.12 333.034 237.395 334.685Z" fill="#FAFAFA"/>
<path d="M290.038 321.247H279.049C276.944 321.247 275.238 323.229 275.238 325.675V349.435C275.238 351.88 276.944 353.863 279.049 353.863H290.038C292.143 353.863 293.85 351.88 293.85 349.435V325.675C293.85 323.229 292.143 321.247 290.038 321.247Z" fill="#F5F5F5"/>
<path d="M282.597 309.106C279.692 309.106 277.339 309.946 277.339 310.969C277.339 311.992 279.705 310.603 282.597 310.603C282.969 310.579 283.342 310.579 283.714 310.603V317.993H285.37V310.893C286.869 311.213 287.868 311.565 287.868 310.893C287.854 309.977 285.502 309.106 282.597 309.106Z" fill="#E0E0E0"/>
<path d="M287.513 315.673H281.585V322.56H287.513V315.673Z" fill="#F0F0F0"/>
<path d="M371.911 379.21H493.27V359.695H371.911V379.21Z" fill="#F0F0F0"/>
<path d="M346.752 365.513H517.993V353.878H346.752V365.513Z" fill="#FAFAFA"/>
<path d="M362.657 500.317H354.916L368.296 365.499H377.366L362.657 500.317Z" fill="#E6E6E6"/>
<path d="M487.368 365.499H496.437L509.818 500.317H502.076L487.368 365.499Z" fill="#E6E6E6"/>
<path d="M436.815 15.9712H433.884V121.684H436.815V15.9712Z" fill="#E0E0E0"/>
<path d="M398.802 142.054L435.369 76.1338L471.922 142.054H398.802Z" fill="#E0E0E0"/>
<path d="M197.724 15.9712H194.793V100.917H197.724V15.9712Z" fill="#E0E0E0"/>
<path d="M159.713 139.278L196.267 73.3582L232.82 139.278H159.713Z" fill="#FAFAFA"/>
<path d="M322.268 563.011C463.017 563.011 577.117 555.272 577.117 545.726C577.117 536.179 463.017 528.44 322.268 528.44C181.518 528.44 67.4178 536.179 67.4178 545.726C67.4178 555.272 181.518 563.011 322.268 563.011Z" fill="#F5F5F5"/>
<path opacity="0.2" d="M324.342 540.26V544.184C324.341 544.646 324.418 545.104 324.569 545.531C324.72 545.958 324.943 546.346 325.224 546.672C325.505 546.999 325.839 547.257 326.207 547.433C326.574 547.609 326.968 547.698 327.366 547.696H452.76C453.628 547.692 454.46 547.291 455.075 546.579C455.69 545.867 456.039 544.903 456.046 543.894V539.817C456.045 538.743 455.94 537.672 455.73 536.626C455.55 535.714 455.294 534.824 454.968 533.969L424.46 455.589H353.233L364.169 528.991C364.238 529.418 364.269 529.853 364.261 530.289C364.23 532.024 363.613 533.675 362.543 534.886C361.474 536.097 360.037 536.771 358.543 536.763H327.366C326.969 536.761 326.576 536.85 326.21 537.025C325.843 537.2 325.51 537.457 325.229 537.782C324.948 538.107 324.725 538.493 324.573 538.918C324.421 539.343 324.342 539.799 324.342 540.26Z" fill="white"/>
<path d="M458.99 533.984L428.496 455.589H424.461L454.955 533.984C455.67 535.817 456.042 537.805 456.046 539.817V543.879C456.046 544.891 455.7 545.862 455.084 546.578C454.467 547.294 453.632 547.696 452.76 547.696H456.795C457.226 547.696 457.653 547.597 458.051 547.405C458.449 547.213 458.81 546.932 459.114 546.577C459.418 546.223 459.659 545.802 459.823 545.339C459.987 544.875 460.07 544.379 460.068 543.879V539.817C460.068 537.806 459.701 535.818 458.99 533.984Z" fill="#263238"/>
<path opacity="0.3" d="M424.46 455.589H353.232L356.032 474.325H431.742L424.46 455.589Z" fill="black"/>
<path d="M564.868 195.802L547.781 423.322L545.704 450.9C545.399 454.397 544.002 457.642 541.776 460.023C539.55 462.403 536.65 463.754 533.625 463.818H229.682C228.259 463.845 226.848 463.52 225.541 462.865C224.235 462.209 223.064 461.238 222.105 460.016C221.146 458.795 220.423 457.35 219.982 455.778C219.541 454.206 219.393 452.543 219.548 450.9L221.625 423.322L238.712 195.802C239.017 192.307 240.416 189.062 242.642 186.684C244.868 184.306 247.768 182.96 250.792 182.899H554.682C557.072 182.869 559.396 183.808 561.254 185.556C561.506 185.79 561.743 186.046 561.964 186.319C562.655 187.111 563.235 188.023 563.685 189.022C564.004 189.689 564.256 190.396 564.435 191.129C564.834 192.641 564.981 194.227 564.868 195.802Z" fill="#263238"/>
<path d="M221.635 423.321L219.506 450.898C219.353 452.542 219.503 454.205 219.945 455.777C220.387 457.349 221.113 458.794 222.072 460.015C223.032 461.237 224.204 462.208 225.511 462.863C226.818 463.518 228.23 463.843 229.653 463.816H533.57C536.595 463.752 539.494 462.402 541.72 460.021C543.946 457.641 545.344 454.395 545.649 450.898L547.726 423.321H221.635Z" fill="#407BFF"/>
<path opacity="0.6" d="M221.635 423.321L219.506 450.898C219.353 452.542 219.503 454.205 219.945 455.777C220.387 457.349 221.113 458.794 222.072 460.015C223.032 461.237 224.204 462.208 225.511 462.863C226.818 463.518 228.23 463.843 229.653 463.816H533.57C536.595 463.752 539.494 462.402 541.72 460.021C543.946 457.641 545.344 454.395 545.649 450.898L547.726 423.321H221.635Z" fill="white"/>
<path d="M537.014 415.522H233.532C232.761 415.538 231.996 415.363 231.287 415.009C230.579 414.655 229.944 414.129 229.424 413.468C228.904 412.806 228.512 412.023 228.273 411.171C228.033 410.32 227.953 409.419 228.038 408.528L243.916 197.698C244.08 195.796 244.84 194.031 246.052 192.739C247.264 191.446 248.843 190.717 250.488 190.689H553.944C554.716 190.672 555.483 190.848 556.192 191.203C556.901 191.558 557.537 192.085 558.057 192.748C558.577 193.411 558.969 194.196 559.208 195.05C559.446 195.903 559.524 196.806 559.438 197.698L543.56 408.528C543.393 410.422 542.635 412.179 541.429 413.468C540.223 414.756 538.653 415.487 537.014 415.522Z" fill="#407BFF"/>
<path d="M561.447 182.898H554.678C556.1 182.869 557.511 183.191 558.818 183.845C560.124 184.499 561.296 185.468 562.254 186.689C563.213 187.91 563.937 189.354 564.378 190.925C564.819 192.496 564.967 194.158 564.812 195.801L545.648 450.899C545.343 454.396 543.945 457.641 541.719 460.022C539.493 462.402 536.593 463.753 533.568 463.817H540.285C543.311 463.753 546.213 462.403 548.441 460.023C550.669 457.643 552.069 454.397 552.377 450.899L571.581 195.801C571.738 194.158 571.592 192.495 571.152 190.922C570.712 189.35 569.988 187.905 569.029 186.684C568.069 185.462 566.897 184.493 565.589 183.84C564.282 183.187 562.87 182.866 561.447 182.898V182.898Z" fill="#263238"/>
<g opacity="0.2">
<path opacity="0.2" d="M561.449 182.898H554.68C556.102 182.869 557.514 183.191 558.82 183.845C560.126 184.499 561.298 185.468 562.257 186.689C563.216 187.91 563.94 189.354 564.38 190.925C564.821 192.496 564.969 194.158 564.814 195.801L545.65 450.899C545.345 454.396 543.947 457.641 541.721 460.022C539.496 462.402 536.596 463.753 533.571 463.817H540.287C543.314 463.753 546.215 462.403 548.443 460.023C550.671 457.643 552.072 454.397 552.38 450.899L571.583 195.801C571.741 194.158 571.594 192.495 571.154 190.922C570.714 189.35 569.99 187.905 569.031 186.684C568.072 185.462 566.899 184.493 565.592 183.84C564.284 183.187 562.872 182.866 561.449 182.898V182.898Z" fill="white"/>
</g>
<g opacity="0.1">
<path opacity="0.1" d="M347.163 190.688H335.491L294.363 415.52H306.035L347.163 190.688Z" fill="white"/>
<path opacity="0.1" d="M282.557 415.521L323.698 190.689H279.836L238.695 415.521H282.557Z" fill="white"/>
</g>
<path opacity="0.2" d="M434.372 540.29V544.015C434.372 544.989 434.04 545.923 433.449 546.612C432.858 547.302 432.056 547.691 431.218 547.695H327.38C326.578 547.695 325.809 547.325 325.242 546.667C324.675 546.008 324.357 545.115 324.357 544.183V540.274C324.357 539.343 324.675 538.45 325.242 537.791C325.809 537.132 326.578 536.762 327.38 536.762H358.571C358.964 536.763 359.356 536.717 359.74 536.625H431.231C432.065 536.629 432.864 537.017 433.453 537.704C434.042 538.391 434.372 539.32 434.372 540.29V540.29Z" fill="white"/>
<path opacity="0.2" d="M455.731 536.626H359.779C361.039 536.317 362.172 535.523 362.995 534.373C363.818 533.223 364.283 531.784 364.314 530.289H453.325L455.731 536.626Z" fill="black"/>
<path opacity="0.3" d="M546.49 227.808H400.434V423.292H546.49V227.808Z" fill="black"/>
<path d="M538.788 207.18H393.007V414.742H538.788V207.18Z" fill="white"/>
<path d="M538.788 207.18H393.007V219.457H538.788V207.18Z" fill="#263238"/>
<path opacity="0.1" d="M538.786 219.453H433.424V414.739H538.786V219.453Z" fill="black"/>
<path opacity="0.1" d="M468.217 224.127H438.617V263.89H468.217V224.127Z" fill="black"/>
<path opacity="0.1" d="M535.241 224.127H473.845V240.497H535.241V224.127Z" fill="black"/>
<path opacity="0.1" d="M535.241 247.523H473.845V335.813H535.241V247.523Z" fill="black"/>
<path opacity="0.1" d="M535.241 342.821H473.845V408.894H535.241V342.821Z" fill="black"/>
<path d="M473.858 279.084H433.098V294.293H473.858V279.084Z" fill="#407BFF"/>
<path d="M433.767 247.523H393.007V262.732H433.767V247.523Z" fill="#407BFF"/>
<path d="M535.241 357.297H473.845V365.192H535.241V357.297Z" fill="black"/>
<path d="M480.022 230.757L481.297 227.749L482.572 230.757L485.424 231.231L483.361 233.582L483.847 236.881L481.297 235.323L478.747 236.881L479.234 233.582L477.157 231.246L480.022 230.757Z" fill="#407BFF"/>
<path d="M491.641 230.757L492.916 227.749L494.204 230.757L497.056 231.231L494.993 233.582L495.479 236.881L492.929 235.323L490.366 236.881L490.852 233.582L488.789 231.246L491.641 230.757Z" fill="#407BFF"/>
<path d="M503.273 230.757L504.548 227.749L505.823 230.757L508.675 231.231L506.611 233.582L507.111 236.881L504.548 235.323L501.998 236.881L502.484 233.582L500.42 231.246L503.273 230.757Z" fill="#407BFF"/>
<path d="M514.892 230.757L516.167 227.749L517.456 230.757L520.308 231.231L518.244 233.582L518.73 236.881L516.181 235.323L513.631 236.881L514.104 233.582L512.04 231.246L514.892 230.757Z" fill="black"/>
<path d="M526.527 230.757L527.802 227.749L529.077 230.757L531.929 231.231L529.878 233.582L530.365 236.881L527.802 235.323L525.252 236.881L525.738 233.582L523.674 231.246L526.527 230.757Z" fill="black"/>
<path d="M502.366 255.31H478.221V256.837H502.366V255.31Z" fill="#263238"/>
<path d="M497.28 268.458H478.221V269.985H497.28V268.458Z" fill="#263238"/>
<path d="M497.28 279.953H478.221V281.48H497.28V279.953Z" fill="#263238"/>
<path d="M497.28 291.436H478.221V292.963H497.28V291.436Z" fill="#263238"/>
<path d="M497.28 302.922H478.221V304.449H497.28V302.922Z" fill="#263238"/>
<path d="M497.28 314.42H478.221V315.947H497.28V314.42Z" fill="#263238"/>
<path d="M497.28 325.901H478.221V327.428H497.28V325.901Z" fill="#263238"/>
<path d="M518.966 268.458H499.908V269.985H518.966V268.458Z" fill="#263238"/>
<path d="M518.966 279.953H499.908V281.48H518.966V279.953Z" fill="#263238"/>
<path d="M518.966 291.436H499.908V292.963H518.966V291.436Z" fill="#263238"/>
<path d="M518.966 302.922H499.908V304.449H518.966V302.922Z" fill="#263238"/>
<path d="M518.966 314.42H499.908V315.947H518.966V314.42Z" fill="#263238"/>
<path d="M518.966 325.901H499.908V327.428H518.966V325.901Z" fill="#263238"/>
<path d="M518.967 259.691H478.221V261.218H518.967V259.691Z" fill="#263238"/>
<path d="M518.967 350.379H478.221V351.906H518.967V350.379Z" fill="#263238"/>
<path d="M468.217 268.458H438.617V269.985H468.217V268.458Z" fill="#263238"/>
<path d="M468.217 301.912H438.617V303.439H468.217V301.912Z" fill="#263238"/>
<path d="M468.217 314.709H438.617V316.236H468.217V314.709Z" fill="#263238"/>
<path d="M468.217 327.49H438.617V329.017H468.217V327.49Z" fill="#263238"/>
<path d="M468.217 340.285H438.617V341.812H468.217V340.285Z" fill="#263238"/>
<path d="M468.217 353.083H438.617V354.61H468.217V353.083Z" fill="#263238"/>
<path d="M468.217 365.863H438.617V367.39H468.217V365.863Z" fill="#263238"/>
<path d="M468.217 378.661H438.617V380.188H468.217V378.661Z" fill="#263238"/>
<path d="M468.217 391.439H438.617V392.966H468.217V391.439Z" fill="#263238"/>
<path d="M453.417 273.391H438.617V274.918H453.417V273.391Z" fill="#263238"/>
<path d="M428.68 226.984H398.107V228.511H428.68V226.984Z" fill="#263238"/>
<path d="M428.68 236.85H398.107V238.377H428.68V236.85Z" fill="#263238"/>
<path d="M428.68 273.391H398.107V274.918H428.68V273.391Z" fill="#263238"/>
<path d="M438.669 263.694V258.854C447.934 255.006 458.043 254.882 467.376 258.502L468.27 258.854V263.694H438.669Z" fill="white"/>
<path d="M451.998 262.381C454.338 262.07 456.478 260.698 457.952 258.564C458.161 258.21 458.259 257.783 458.23 257.356C458.202 256.928 458.048 256.524 457.794 256.212C455.691 253.326 455.31 246.898 455.336 243.111L452.97 246.638L449.75 251.448C449.973 252.043 450.184 252.639 450.355 253.25C450.484 253.686 450.576 254.136 450.631 254.594V254.594C450.765 255.43 450.677 256.294 450.379 257.071C450.081 257.848 449.586 258.502 448.961 258.945C448.72 259.131 448.527 259.39 448.404 259.695C448.281 259.999 448.233 260.337 448.264 260.671C448.295 261.005 448.405 261.323 448.581 261.59C448.758 261.856 448.994 262.061 449.264 262.183C450.147 262.508 451.086 262.576 451.998 262.381Z" fill="#F7978D"/>
<path opacity="0.2" d="M449.752 251.445C449.976 252.04 450.186 252.636 450.357 253.246C450.486 253.683 450.578 254.133 450.633 254.59V254.59C451.433 254.141 452.12 253.46 452.627 252.612C453.134 251.764 453.443 250.778 453.525 249.75C453.485 249.155 453.393 248.566 453.249 247.994L449.752 251.445Z" fill="black"/>
<path d="M446.78 242.59C446.623 242.908 446.397 243.171 446.125 243.355C445.853 243.538 445.543 243.635 445.229 243.635C444.914 243.635 444.605 243.538 444.332 243.355C444.06 243.171 443.834 242.908 443.678 242.59C444.795 239.872 443.954 239.613 443.888 237.582C443.774 236.406 443.938 235.216 444.362 234.14C444.785 233.064 445.453 232.143 446.293 231.474H448.094C454.574 233.031 446.78 242.59 446.78 242.59Z" fill="#263238"/>
<path d="M457.206 236.086C457.005 235.14 456.647 234.248 456.15 233.463C455.653 232.677 455.028 232.013 454.31 231.508C453.593 231.004 452.796 230.668 451.967 230.521C451.138 230.374 450.292 230.417 449.477 230.65C444.443 231.933 442.34 239.965 442.497 245.111C442.523 246.595 442.93 248.036 443.667 249.249C444.147 250.033 444.756 250.699 445.458 251.21C446.16 251.72 446.942 252.065 447.758 252.224C448.575 252.383 449.411 252.353 450.218 252.136C451.025 251.919 451.787 251.519 452.461 250.959C455.379 248.608 455.878 245.355 457.14 239.904C457.444 238.659 457.466 237.344 457.206 236.086V236.086Z" fill="#F7978D"/>
<path d="M444.703 245.567C446.321 245.189 447.97 245.02 449.619 245.063C449.481 245.839 449.105 246.529 448.561 247.007C448.017 247.484 447.342 247.716 446.662 247.659C446.189 247.697 445.722 247.519 445.361 247.162C445 246.805 444.773 246.299 444.73 245.75C444.73 245.75 444.716 245.628 444.703 245.567Z" fill="#263238"/>
<path d="M447.463 246.53C446.744 246.493 446.036 246.752 445.465 247.263C445.813 247.536 446.229 247.67 446.648 247.645C447.365 247.689 448.07 247.429 448.633 246.912C448.29 246.639 447.879 246.504 447.463 246.53Z" fill="#FF5652"/>
<path d="M444.876 245.522C444.914 245.687 444.99 245.838 445.097 245.956C445.203 246.075 445.336 246.157 445.48 246.193C446.554 246.165 447.623 246.022 448.674 245.766C448.846 245.735 449.008 245.653 449.144 245.527C449.28 245.401 449.386 245.236 449.45 245.048C447.916 245.053 446.386 245.211 444.876 245.522Z" fill="white"/>
<path d="M455.468 247.124C455.468 247.124 453.378 241.627 453.549 239.84C453.591 238.776 453.907 237.751 454.455 236.897C455.003 236.042 455.759 235.398 456.624 235.046L458.386 235.473C466.048 239.153 455.468 247.124 455.468 247.124Z" fill="#263238"/>
<path d="M445.875 243.905C445.551 243.936 445.225 243.884 444.921 243.752C444.617 243.62 444.341 243.412 444.114 243.142C445.082 242.143 445.931 240.998 446.637 239.737L445.875 243.905Z" fill="#FF5652"/>
<path d="M457.096 241.261C455.887 241.047 454.599 242.788 454.073 244.04C453.547 245.292 453.889 246.788 455.164 246.452C456.177 246.132 457.065 245.415 457.674 244.421C458.45 243.139 458.292 241.459 457.096 241.261Z" fill="#F7978D"/>
<path d="M449.422 239.614C449.159 239.614 448.883 239.935 448.817 240.347C448.751 240.759 448.896 241.156 449.145 241.202C449.395 241.248 449.632 240.927 449.737 240.484C449.842 240.042 449.671 239.736 449.422 239.614Z" fill="#263238"/>
<path d="M445.097 238.498C444.847 238.498 444.571 238.757 444.492 239.215C444.414 239.674 444.558 240.071 444.808 240.116C445.058 240.162 445.334 239.841 445.412 239.383C445.491 238.925 445.347 238.544 445.097 238.498Z" fill="#263238"/>
<path d="M446.057 236.758C446.025 236.777 445.989 236.786 445.952 236.786C445.916 236.786 445.88 236.777 445.847 236.758C445.566 236.648 445.267 236.614 444.973 236.659C444.679 236.704 444.398 236.827 444.151 237.017C444.11 237.066 444.053 237.093 443.994 237.093C443.935 237.093 443.878 237.066 443.836 237.017C443.799 236.963 443.778 236.896 443.778 236.826C443.778 236.757 443.799 236.69 443.836 236.636C444.142 236.393 444.492 236.234 444.859 236.174C445.226 236.113 445.6 236.151 445.952 236.284C446.008 236.309 446.055 236.357 446.082 236.419C446.108 236.481 446.114 236.553 446.097 236.62C446.092 236.669 446.079 236.716 446.057 236.758V236.758Z" fill="#263238"/>
<path d="M450.764 238.957C450.685 238.953 450.61 238.915 450.554 238.85C450.392 238.565 450.177 238.326 449.924 238.151C449.672 237.977 449.388 237.871 449.095 237.842C449.065 237.844 449.034 237.839 449.006 237.827C448.977 237.815 448.951 237.796 448.929 237.772C448.906 237.747 448.889 237.718 448.877 237.686C448.865 237.653 448.858 237.618 448.859 237.583V237.583C448.862 237.515 448.886 237.451 448.928 237.403C448.969 237.355 449.024 237.327 449.082 237.323V237.323C449.451 237.347 449.81 237.47 450.131 237.682C450.453 237.894 450.728 238.189 450.935 238.545C450.975 238.597 450.997 238.665 450.997 238.735C450.997 238.806 450.975 238.873 450.935 238.926C450.91 238.945 450.882 238.958 450.853 238.963C450.823 238.968 450.793 238.966 450.764 238.957V238.957Z" fill="#263238"/>
<path d="M445.045 234.39C444.807 233.397 444.732 232.361 444.821 231.336C444.956 230.824 445.183 230.351 445.486 229.948C445.79 229.546 446.163 229.222 446.583 229C447.902 228.502 449.324 228.502 450.644 229C450.963 229.056 451.271 229.18 451.551 229.366C451.695 229.457 451.815 229.592 451.898 229.756C451.982 229.92 452.025 230.107 452.024 230.298C452.002 230.487 451.937 230.667 451.836 230.817C451.734 230.967 451.599 231.083 451.446 231.153C451.143 231.321 448.817 231.962 447.765 232.405C446.733 232.801 445.8 233.482 445.045 234.39V234.39Z" fill="#263238"/>
<path d="M459.858 231.43C460.706 232.353 461.296 233.552 461.549 234.871C461.802 236.189 461.708 237.565 461.277 238.82C460.909 239.705 460.501 240.566 460.055 241.401L456.795 238.805C455.31 237.884 454.154 236.38 453.535 234.56C453.2 233.603 452.586 232.812 451.801 232.327C451.015 231.841 450.108 231.691 449.237 231.903C448.79 232.01 448.173 232.117 447.923 231.628C447.673 231.14 448.383 230.101 448.882 229.659C450.841 227.643 454.456 226.559 459.858 231.43Z" fill="#263238"/>
<path opacity="0.2" d="M453.47 234.298C452.261 231.855 450.723 231.626 448.686 231.992C448.701 231.699 448.767 231.413 448.88 231.15C448.993 230.888 449.15 230.655 449.343 230.465C450.947 228.938 453.129 232.527 453.47 234.298Z" fill="black"/>
<path d="M447.793 231.596C447.636 231.796 447.523 232.037 447.464 232.299C447.311 232.979 447.279 233.689 447.369 234.385C447.46 235.08 447.671 235.747 447.99 236.345C447.466 235.671 447.091 234.859 446.899 233.978C446.739 233.438 446.654 232.87 446.649 232.299C446.659 231.727 446.856 231.18 447.201 230.772C447.372 230.579 447.586 230.448 447.82 230.394C448.053 230.34 448.294 230.365 448.516 230.466C448.778 230.619 449.225 231.199 448.91 231.474C448.594 231.749 448.213 231.108 447.793 231.596Z" fill="#263238"/>
<path opacity="0.3" d="M444.871 185.927V340.839H298.828V145.355H437.195V185.927H444.871Z" fill="black"/>
<path d="M437.197 124.71H291.417V332.272H437.197V124.71Z" fill="white"/>
<path d="M437.183 124.71H291.403V136.987H437.183V124.71Z" fill="#263238"/>
<path opacity="0.1" d="M437.198 136.986H331.835V332.272H437.198V136.986Z" fill="black"/>
<path opacity="0.1" d="M366.601 141.658H337.014V181.42H366.601V141.658Z" fill="black"/>
<path opacity="0.1" d="M433.647 141.658H372.252V158.027H433.647V141.658Z" fill="black"/>
<path opacity="0.1" d="M433.647 165.054H372.252V253.344H433.647V165.054Z" fill="black"/>
<path opacity="0.1" d="M433.647 260.349H372.252V326.421H433.647V260.349Z" fill="black"/>
<path d="M372.252 196.626H331.492V211.834H372.252V196.626Z" fill="#407BFF"/>
<path d="M332.162 165.054H291.402V180.262H332.162V165.054Z" fill="#407BFF"/>
<path d="M433.647 274.828H372.252V282.722H433.647V274.828Z" fill="black"/>
<path d="M378.416 148.285L379.691 145.277L380.966 148.285L383.818 148.774L381.754 151.11L382.254 154.408L379.691 152.851L377.141 154.423L377.627 151.11L375.563 148.774L378.416 148.285Z" fill="#407BFF"/>
<path d="M390.049 148.285L391.31 145.277L392.599 148.285L395.451 148.774L393.387 151.11L393.873 154.408L391.324 152.851L388.774 154.423L389.26 151.11L387.183 148.774L390.049 148.285Z" fill="#407BFF"/>
<path d="M401.667 148.285L402.942 145.277L404.217 148.285L407.083 148.774L405.019 151.11L405.505 154.408L402.942 152.851L400.392 154.423L400.879 151.11L398.815 148.774L401.667 148.285Z" fill="#407BFF"/>
<path d="M413.3 148.285L414.575 145.277L415.85 148.285L418.702 148.774L416.639 151.11L417.138 154.408L414.575 152.851L412.025 154.423L412.511 151.11L410.435 148.774L413.3 148.285Z" fill="black"/>
<path d="M424.919 148.285L426.194 145.277L427.482 148.285L430.334 148.774L428.271 151.11L428.757 154.408L426.207 152.851L423.644 154.423L424.13 151.11L422.067 148.774L424.919 148.285Z" fill="black"/>
<path d="M400.761 172.84H376.615V174.367H400.761V172.84Z" fill="#263238"/>
<path d="M395.674 186H376.615V187.527H395.674V186Z" fill="#263238"/>
<path d="M395.674 197.486H376.615V199.013H395.674V197.486Z" fill="#263238"/>
<path d="M395.674 208.967H376.615V210.494H395.674V208.967Z" fill="#263238"/>
<path d="M395.674 220.467H376.615V221.994H395.674V220.467Z" fill="#263238"/>
<path d="M395.674 231.948H376.615V233.475H395.674V231.948Z" fill="#263238"/>
<path d="M395.674 243.448H376.615V244.975H395.674V243.448Z" fill="#263238"/>
<path d="M417.361 186H398.302V187.527H417.361V186Z" fill="#263238"/>
<path d="M417.361 197.486H398.302V199.013H417.361V197.486Z" fill="#263238"/>
<path d="M417.361 208.967H398.302V210.494H417.361V208.967Z" fill="#263238"/>
<path d="M417.361 220.467H398.302V221.994H417.361V220.467Z" fill="#263238"/>
<path d="M417.361 231.948H398.302V233.475H417.361V231.948Z" fill="#263238"/>
<path d="M417.361 243.448H398.302V244.975H417.361V243.448Z" fill="#263238"/>
<path d="M417.362 177.222H376.615V178.749H417.362V177.222Z" fill="#263238"/>
<path d="M417.362 267.924H376.615V269.451H417.362V267.924Z" fill="#263238"/>
<path d="M366.614 186H337.014V187.527H366.614V186Z" fill="#263238"/>
<path d="M366.614 219.442H337.014V220.969H366.614V219.442Z" fill="#263238"/>
<path d="M366.614 232.24H337.014V233.767H366.614V232.24Z" fill="#263238"/>
<path d="M366.614 245.035H337.014V246.562H366.614V245.035Z" fill="#263238"/>
<path d="M366.614 257.815H337.014V259.342H366.614V257.815Z" fill="#263238"/>
<path d="M366.614 270.61H337.014V272.137H366.614V270.61Z" fill="#263238"/>
<path d="M366.614 283.408H337.014V284.935H366.614V283.408Z" fill="#263238"/>
<path d="M366.614 296.189H337.014V297.716H366.614V296.189Z" fill="#263238"/>
<path d="M366.614 308.983H337.014V310.51H366.614V308.983Z" fill="#263238"/>
<path d="M351.814 190.935H337.014V192.462H351.814V190.935Z" fill="#263238"/>
<path d="M327.074 144.511H296.501V146.038H327.074V144.511Z" fill="#263238"/>
<path d="M327.074 154.391H296.501V155.918H327.074V154.391Z" fill="#263238"/>
<path d="M327.074 190.935H296.501V192.462H327.074V190.935Z" fill="#263238"/>
<path d="M337.09 181.286V176.445C346.351 172.598 356.455 172.474 365.784 176.094L366.678 176.445V181.286H337.09Z" fill="#263238"/>
<path d="M356.374 163.879L353.259 166.749L349.04 170.659C349.28 171.229 349.431 171.844 349.487 172.476C349.622 173.157 349.541 173.872 349.258 174.489C348.975 175.106 348.511 175.584 347.949 175.835C347.37 176.003 346.634 179.164 350.118 179.591C351.116 179.791 352.139 179.749 353.123 179.468C354.107 179.186 355.03 178.672 355.835 177.958C356.637 177.102 356.887 176.599 356.414 175.362C355.02 171.88 355.586 167.391 356.374 163.879Z" fill="#DD8C6A"/>
<path opacity="0.2" d="M350.065 169.695L352.799 166.793C352.793 166.91 352.793 167.028 352.799 167.145C352.834 167.653 352.834 168.164 352.799 168.672C352.581 169.627 352.168 170.507 351.593 171.236C351.018 171.964 350.3 172.52 349.5 172.856V172.489C349.434 171.901 349.301 171.326 349.105 170.779V170.687L350.065 169.695Z" fill="black"/>
<path d="M347.907 161.309C346.421 156.132 347.236 153.491 345.527 150.62C344.502 149.857 342.281 151.857 343.017 156.087C343.753 160.316 347.907 161.309 347.907 161.309Z" fill="#263238"/>
<path d="M357.149 157.522C356.662 163.141 356.57 166.439 354.02 169.142C350.169 173.219 344.294 170.196 343.361 164.561C342.506 159.415 343.505 151.109 348.342 149.291C350.04 148.64 351.891 148.798 353.488 149.732C355.085 150.665 356.298 152.297 356.86 154.269C357.155 155.317 357.254 156.426 357.149 157.522V157.522Z" fill="#DD8C6A"/>
<path d="M357.056 162.563L354.953 162.701L354.546 158.96L352.6 157.158L352.048 151.31C352.048 151.31 356.491 151.31 358.2 151.31C358.804 151.31 360.618 153.554 360.828 154.363C361.077 155.534 361.042 156.761 360.726 157.91C360.411 159.058 359.827 160.082 359.041 160.868C358.432 161.512 357.767 162.08 357.056 162.563V162.563Z" fill="#263238"/>
<path d="M357.124 153.629C355.888 154.378 354.35 153.553 353.023 153.125C351.701 152.646 350.359 152.249 349.001 151.934C347.811 151.649 346.573 151.877 345.518 152.576C345.007 152.941 344.628 153.51 344.451 154.175C344.275 154.841 344.313 155.559 344.558 156.195C343.816 155.744 343.18 155.09 342.705 154.288C342.23 153.486 341.931 152.562 341.834 151.596C341.737 150.63 341.844 149.65 342.147 148.743C342.45 147.836 342.939 147.029 343.572 146.391C344.785 145.262 346.29 144.638 347.844 144.62C349.387 144.611 350.925 144.8 352.431 145.185C354.442 145.597 357.334 145.567 359.187 146.559C361.041 147.552 360.87 151.354 357.124 153.629Z" fill="#263238"/>
<path d="M358.977 161.951C358.675 163.164 358.002 164.207 357.084 164.883C355.888 165.738 354.85 164.288 354.955 162.7C355.06 161.112 355.993 159.34 357.295 159.142C358.596 158.943 359.332 160.44 358.977 161.951Z" fill="#DD8C6A"/>
<path d="M349.473 159.28C349.473 159.754 349.262 160.135 348.999 160.151C348.737 160.166 348.539 159.799 348.513 159.326C348.487 158.853 348.737 158.456 348.999 158.456C349.262 158.456 349.473 158.807 349.473 159.28Z" fill="#263238"/>
<path d="M344.898 159.448C344.898 159.921 344.688 160.318 344.425 160.318C344.162 160.318 343.939 159.952 343.939 159.494C343.939 159.036 344.162 158.639 344.425 158.623C344.688 158.608 344.898 158.974 344.898 159.448Z" fill="#263238"/>
<path d="M346.372 159.736C346.031 161.007 345.545 162.219 344.926 163.34C345.174 163.509 345.451 163.612 345.738 163.641C346.025 163.671 346.313 163.625 346.582 163.508L346.372 159.736Z" fill="#FF5652"/>
<path d="M347.002 166.256C347.471 166.256 347.934 166.147 348.366 165.934C348.797 165.722 349.187 165.41 349.513 165.019C349.533 164.99 349.544 164.954 349.541 164.916C349.539 164.879 349.524 164.845 349.499 164.82C349.475 164.796 349.443 164.784 349.411 164.787C349.379 164.79 349.349 164.807 349.329 164.835C348.971 165.256 348.535 165.577 348.054 165.772C347.574 165.968 347.061 166.034 346.555 165.965C346.54 165.961 346.523 165.96 346.508 165.963C346.492 165.966 346.477 165.973 346.463 165.983C346.45 165.993 346.438 166.006 346.429 166.021C346.42 166.037 346.414 166.054 346.411 166.072C346.407 166.111 346.415 166.149 346.435 166.18C346.454 166.211 346.483 166.233 346.516 166.24V166.24C346.677 166.261 346.84 166.267 347.002 166.256Z" fill="#263238"/>
<path d="M350.368 157.584C350.407 157.596 350.447 157.596 350.486 157.584C350.509 157.56 350.527 157.53 350.54 157.497C350.552 157.465 350.558 157.429 350.558 157.393C350.558 157.357 350.552 157.322 350.54 157.289C350.527 157.256 350.509 157.227 350.486 157.202C350.26 156.858 349.964 156.584 349.625 156.405C349.285 156.227 348.913 156.149 348.541 156.179C348.477 156.187 348.418 156.223 348.377 156.28C348.335 156.337 348.314 156.41 348.318 156.485V156.485C348.321 156.521 348.33 156.556 348.345 156.588C348.36 156.62 348.381 156.648 348.405 156.671C348.429 156.693 348.458 156.71 348.488 156.72C348.518 156.73 348.549 156.733 348.58 156.729C348.872 156.714 349.162 156.78 349.427 156.92C349.692 157.061 349.924 157.273 350.105 157.538C350.139 157.578 350.183 157.603 350.23 157.612C350.277 157.62 350.326 157.61 350.368 157.584V157.584Z" fill="#263238"/>
<path d="M344.873 156.395C344.884 156.35 344.884 156.303 344.873 156.258C344.87 156.222 344.86 156.186 344.845 156.155C344.83 156.123 344.81 156.094 344.786 156.072C344.761 156.049 344.733 156.032 344.703 156.022C344.673 156.012 344.641 156.009 344.61 156.013C344.238 156.034 343.876 156.163 343.557 156.387C343.238 156.611 342.972 156.923 342.783 157.296C342.767 157.328 342.757 157.363 342.752 157.4C342.748 157.437 342.751 157.474 342.759 157.51C342.768 157.545 342.782 157.579 342.802 157.607C342.822 157.636 342.847 157.66 342.875 157.678C342.933 157.71 342.999 157.716 343.061 157.693C343.122 157.67 343.173 157.621 343.204 157.556C343.355 157.263 343.566 157.02 343.818 156.846C344.071 156.673 344.357 156.576 344.65 156.563C344.697 156.564 344.744 156.549 344.784 156.519C344.823 156.489 344.855 156.446 344.873 156.395V156.395Z" fill="#263238"/>
<path opacity="0.3" d="M383.646 228.267H237.589V423.751H383.646V228.267Z" fill="black"/>
<path d="M375.945 207.622H230.165V415.185H375.945V207.622Z" fill="white"/>
<path d="M375.945 207.622H230.165V219.899H375.945V207.622Z" fill="#263238"/>
<path opacity="0.1" d="M375.961 219.915H270.599V415.201H375.961V219.915Z" fill="black"/>
<path opacity="0.1" d="M305.362 224.587H275.775V264.349H305.362V224.587Z" fill="black"/>
<path opacity="0.1" d="M372.411 224.587H311.015V240.956H372.411V224.587Z" fill="black"/>
<path opacity="0.1" d="M372.411 247.966H311.015V336.256H372.411V247.966Z" fill="black"/>
<path opacity="0.1" d="M372.411 343.278H311.015V409.35H372.411V343.278Z" fill="black"/>
<path d="M311.013 279.543H270.254V294.752H311.013V279.543Z" fill="#407BFF"/>
<path d="M270.925 247.966H230.165V263.175H270.925V247.966Z" fill="#407BFF"/>
<path d="M372.411 357.74H311.015V365.635H372.411V357.74Z" fill="black"/>
<path d="M317.177 231.211L318.452 228.203L319.727 231.211L322.592 231.684L320.515 234.021L321.015 237.334L318.452 235.777L315.902 237.334L316.388 234.036L314.324 231.7L317.177 231.211Z" fill="#407BFF"/>
<path d="M328.812 231.211L330.087 228.203L331.362 231.211L334.214 231.684L332.151 234.021L332.637 237.334L330.087 235.777L327.537 237.334L328.023 234.036L325.947 231.7L328.812 231.211Z" fill="#407BFF"/>
<path d="M340.431 231.211L341.706 228.203L342.981 231.211L345.846 231.684L343.782 234.021L344.269 237.334L341.719 235.777L339.156 237.334L339.642 234.036L337.578 231.7L340.431 231.211Z" fill="#407BFF"/>
<path d="M352.063 231.211L353.337 228.203L354.612 231.211L357.465 231.684L355.401 234.021L355.887 237.334L353.337 235.777L350.788 237.334L351.274 234.036L349.21 231.7L352.063 231.211Z" fill="#407BFF"/>
<path d="M363.682 231.211L364.957 228.203L366.245 231.211L369.098 231.684L367.034 234.021L367.52 237.334L364.97 235.777L362.42 237.334L362.894 234.036L360.83 231.7L363.682 231.211Z" fill="black"/>
<path d="M339.524 255.766H315.379V257.293H339.524V255.766Z" fill="#263238"/>
<path d="M334.438 268.915H315.379V270.442H334.438V268.915Z" fill="#263238"/>
<path d="M334.438 280.412H315.379V281.939H334.438V280.412Z" fill="#263238"/>
<path d="M334.438 291.898H315.379V293.425H334.438V291.898Z" fill="#263238"/>
<path d="M334.438 303.376H315.379V304.903H334.438V303.376Z" fill="#263238"/>
<path d="M334.438 314.877H315.379V316.404H334.438V314.877Z" fill="#263238"/>
<path d="M334.438 326.36H315.379V327.887H334.438V326.36Z" fill="#263238"/>
<path d="M356.136 268.915H337.078V270.442H356.136V268.915Z" fill="#263238"/>
<path d="M356.136 280.412H337.078V281.939H356.136V280.412Z" fill="#263238"/>
<path d="M356.136 291.898H337.078V293.425H356.136V291.898Z" fill="#263238"/>
<path d="M356.136 303.376H337.078V304.903H356.136V303.376Z" fill="#263238"/>
<path d="M356.136 314.877H337.078V316.404H356.136V314.877Z" fill="#263238"/>
<path d="M356.136 326.36H337.078V327.887H356.136V326.36Z" fill="#263238"/>
<path d="M356.125 260.151H315.379V261.678H356.125V260.151Z" fill="#263238"/>
<path d="M356.125 350.839H315.379V352.366H356.125V350.839Z" fill="#263238"/>
<path d="M305.375 268.915H275.775V270.442H305.375V268.915Z" fill="#263238"/>
<path d="M305.375 302.371H275.775V303.898H305.375V302.371Z" fill="#263238"/>
<path d="M305.375 315.169H275.775V316.696H305.375V315.169Z" fill="#263238"/>
<path d="M305.375 327.947H275.775V329.474H305.375V327.947Z" fill="#263238"/>
<path d="M305.375 340.744H275.775V342.271H305.375V340.744Z" fill="#263238"/>
<path d="M305.375 353.522H275.775V355.049H305.375V353.522Z" fill="#263238"/>
<path d="M305.375 366.32H275.775V367.847H305.375V366.32Z" fill="#263238"/>
<path d="M305.375 379.115H275.775V380.642H305.375V379.115Z" fill="#263238"/>
<path d="M305.375 391.898H275.775V393.425H305.375V391.898Z" fill="#263238"/>
<path d="M290.575 273.848H275.775V275.375H290.575V273.848Z" fill="#263238"/>
<path d="M265.838 227.443H235.265V228.97H265.838V227.443Z" fill="#263238"/>
<path d="M265.838 237.306H235.265V238.833H265.838V237.306Z" fill="#263238"/>
<path d="M265.838 273.848H235.265V275.375H265.838V273.848Z" fill="#263238"/>
<path d="M275.775 264.349V259.494C285.042 255.661 295.146 255.538 304.481 259.142L305.375 259.494V264.349H275.775Z" fill="#407BFF"/>
<path d="M287.987 229.595C287.045 229.289 286.054 229.242 285.093 229.46C284.132 229.677 283.228 230.152 282.454 230.847C280.902 232.246 279.707 234.11 278.997 236.237C278.726 236.786 278.583 237.407 278.583 238.039C278.583 238.671 278.726 239.293 278.997 239.841C279.693 240.864 281.034 240.803 282.164 240.65C283.913 236.802 285.989 233.29 287.987 229.595Z" fill="#263238"/>
<path d="M286.948 252.804C287.789 255.156 288.262 257.782 285.633 259.889C285.092 260.324 284.693 260.959 284.503 261.691C284.227 262.882 284.582 264.226 288.38 262.852C293.874 260.867 294.242 257.003 294.242 257.003C291.903 255.4 291.614 248.788 291.824 245.093L286.948 252.804Z" fill="#FFB573"/>
<path opacity="0.2" d="M290.482 250.315C290.482 251.934 288.668 253.965 287.433 254.621C287.314 253.993 287.142 253.379 286.92 252.789L289.838 248.208C290.179 248.849 290.398 249.568 290.482 250.315V250.315Z" fill="black"/>
<path d="M294.875 236.206C294.613 235.201 294.184 234.265 293.61 233.453C293.037 232.641 292.332 231.968 291.535 231.473C290.737 230.978 289.864 230.671 288.964 230.568C288.065 230.466 287.156 230.571 286.292 230.877C281.152 232.648 279.72 241.26 280.311 246.65C280.981 252.682 286.988 255.095 291.208 250.972C294.034 248.223 294.27 245.734 295.072 239.901C295.25 238.668 295.183 237.404 294.875 236.206V236.206Z" fill="#FFB573"/>
<path d="M283.385 244.848C283.117 244.893 282.843 244.871 282.583 244.784C282.322 244.697 282.08 244.547 281.873 244.344C282.604 243.431 283.219 242.403 283.7 241.29L283.385 244.848Z" fill="#ED893E"/>
<path d="M287.25 245.69C287.27 245.662 287.281 245.627 287.281 245.591C287.281 245.554 287.27 245.519 287.25 245.492C287.239 245.478 287.225 245.467 287.211 245.46C287.196 245.453 287.18 245.449 287.164 245.449C287.148 245.449 287.132 245.453 287.118 245.46C287.103 245.467 287.09 245.478 287.079 245.492C286.73 245.929 286.297 246.264 285.814 246.469C285.332 246.673 284.815 246.741 284.305 246.667C284.273 246.67 284.243 246.685 284.219 246.71C284.196 246.735 284.18 246.768 284.174 246.805V246.805C284.173 246.84 284.183 246.875 284.203 246.903C284.222 246.931 284.249 246.95 284.279 246.957C284.476 246.973 284.674 246.973 284.871 246.957C285.776 246.912 286.629 246.457 287.25 245.69V245.69Z" fill="#263238"/>
<path d="M283.318 231.579C284.241 231.505 285.162 231.757 285.96 232.302C286.757 232.847 287.394 233.66 287.787 234.633C288.102 235.585 288.332 236.573 288.471 237.58C288.612 238.595 288.989 239.545 289.562 240.329C289.857 240.707 290.247 240.967 290.677 241.071C291.106 241.175 291.554 241.119 291.954 240.909C292.192 241.806 292.631 242.613 293.227 243.247C293.824 243.881 294.555 244.318 295.345 244.513C294.215 246.422 292.808 248.422 291.678 250.331C292.085 251.858 292.125 252.102 292.532 253.583C293.941 253.06 295.247 252.219 296.374 251.108C297.502 249.997 298.43 248.638 299.104 247.109C300.419 244.055 300.708 240.222 298.211 240.13C299.091 238.069 297.474 233.748 296.147 232.037C294.913 230.751 293.443 229.808 291.849 229.279C290.255 228.75 288.579 228.649 286.946 228.983C285.513 229.329 284.229 230.248 283.318 231.579Z" fill="#263238"/>
<path d="M296.266 244.025C296.31 243.518 296.18 243.01 295.905 242.613C295.629 242.216 295.23 241.961 294.793 241.903C293.479 241.781 292.572 243.537 292.309 244.804C292.046 246.072 292.704 247.461 293.939 246.973C294.865 246.597 295.625 245.812 296.055 244.789C296.172 244.555 296.244 244.295 296.266 244.025V244.025Z" fill="#FFB573"/>
<path d="M288.236 238.406C288.275 238.417 288.315 238.417 288.354 238.406C288.398 238.35 288.423 238.277 288.423 238.2C288.423 238.124 288.398 238.05 288.354 237.994V237.994C288.067 237.567 287.694 237.227 287.268 237.007C286.841 236.786 286.375 236.689 285.909 236.727C285.877 236.73 285.845 236.742 285.817 236.76C285.789 236.779 285.764 236.804 285.744 236.834C285.724 236.864 285.71 236.898 285.702 236.935C285.695 236.972 285.693 237.01 285.699 237.047C285.702 237.084 285.712 237.119 285.727 237.151C285.742 237.183 285.762 237.211 285.787 237.233C285.811 237.256 285.839 237.273 285.869 237.283C285.899 237.293 285.931 237.296 285.962 237.292C286.346 237.275 286.728 237.363 287.077 237.549C287.426 237.734 287.733 238.012 287.973 238.361C288.009 238.396 288.052 238.419 288.099 238.428C288.145 238.436 288.193 238.428 288.236 238.406V238.406Z" fill="#263238"/>
<path d="M280.626 238.711C280.667 238.699 280.704 238.672 280.731 238.635C280.966 238.282 281.27 237.999 281.617 237.808C281.964 237.617 282.345 237.523 282.729 237.535C282.762 237.54 282.795 237.536 282.827 237.525C282.859 237.515 282.888 237.497 282.914 237.473C282.939 237.448 282.961 237.419 282.976 237.385C282.992 237.351 283.002 237.314 283.005 237.276V237.276C283.006 237.198 282.982 237.123 282.939 237.064C282.895 237.005 282.835 236.966 282.769 236.955C282.303 236.935 281.839 237.043 281.417 237.271C280.994 237.5 280.624 237.841 280.337 238.268C280.293 238.314 280.266 238.376 280.26 238.444C280.253 238.511 280.269 238.579 280.303 238.634C280.338 238.689 280.388 238.728 280.445 238.742C280.503 238.756 280.562 238.745 280.613 238.711H280.626Z" fill="#263238"/>
<path d="M287.025 239.855C287.025 240.374 286.749 240.802 286.446 240.786C286.144 240.771 285.921 240.328 285.947 239.794C285.973 239.26 286.223 238.862 286.512 238.862C286.801 238.862 287.038 239.321 287.025 239.855Z" fill="#263238"/>
<path d="M282.451 240.3C282.451 240.804 282.188 241.201 281.899 241.185C281.61 241.17 281.413 240.758 281.426 240.239C281.439 239.719 281.689 239.338 281.978 239.353C282.267 239.368 282.477 239.735 282.451 240.3Z" fill="#263238"/>
<path d="M282.098 239.381L281.073 238.985C281.073 238.985 281.572 239.959 282.098 239.381Z" fill="#263238"/>
<path d="M286.644 238.908L285.566 238.481C285.566 238.481 286.092 239.503 286.644 238.908Z" fill="#263238"/>
<path d="M119.139 297.759C108.966 297.759 108.966 287.635 108.966 287.635L195.388 179.708L195.835 177.372L200.79 182.732C200.752 182.813 200.708 182.889 200.659 182.961C200.383 183.556 124.87 297.759 119.139 297.759Z" fill="#263238"/>
<g opacity="0.5">
<path opacity="0.4" d="M249.252 155.047C237.909 175.417 218.916 191.053 206.968 183.8C207.029 183.733 207.074 183.649 207.099 183.556L200.527 179.403C196.124 174.822 193.64 168.088 193.009 160.178C192.01 147.962 195.335 133.181 202.591 119.484C215.38 95.327 236.226 84.5923 245.848 91.2652C247.42 92.3561 248.939 93.5491 250.396 94.8383H250.461C251.735 95.8104 252.943 96.8925 254.076 98.0755C254.612 98.6866 255.097 99.3565 255.522 100.076C257.972 104.227 259.366 109.095 259.544 114.124C260.438 125.973 257.06 141.075 249.252 155.047Z" fill="white"/>
</g>
<path opacity="0.2" d="M259.558 113.833L200.542 179.035C196.138 174.455 193.654 167.721 193.01 159.811V159.689L255.497 99.7851C257.955 103.935 259.362 108.802 259.558 113.833V113.833Z" fill="white"/>
<path d="M253.749 157.123C268.089 130.217 266.302 98.6853 249.688 86.7443C233.074 74.8033 208.008 86.9886 193.655 113.879C179.683 140.112 181.01 170.667 196.402 183.28C196.822 183.662 197.256 183.967 197.716 184.303C199.512 185.6 201.442 186.626 203.46 187.357C219.667 193.404 240.96 181.112 253.749 157.123ZM205.642 182.288C204.722 181.992 203.839 181.561 203.013 181.005C202.884 180.944 202.761 180.867 202.645 180.776L202.093 180.364L201.935 180.241C201.145 179.659 200.402 178.994 199.714 178.256C189.514 167.476 190.513 141.609 202.593 119.116C215.461 95.0053 236.517 84.3317 245.39 90.4244C246.833 91.4244 248.228 92.5152 249.569 93.6921V93.6921C250.256 94.2439 250.891 94.8786 251.462 95.5855C259.349 105.16 256.917 128.706 245.087 150.893C233.258 173.08 216.552 185.983 205.642 182.288V182.288Z" fill="#263238"/>
<g opacity="0.4">
<path opacity="0.4" d="M249.212 154.65C237.856 175.065 218.876 190.702 206.928 183.418C206.989 183.351 207.034 183.267 207.06 183.174L205.653 182.273C216.536 185.983 233.413 172.928 245.164 150.924C256.915 128.92 259.465 105.237 251.526 95.6471C251.266 95.3176 250.99 95.0065 250.698 94.7157C251.894 95.6313 253.027 96.6523 254.089 97.7696C254.623 98.3675 255.103 99.0275 255.522 99.7394C257.957 103.895 259.358 108.751 259.57 113.772C260.372 125.591 257.007 140.724 249.212 154.65Z" fill="black"/>
</g>
<path d="M84.7826 393.441C85.2952 397.441 88.7258 399.915 91.9724 401.473C97.7777 404.268 103.953 405.885 110.229 406.252C114.985 386.656 118.301 366.627 120.14 346.379C104.643 357.557 82.0881 372.49 84.7826 393.441Z" fill="#263238"/>
<path opacity="0.2" d="M84.7826 393.441C85.2952 397.441 88.7258 399.915 91.9724 401.473C97.7777 404.268 103.953 405.885 110.229 406.252C114.985 386.656 118.301 366.627 120.14 346.379C104.643 357.557 82.0881 372.49 84.7826 393.441Z" fill="black"/>
<path d="M163.251 151.658C163.737 151.566 164.263 152.177 164.407 153.048C164.552 153.918 164.276 154.742 163.776 154.834C163.277 154.926 162.764 154.33 162.62 153.445C162.475 152.559 162.751 151.765 163.251 151.658Z" fill="#263238"/>
<path d="M164.579 163.262C165.22 163.317 165.864 163.209 166.466 162.945C167.067 162.682 167.612 162.269 168.062 161.735C166.195 159.761 164.564 157.507 163.212 155.031L164.579 163.262Z" fill="#B74D3C"/>
<path d="M159.371 149.105C159.732 148.587 160.195 148.177 160.722 147.911C161.248 147.645 161.822 147.531 162.395 147.578V147.578H162.552C162.672 147.578 162.787 147.524 162.873 147.427C162.959 147.33 163.009 147.198 163.012 147.059C163.014 146.989 163.004 146.919 162.982 146.853C162.961 146.788 162.928 146.728 162.887 146.677C162.845 146.626 162.796 146.585 162.741 146.556C162.685 146.527 162.626 146.511 162.565 146.509C161.856 146.416 161.137 146.521 160.47 146.816C159.802 147.111 159.205 147.587 158.727 148.204C158.69 148.249 158.66 148.301 158.639 148.359C158.619 148.416 158.609 148.478 158.609 148.54C158.606 148.61 158.614 148.679 158.634 148.745C158.654 148.81 158.685 148.871 158.726 148.922C158.766 148.973 158.815 149.014 158.87 149.043C158.924 149.072 158.983 149.088 159.043 149.09C159.147 149.141 159.264 149.146 159.371 149.105Z" fill="#263238"/>
<path d="M153.432 202.244C140.485 202.091 138.645 193.861 138.645 193.861C142.588 189.585 142.916 181.553 142.22 174.377C143.229 176.1 144.509 177.586 145.992 178.759C147.345 179.873 148.884 180.645 150.51 181.024C152.135 181.403 153.812 181.38 155.429 180.958C155.486 180.971 155.544 180.971 155.6 180.958C155.562 181.097 155.535 181.24 155.521 181.385C154.641 187.112 155.219 193.25 160.372 195.128C160.358 195.113 167.693 202.412 153.432 202.244Z" fill="#CB7A63"/>
<path d="M155.995 178.792C155.828 179.485 155.697 180.188 155.601 180.899C155.545 180.912 155.487 180.912 155.43 180.899C153.812 181.321 152.136 181.344 150.51 180.965C148.884 180.586 147.345 179.815 145.993 178.7C144.51 177.528 143.23 176.041 142.22 174.318C142.05 172.501 141.8 170.729 141.537 169.096L155.47 178.38L155.995 178.792Z" fill="#CB7A63"/>
<path d="M134.691 195.145C134.691 195.145 136.859 187.861 139.948 185.616C143.037 183.372 156.589 186.105 158.692 187.143C160.795 188.182 162.845 193.892 162.845 193.892L134.691 195.145Z" fill="#263238"/>
<path opacity="0.5" d="M134.691 195.145C134.691 195.145 136.859 187.861 139.948 185.616C143.037 183.372 156.589 186.105 158.692 187.143C160.795 188.182 162.845 193.892 162.845 193.892L134.691 195.145Z" fill="white"/>
<path d="M165.485 166.741C165.399 169.322 164.751 171.836 163.602 174.047C162.453 176.258 160.839 178.095 158.913 179.384H158.834C157.842 180.091 156.759 180.606 155.627 180.911C155.57 180.925 155.512 180.925 155.456 180.911C153.838 181.334 152.162 181.356 150.536 180.977C148.91 180.599 147.371 179.827 146.018 178.713C144.535 177.54 143.255 176.053 142.246 174.33C139.775 170.238 138.815 164.817 137.133 157.182C136.565 154.713 136.548 152.117 137.084 149.639C137.62 147.16 138.691 144.882 140.197 143.018C141.702 141.155 143.591 139.768 145.686 138.99C147.782 138.211 150.013 138.066 152.17 138.568C161.949 140.889 165.866 156.587 165.485 166.741Z" fill="#CB7A63"/>
<path opacity="0.2" d="M158.808 179.401C157.817 180.108 156.734 180.623 155.601 180.928C155.601 180.928 156.074 174.24 156.074 174.24C156.074 174.24 158.125 179.401 158.808 179.401Z" fill="black"/>
<path d="M134.688 153.244C133.374 156.298 130.43 159.764 129.181 162.803C128.374 164.338 127.989 166.123 128.077 167.918C128.194 168.852 128.622 169.694 129.269 170.265C129.915 170.836 130.728 171.09 131.534 170.972C130.219 173.141 131.192 176.714 133.203 178.195C134.242 178.916 135.463 179.199 136.66 178.996C137.857 178.793 138.957 178.116 139.775 177.08C141.09 178.729 142.075 179.951 144.073 179.982C145.05 179.993 146.019 179.776 146.923 179.343C147.826 178.91 148.645 178.27 149.331 177.462C150.234 178.582 151.412 179.354 152.704 179.673C153.997 179.993 155.342 179.845 156.56 179.249C157.713 178.613 158.643 177.537 159.193 176.199C159.744 174.862 159.881 173.345 159.583 171.904C158.867 169.384 158.534 166.738 158.597 164.086C158.597 164.086 161.423 159.26 160.267 156.344L159.031 147.182C156.827 145.239 154.106 144.256 151.342 144.403C148.586 144.555 145.874 145.257 143.324 146.48C139.762 148.113 136.226 149.488 134.688 153.244Z" fill="#263238"/>
<path d="M156.181 152.695C158.876 153.688 160.217 158.391 160.282 161.353C160.361 164.621 158.442 166.637 156.024 164.407C154.208 162.673 152.93 160.298 152.383 157.643C151.778 154.467 153.474 151.764 156.181 152.695Z" fill="#CB7A63"/>
<path d="M130.628 539.477C129.313 539.4 128.078 539.11 127.723 538.408C127.625 538.221 127.583 538.002 127.602 537.784C127.621 537.566 127.7 537.362 127.828 537.201C127.92 537.041 128.04 536.904 128.18 536.802C128.321 536.699 128.479 536.632 128.643 536.606C130.365 536.178 133.717 538.728 133.901 538.835C133.939 538.867 133.969 538.912 133.985 538.964C134.001 539.016 134.004 539.072 133.993 539.125C133.984 539.183 133.958 539.236 133.92 539.275C133.882 539.314 133.833 539.337 133.782 539.339C132.736 539.491 131.681 539.537 130.628 539.477V539.477ZM129.208 537.11C129.055 537.087 128.901 537.087 128.748 537.11C128.645 537.125 128.546 537.166 128.458 537.229C128.37 537.292 128.294 537.377 128.236 537.476C128.051 537.812 128.091 537.965 128.236 538.087C128.643 538.866 131.206 539.034 133.112 538.866C131.941 537.99 130.632 537.393 129.261 537.11H129.208Z" fill="#407BFF"/>
<path d="M133.716 539.313H133.61C132.441 538.595 130.232 535.954 130.535 534.61C130.535 534.289 130.824 533.923 131.494 533.877C131.734 533.861 131.974 533.902 132.2 533.997C132.425 534.091 132.633 534.237 132.809 534.427C134.057 535.755 134.005 538.916 134.005 539.008C133.999 539.057 133.984 539.104 133.962 539.146C133.939 539.188 133.909 539.224 133.873 539.252C133.829 539.295 133.773 539.317 133.716 539.313V539.313ZM131.626 534.442H131.442C131.008 534.442 130.955 534.671 130.942 534.732C130.771 535.526 132.257 537.603 133.426 538.565C133.418 537.235 133.05 535.943 132.375 534.87C132.273 534.733 132.148 534.623 132.008 534.544C131.868 534.465 131.715 534.42 131.56 534.411L131.626 534.442Z" fill="#407BFF"/>
<path d="M146.072 512.697L136.004 512.07L134.755 539.098L144.876 539.724L146.072 512.697Z" fill="#CB7A63"/>
<path d="M132.402 538.503C125.134 542.961 123.004 543.084 114.881 544.611C113.107 544.946 113.83 549.894 117.996 550.153C124.897 550.596 125.646 550.26 131.522 550.627C136.556 550.948 142.326 551.574 146.322 551.894C146.444 551.917 146.568 551.917 146.69 551.894C147.089 551.83 147.451 551.585 147.697 551.214C147.942 550.843 148.053 550.374 148.004 549.909L146.861 539.358C146.831 539.13 146.735 538.921 146.59 538.766C146.444 538.61 146.257 538.517 146.059 538.503L134.979 537.815C134.082 537.772 133.192 538.009 132.402 538.503V538.503Z" fill="#263238"/>
<path opacity="0.2" d="M146.084 512.71L145.335 529.034L135.227 528.408L136.003 512.084L146.084 512.71Z" fill="black"/>
<path d="M160.085 277.023C160.085 277.023 159.231 355.006 156.957 391.76C154.827 425.995 148.242 525.783 148.242 525.783L131.155 524.699C131.155 524.699 127.567 422.178 127.212 387.271C126.896 354.196 125.503 275.526 125.503 275.526L160.085 277.023Z" fill="#407BFF"/>
<path d="M160.085 277.023C160.085 277.023 159.231 355.006 156.957 391.76C154.827 425.995 148.242 525.783 148.242 525.783L131.155 524.699C131.155 524.699 127.567 422.178 127.212 387.271C126.896 354.196 125.503 275.526 125.503 275.526L160.085 277.023Z" fill="#263238"/>
<path opacity="0.6" d="M160.085 277.023C160.085 277.023 159.231 355.006 156.957 391.76C154.827 425.995 148.242 525.783 148.242 525.783L131.155 524.699C131.155 524.699 127.567 422.178 127.212 387.271C126.896 354.196 125.503 275.526 125.503 275.526L160.085 277.023Z" fill="white"/>
<path d="M151.329 518.985L150.172 526.223L129.365 524.925C129.365 524.925 129.023 516.695 129.102 516.695L151.329 518.985Z" fill="#263238"/>
<g opacity="0.5">
<path opacity="0.5" d="M151.329 518.988L150.172 526.226L129.365 524.928C129.365 524.928 129.023 516.697 129.102 516.697L151.329 518.988Z" fill="white"/>
</g>
<path d="M234.744 537.295C234.626 535.768 234.678 534.318 235.217 533.753C235.359 533.607 235.536 533.515 235.724 533.491C235.913 533.466 236.103 533.51 236.269 533.615C236.413 533.695 236.542 533.808 236.648 533.947C236.754 534.086 236.835 534.249 236.887 534.425C237.504 536.288 235.848 540.67 235.769 540.884C235.752 540.939 235.719 540.985 235.676 541.016C235.633 541.046 235.583 541.059 235.533 541.052C235.484 541.048 235.438 541.026 235.401 540.991C235.363 540.955 235.336 540.907 235.322 540.853C235.044 539.688 234.85 538.498 234.744 537.295V537.295ZM236.558 535.173C236.571 534.995 236.571 534.816 236.558 534.638C236.532 534.526 236.484 534.423 236.418 534.335C236.352 534.248 236.269 534.179 236.177 534.134C235.861 533.982 235.717 534.134 235.651 534.211C235.046 534.837 235.27 537.784 235.717 539.922C236.262 538.416 236.561 536.806 236.597 535.173H236.558Z" fill="#407BFF"/>
<path d="M235.281 540.778C235.275 540.742 235.275 540.706 235.281 540.671C235.715 539.144 237.66 536.09 238.817 536.09C239.093 536.09 239.448 536.288 239.566 537.021C239.617 537.299 239.619 537.585 239.571 537.864C239.524 538.142 239.428 538.406 239.29 538.64C238.37 540.335 235.662 540.961 235.557 540.991C235.516 541 235.474 540.997 235.435 540.98C235.396 540.964 235.361 540.937 235.334 540.9C235.304 540.868 235.286 540.824 235.281 540.778V540.778ZM239.106 537.388V537.204C239.106 536.716 238.843 536.701 238.791 536.716C238.094 536.716 236.543 538.808 235.912 540.35C237.052 540.059 238.092 539.378 238.896 538.396C239.079 538.098 239.171 537.738 239.159 537.372L239.106 537.388Z" fill="#407BFF"/>
<path d="M227.895 514.359L218.181 516.42L225.686 542.913L235.479 540.837L227.895 514.359Z" fill="#CB7A63"/>
<path d="M237.725 539.022C240.669 542.335 242.22 544.03 250.159 545.863C251.907 546.26 250.751 551.192 246.584 551.299C239.696 551.482 243.469 551.008 237.593 551.161C232.572 551.283 226.802 551.711 222.806 551.894C222.671 551.917 222.534 551.917 222.399 551.894C222.211 551.847 222.032 551.757 221.874 551.629C221.716 551.501 221.582 551.338 221.479 551.149C221.376 550.959 221.307 550.748 221.275 550.527C221.244 550.307 221.25 550.081 221.295 549.863L223.319 539.327C223.361 539.095 223.47 538.887 223.628 538.737C223.785 538.587 223.983 538.504 224.186 538.502L235.227 538.212C235.669 538.146 236.118 538.184 236.547 538.323C236.976 538.462 237.376 538.699 237.725 539.022V539.022Z" fill="#263238"/>
<path opacity="0.2" d="M227.908 514.373L231.798 527.978L222.045 530.055L218.181 516.419L227.908 514.373Z" fill="black"/>
<path opacity="0.3" d="M159.792 328.297C158.478 354.714 157.334 386.323 156.401 403.898C156.401 404.753 156.296 405.624 156.27 406.57C152.064 378.688 145.754 333.275 157.387 328.587C158.169 328.337 158.982 328.239 159.792 328.297Z" fill="black"/>
<path d="M130.128 280.641C130.128 280.641 132.389 307.806 136.03 319.732C141.182 336.605 147.61 342.041 152.552 352.134C161.266 369.924 166.116 385.209 171.992 399.364C190.393 443.646 215.867 521.629 215.867 521.629L234.268 520.102L169.087 279.343L130.128 280.641Z" fill="#263238"/>
<path opacity="0.6" d="M130.128 280.641C130.128 280.641 132.389 307.806 136.03 319.732C141.182 336.605 147.61 342.041 152.552 352.134C161.266 369.924 166.116 385.209 171.992 399.364C190.393 443.646 215.867 521.629 215.867 521.629L234.268 520.102L169.087 279.343L130.128 280.641Z" fill="white"/>
<path d="M237.528 515.567L237.751 522.912L216.366 526.622C216.366 526.622 214.433 518.682 214.512 518.682L237.528 515.567Z" fill="#263238"/>
<g opacity="0.5">
<path opacity="0.5" d="M237.528 515.57L237.751 522.915L216.366 526.625C216.366 526.625 214.433 518.685 214.512 518.685L237.528 515.57Z" fill="white"/>
</g>
<path d="M135.673 260.452C134.779 263.048 132.676 268.224 129.456 271.278C129.095 271.624 128.661 271.852 128.199 271.938C127.737 272.024 127.263 271.965 126.827 271.767C126.827 271.767 121.162 267.705 120.715 265.873C120.696 265.762 120.696 265.648 120.715 265.537L122.122 257.902L122.292 257.825C123.318 257.428 128.864 255.459 131.204 256.558L134.871 258.268C135.06 258.331 135.234 258.441 135.381 258.591C135.528 258.742 135.644 258.929 135.721 259.138C135.797 259.347 135.833 259.574 135.825 259.801C135.817 260.028 135.765 260.251 135.673 260.452V260.452Z" fill="#CB7A63"/>
<path d="M126.434 213.469L107.204 235.228L122.333 257.889L122.162 257.965L120.756 265.6C120.736 265.711 120.736 265.825 120.756 265.936C119.802 266.345 118.773 266.455 117.772 266.256C117.772 266.256 89.0784 239.183 90.6951 234.51C92.2349 230.812 93.9915 227.24 95.9527 223.822L96.1499 223.47C98.6867 218.584 114.644 190.839 126.644 190.991C136.134 191.083 135.621 203.772 126.434 213.469Z" fill="#407BFF"/>
<path opacity="0.5" d="M126.435 213.469L107.205 235.228L122.334 257.889L122.163 257.965L120.757 265.6C120.738 265.711 120.738 265.825 120.757 265.936C119.804 266.345 118.775 266.455 117.773 266.256C117.773 266.256 88.7249 243.092 90.6965 234.51C91.2486 232.052 93.7722 227.731 95.9541 223.822L96.1513 223.47C98.6881 218.584 114.645 190.839 126.645 190.991C136.135 191.083 135.623 203.772 126.435 213.469Z" fill="black"/>
<path d="M120.77 265.876C120.751 265.765 120.751 265.651 120.77 265.54L122.177 257.905L122.348 257.829L122.821 258.058C122.821 258.058 124.345 264.288 120.77 265.876Z" fill="#263238"/>
<path d="M215.748 394.658C186.2 403.011 189.118 374.807 148.503 393.131C136.542 398.537 129.589 384.58 123.122 382.29C110.228 377.709 95.8876 379.114 84.5312 387.558C92.7214 349.015 105.949 312.158 123.753 278.272C124.686 270.301 127.42 253.443 119.994 206.29C118.679 197.632 126.356 190.211 133.913 189.753L138.685 189.34C145.899 188.946 153.127 189.032 160.333 189.6C162.738 189.875 165.078 190.302 167.155 190.76C169.851 191.347 172.331 192.871 174.265 195.132C176.199 197.393 177.497 200.283 177.985 203.419C179.27 211.899 179.711 220.522 179.3 229.118C179.011 238.081 178.117 249.793 176.277 265.979C175.817 270.041 175.291 274.393 174.699 279.066C174.699 279.066 194.074 333.106 215.748 394.658Z" fill="#407BFF"/>
<path opacity="0.5" d="M215.748 394.658C186.2 403.011 189.118 374.807 148.503 393.131C136.542 398.537 129.589 384.58 123.122 382.29C110.228 377.709 95.8876 379.114 84.5312 387.558C92.7214 349.015 105.949 312.158 123.753 278.272C124.686 270.301 127.42 253.443 119.994 206.29C118.679 197.632 126.356 190.211 133.913 189.753L138.685 189.34C145.899 188.946 153.127 189.032 160.333 189.6C162.738 189.875 165.078 190.302 167.155 190.76C169.851 191.347 172.331 192.871 174.265 195.132C176.199 197.393 177.497 200.283 177.985 203.419C179.27 211.899 179.711 220.522 179.3 229.118C179.011 238.081 178.117 249.793 176.277 265.979C175.817 270.041 175.291 274.393 174.699 279.066C174.699 279.066 194.074 333.106 215.748 394.658Z" fill="black"/>
<path opacity="0.2" d="M179.3 229.149C179.01 238.112 178.117 249.824 176.276 266.01C175.146 251.84 173.135 237.929 165.906 209.512L179.05 214.383C179.313 219.101 179.352 224.125 179.3 229.149Z" fill="black"/>
<path d="M172.766 167.459C172.617 166.999 172.349 166.604 171.998 166.33C171.646 166.056 171.23 165.917 170.807 165.932C168.034 165.673 166.588 165.428 163.998 166.619C163.803 166.695 163.63 166.833 163.499 167.016C163.425 167.203 163.389 167.407 163.394 167.612C163.394 169.399 163.302 171.185 163.249 172.956C163.182 173.353 163.229 173.763 163.384 174.125C163.538 174.487 163.791 174.779 164.104 174.957C165.523 176.117 172.24 180.087 172.24 180.087C173.554 180.255 176.393 177.308 177.576 176.53L172.766 167.459Z" fill="#CB7A63"/>
<path d="M170.416 180.285L177.96 175.582C177.96 175.582 197.519 204.594 198.675 206.931C207.876 225.758 195.232 225.255 191.643 222.659C183.402 216.719 184.204 208.137 180.97 200.624L170.416 180.285Z" fill="#407BFF"/>
<g opacity="0.5">
<path opacity="0.5" d="M170.413 180.288L177.958 175.585C177.958 175.585 197.516 204.597 198.673 206.934C207.874 225.761 195.229 225.257 191.641 222.661C183.4 216.721 184.201 208.14 180.968 200.627L170.413 180.288Z" fill="black"/>
</g>
<path d="M175.186 194.761C183.707 202.129 192.643 208.827 201.934 214.81L202.394 217.055C202.622 218.143 202.597 219.282 202.322 220.355C202.047 221.428 201.531 222.397 200.828 223.163C200.125 223.928 199.259 224.463 198.319 224.713C197.38 224.962 196.4 224.917 195.48 224.583L193.193 223.758C193.193 223.758 163.251 214.245 162.594 204.228C158.611 198.502 166.024 185.019 175.186 194.761Z" fill="#407BFF"/>
<path opacity="0.5" d="M175.186 194.761C183.707 202.129 192.643 208.827 201.934 214.81L202.394 217.055C202.622 218.143 202.597 219.282 202.322 220.355C202.047 221.428 201.531 222.397 200.828 223.163C200.125 223.928 199.259 224.463 198.319 224.713C197.38 224.962 196.4 224.917 195.48 224.583L193.193 223.758C193.193 223.758 163.251 214.245 162.594 204.228C158.611 198.502 166.024 185.019 175.186 194.761Z" fill="black"/>
<path d="M163.107 144.694L158.928 145.854L131.759 153.382C131.691 153.148 131.638 152.908 131.601 152.664C131.305 151.247 131.09 149.809 130.957 148.358C130.865 147.351 130.799 146.343 130.786 145.304C130.628 134.615 135.111 125.454 142.195 123.514C149.28 121.575 156.811 127.317 160.833 136.967C161.188 137.822 161.517 138.738 161.819 139.655C162.285 141.042 162.667 142.466 162.963 143.915C162.989 144.235 163.068 144.48 163.107 144.694Z" fill="#263238"/>
<path opacity="0.5" d="M162.989 144.694L158.809 145.885L131.64 153.413C131.64 153.199 131.535 152.94 131.483 152.695C131.191 151.278 130.98 149.839 130.852 148.389L161.674 139.731C162.14 141.119 162.522 142.542 162.818 143.991C162.989 144.236 162.989 144.48 162.989 144.694Z" fill="black"/>
<path d="M173.163 144.938C173.256 145.391 173.27 145.862 173.205 146.322C173.141 146.782 172.998 147.222 172.785 147.617C172.572 148.012 172.293 148.354 171.966 148.623C171.638 148.892 171.267 149.082 170.875 149.183L128.026 161.078C127.243 161.294 126.419 161.14 125.734 160.651C125.049 160.161 124.559 159.376 124.372 158.467C124.271 158.009 124.252 157.531 124.315 157.064C124.378 156.597 124.523 156.149 124.74 155.749C125.169 154.973 125.845 154.424 126.619 154.222L169.508 142.312C169.897 142.205 170.3 142.188 170.693 142.263C171.087 142.337 171.465 142.501 171.804 142.745C172.144 142.989 172.438 143.308 172.671 143.684C172.904 144.061 173.071 144.487 173.163 144.938V144.938Z" fill="#263238"/>
</svg>
