<svg width="53" height="53" viewBox="0 0 53 53" fill="none" xmlns="http://www.w3.org/2000/svg">
<path d="M27.1838 0.558292C26.9447 0.557796 26.7085 0.619607 26.4927 0.739175C26.2769 0.858743 26.087 1.03302 25.9368 1.24918L25.6523 1.49433C20.1368 -0.489185 13.8444 0.966881 9.46408 5.86996C7.62973 7.89205 6.26512 10.42 5.49706 13.2189C4.72901 16.0178 4.58242 18.9969 5.07092 21.8793C5.01663 21.9349 4.96333 21.9919 4.91105 22.0501L2.42032 24.836C1.93851 25.367 1.55481 26.0063 1.2926 26.7152C1.0304 27.424 0.895172 28.1875 0.895172 28.959C0.895172 29.7305 1.0304 30.494 1.2926 31.2028C1.55481 31.9117 1.93851 32.5511 2.42032 33.082C3.69287 34.5084 5.4578 35.0433 7.09804 34.6867C7.29947 35.7602 7.76948 36.7816 8.51447 37.6137C9.49605 38.7132 10.7718 39.2815 12.0571 39.3223C12.0923 40.7598 12.6007 42.1862 13.5823 43.2857C14.5638 44.3851 15.8428 44.9572 17.1281 44.9943C17.1601 46.4318 17.6717 47.8619 18.6533 48.9613C19.593 49.9974 20.824 50.6029 22.1184 50.6657C23.4128 50.7285 24.683 50.2444 25.6938 49.3031L27.0911 50.8631C29.1374 53.155 32.4562 53.155 34.5025 50.8631C35.4809 49.7711 35.9893 48.3522 36.034 46.9184C37.313 46.8738 38.5759 46.3055 39.5511 45.2135C40.5295 44.1177 41.0379 42.6988 41.0763 41.265C42.3757 41.212 43.6129 40.6051 44.5518 39.5601C45.3287 38.6946 45.8083 37.6211 45.9938 36.4993C46.8168 36.667 47.6622 36.6078 48.4619 36.3265C49.2616 36.0452 49.9932 35.5497 50.598 34.8798C51.0803 34.3488 51.4644 33.7092 51.7269 33C51.9894 32.2908 52.1248 31.5269 52.1248 30.7549C52.1248 29.983 51.9894 29.2191 51.7269 28.5099C51.4644 27.8007 51.0803 27.1611 50.598 26.63L48.2959 24.0559L48.7659 22.013C49.7166 17.8363 49.2352 13.3941 47.423 9.62156C44.75 4.02759 39.5639 0.573149 33.9558 0.573149H30.023C29.8537 0.563399 29.6842 0.558445 29.5146 0.558292H27.1838ZM35.0269 14.3612L42.7165 22.9676L42.7261 22.975L48.2927 29.2079C48.4735 29.4071 48.6175 29.647 48.7159 29.913C48.8143 30.179 48.8651 30.4654 48.8651 30.7549C48.8651 31.0445 48.8143 31.3309 48.7159 31.5969C48.6175 31.8629 48.4735 32.1028 48.2927 32.302C47.9191 32.7129 47.4243 32.942 46.9098 32.942C46.3954 32.942 45.9005 32.7129 45.527 32.302L41.3033 27.5772C40.9937 27.2322 40.5813 27.0395 40.1522 27.0395C39.7232 27.0395 39.3108 27.2322 39.0012 27.5772L38.9564 27.6218C38.8057 27.7877 38.6856 27.9876 38.6036 28.2092C38.5215 28.4308 38.4792 28.6695 38.4792 28.9107C38.4792 29.152 38.5215 29.3907 38.6036 29.6123C38.6856 29.8339 38.8057 30.0337 38.9564 30.1996L42.2497 33.8844C43.017 34.7387 43.017 36.1279 42.2497 36.9859C41.9101 37.3598 41.4691 37.5846 41.0023 37.6219C40.5356 37.6592 40.0722 37.5066 39.6918 37.1902C39.3743 36.9237 38.9865 36.7949 38.5957 36.8261C38.2049 36.8573 37.8359 37.0466 37.5528 37.3611C37.2761 37.6685 37.109 38.0854 37.0847 38.5293C37.0604 38.9731 37.1807 39.4113 37.4217 39.7569C37.7087 40.1746 37.8502 40.7022 37.8183 41.2354C37.7863 41.7685 37.5831 42.2682 37.249 42.6356C36.9046 43.0151 36.4559 43.241 35.9821 43.2736C35.5083 43.3063 35.0398 43.1434 34.6592 42.8139C34.3433 42.5386 33.9538 42.4018 33.5595 42.4276C33.1652 42.4534 32.7914 42.6403 32.5042 42.9551C32.2239 43.262 32.0539 43.6807 32.0284 44.1272C32.0029 44.5737 32.1237 45.0148 32.3667 45.362C32.6604 45.7853 32.8061 46.3216 32.7747 46.864C32.7433 47.4065 32.5371 47.9153 32.1972 48.289C31.8188 48.7063 31.3169 48.9389 30.7952 48.9389C30.2734 48.9389 29.7716 48.7063 29.3931 48.289L28.0087 46.7401L28.5139 46.1755C28.9962 45.6445 29.3803 45.0048 29.6428 44.2957C29.9053 43.5865 30.0407 42.8226 30.0407 42.0506C30.0407 41.2786 29.9053 40.5147 29.6428 39.8055C29.3803 39.0964 28.9962 38.4567 28.5139 37.9257C27.5583 36.8618 26.2944 36.2522 24.9712 36.217C24.9324 34.713 24.3843 33.2874 23.4461 32.25C22.4892 31.1866 21.2241 30.5783 19.9002 30.5451C19.8614 29.041 19.3133 27.6154 18.3751 26.578C17.7608 25.8988 17.0162 25.3994 16.2027 25.121C15.3893 24.8426 14.5305 24.7933 13.6974 24.9771C13.4866 23.8594 12.9934 22.8402 12.2809 22.0501C11.7348 21.4446 11.084 20.9811 10.3717 20.6904C9.65946 20.3996 8.9021 20.2883 8.14997 20.3638C7.89807 18.1872 8.09422 15.9722 8.72229 13.9007C9.35037 11.8293 10.3925 9.96049 11.763 8.44779C13.1479 6.91071 14.8083 5.7486 16.6253 5.04477C18.4423 4.34094 20.3708 4.11281 22.2727 4.37675L17.6205 8.35122C17.0253 8.85367 16.5239 9.49106 16.1466 10.2249C15.7693 10.9587 15.5239 11.7738 15.4253 12.6208C15.3267 13.4679 15.3769 14.3294 15.5728 15.1533C15.7688 15.9772 16.1064 16.7464 16.5654 17.4145C17.4936 18.7665 18.8348 19.6508 20.3099 19.8833C21.785 20.1157 23.2805 19.6785 24.4852 18.6625L29.5242 14.3649H35.0237L35.0269 14.3612ZM19.5133 11.3413L27.8009 4.27275H29.5146C29.6714 4.27178 29.8282 4.27673 29.9847 4.2876H33.9558C38.4448 4.2876 42.5406 7.05487 44.6285 11.4268C46.0417 14.3835 46.4126 17.8194 45.674 21.0621L45.6644 21.0992L36.8398 11.1928C36.5407 10.8442 36.1347 10.6478 35.7111 10.6467H28.9967C28.6573 10.6475 28.327 10.7737 28.0535 11.007L22.5924 15.665C22.056 16.1112 21.393 16.3024 20.7392 16.1996C20.0855 16.0967 19.4902 15.7075 19.0753 15.1115C18.882 14.8348 18.7394 14.5151 18.6564 14.172C18.5735 13.8288 18.5518 13.4696 18.5929 13.1164C18.6339 12.7633 18.7367 12.4236 18.895 12.1183C19.0533 11.813 19.2638 11.5486 19.5133 11.3413ZM20.9266 43.3228L20.9585 43.2857L23.4461 40.4998L23.4749 40.4701C23.8505 40.0733 24.3413 39.8563 24.849 39.8625C25.3566 39.8687 25.8434 40.0977 26.2118 40.5035C26.3926 40.7027 26.5366 40.9426 26.635 41.2086C26.7334 41.4746 26.7842 41.7611 26.7842 42.0506C26.7842 42.3401 26.7334 42.6266 26.635 42.8926C26.5366 43.1585 26.3926 43.3985 26.2118 43.5977L23.7211 46.3835C23.3475 46.7944 22.8526 47.0235 22.3382 47.0235C21.8238 47.0235 21.3289 46.7944 20.9553 46.3835C20.7769 46.1873 20.6342 45.9514 20.5357 45.6898C20.4372 45.4283 20.3849 45.1465 20.3819 44.861C20.3789 44.5756 20.4253 44.2923 20.5183 44.0281C20.6113 43.7639 20.7491 43.524 20.9234 43.3228H20.9266ZM21.1728 37.8923L21.1408 37.9257L18.6533 40.7115L18.6213 40.745C18.2455 41.1402 17.755 41.3559 17.2481 41.349C16.7413 41.3421 16.2553 41.1131 15.8875 40.7078C15.7087 40.5107 15.566 40.2738 15.4677 40.0112C15.3694 39.7485 15.3177 39.4656 15.3156 39.1793C15.3135 38.8929 15.3611 38.609 15.4555 38.3445C15.5499 38.08 15.6893 37.8403 15.8652 37.6397L15.8875 37.6137L18.3751 34.8278L18.3975 34.8018C18.7726 34.4019 19.2644 34.1822 19.7735 34.1871C20.2827 34.1919 20.7713 34.4209 21.1408 34.8278C21.3197 35.0241 21.4629 35.2603 21.5617 35.5221C21.6605 35.784 21.7129 36.0663 21.7159 36.3522C21.7189 36.6381 21.6723 36.9218 21.579 37.1863C21.4857 37.4509 21.3476 37.691 21.1728 37.8923ZM16.073 32.25L13.5823 35.0359L13.5599 35.0619C13.1847 35.4617 12.6929 35.6814 12.1838 35.6766C11.6747 35.6718 11.1861 35.4428 10.8166 35.0359C10.6357 34.8366 10.4917 34.5967 10.3933 34.3307C10.2949 34.0648 10.2441 33.7783 10.2441 33.4888C10.2441 33.1993 10.2949 32.9128 10.3933 32.6468C10.4917 32.3808 10.6357 32.1409 10.8166 31.9417L13.3041 29.1559C13.6778 28.7439 14.1733 28.5141 14.6885 28.5141C15.2037 28.5141 15.6993 28.7439 16.073 29.1559C16.2523 29.353 16.3955 29.5902 16.4941 29.8532C16.5926 30.1161 16.6445 30.3995 16.6466 30.6863C16.6487 30.9731 16.6009 31.2574 16.5062 31.5223C16.4115 31.7871 16.2718 32.0271 16.0954 32.2277L16.073 32.25ZM9.97885 27.7221L7.49131 30.5079C7.11799 30.9208 6.62229 31.1511 6.10686 31.1511C5.59143 31.1511 5.09574 30.9208 4.72241 30.5079C4.54108 30.3087 4.39665 30.0685 4.29794 29.8022C4.19922 29.5359 4.14831 29.249 4.14831 28.959C4.14831 28.669 4.19922 28.3821 4.29794 28.1158C4.39665 27.8495 4.54108 27.6093 4.72241 27.4101L7.21314 24.6242C7.58667 24.2133 8.08156 23.9843 8.596 23.9843C9.11044 23.9843 9.60532 24.2133 9.97885 24.6242C10.1602 24.8235 10.3046 25.0636 10.4033 25.33C10.502 25.5963 10.5529 25.8832 10.5529 26.1732C10.5529 26.4631 10.502 26.75 10.4033 27.0164C10.3046 27.2827 10.1602 27.5228 9.97885 27.7221Z" fill="#F7A6FF"/>
</svg>
