<svg width="47" height="54" viewBox="0 0 47 54" fill="none" xmlns="http://www.w3.org/2000/svg">
<path d="M23.2663 0.937012C10.9 0.937012 0.875702 12.5825 0.875702 26.9489C0.875702 41.3152 10.9 52.9607 23.2663 52.9607C35.6327 52.9607 45.657 41.3152 45.657 26.9489C45.657 12.5825 35.6327 0.937012 23.2663 0.937012Z" stroke="#8783E7" stroke-width="1.5" stroke-linecap="round" stroke-linejoin="round"/>
<path d="M14.3086 50.7966V32.1513L23.2649 13.943L32.2211 32.1513V50.7966" stroke="#8783E7" stroke-width="1.5" stroke-linecap="round" stroke-linejoin="round"/>
<path d="M14.3086 32.1521C14.3086 32.1521 16.832 34.7533 18.7867 34.7533C20.7415 34.7533 23.2649 32.1521 23.2649 32.1521C23.2649 32.1521 25.7883 34.7533 27.743 34.7533C29.6977 34.7533 32.2211 32.1521 32.2211 32.1521" stroke="#8783E7" stroke-width="1.5" stroke-linecap="round" stroke-linejoin="round"/>
</svg>
